/* XPM */
static char *star21739916521[] = {
/* columns rows colors chars-per-pixel */
"36 36 22 1 ",
"  c black",
". c #010000",
"X c #000100",
"o c #010100",
"O c #000001",
"+ c #010001",
"@ c #000101",
"# c #FEF200",
"$ c #FFF200",
"% c #FEF300",
"& c #FFF300",
"* c #FEF201",
"= c #FFF201",
"- c #FFF301",
"; c #FAFEB4",
": c #FAFFB4",
"> c #FBFFB4",
", c #FAFEB5",
"< c #FBFEB5",
"1 c #FAFFB5",
"2 c #FBFFB5",
"3 c None",
/* pixels */
"333333333333333333  3333333333333333",
"331133333333333333  3333333333311333",
"3331333333333333   o3333333333113333",
"3333133333333333o   3333333333133333",
"33333333333333  --==  33333333333333",
"33113333333333o =-==  33333333333333",
"33331333333333  =-  3333333333311333",
"33333333333333  --  3333333333333333",
"333333333333    ====  33333333333333",
"3113333  333    ====  3    333333333",
"333333 1> 33  ======   1>11 33333333",
"33333 111>    ======  111111 3333113",
"333333  >111  ======  1111  33331333",
"3113333 1111  ======  111 3333333333",
"3331333 1111  ==-=====      33    33",
"33333333 >11  ==-=====      33    33",
"333333      ================  ====  ",
"333333      %=== = -========  =-==  ",
"33    ====%==%-====-=======%-==-==  ",
"33    ======%= =-==- ======%-====-  ",
"  =====--===-==     =====---      33",
"  ===-====-================-      33",
"  ====    =-========-=-=    33333333",
"  ===-    =======-====-=    33333333",
"33  ==  33    =====-==  11 333333333",
"33  ==  33    ========  111 33331133",
"3333  3333 1>>+ ======  111> 3333113",
"3333  333 11>1+ ===-==   111 3333333",
"33333333 11111  ==-===   11>1 333333",
"3333333 111>    -=====  3  11 333333",
"3333333 1>  3333  ==  33333  3333333",
"33331333  333333  ==  33333333333333",
"3331133333333333 o-===  333333133333",
"3113333333333333  --==  333333313333",
"333331333333333333    33333333331133",
"333311333333333333    33333333333333"
}