/* XPM */
static char *star11739916521[] = {
/* columns rows colors chars-per-pixel */
"40 38 17 1 ",
"  c black",
". c #010000",
"X c #000100",
"o c #010100",
"O c #000001",
"+ c #010001",
"@ c #000101",
"# c #010101",
"$ c #FEF200",
"% c #FFF200",
"& c #FEF300",
"* c #FFF300",
"= c #FEF201",
"- c #FFF201",
"; c #FEF301",
": c #FFF301",
"> c None",
/* pixels */
">>>>>>>>>>>>>>>>>>  >>>>>>>>>>>>>>>>>>>>",
">>>>>>>>>>>>>>>>>>  >>>>>>>>>>>>>>>>>>>>",
">>>>>>>>>>>>>>>>>>  >>>>>>>>>>>>>>>>>>>>",
">>>>>>>>>>>>>>>>>>  >>>>>>>>>>>>>>>>>>>>",
">>>>>>>>>>>>>>>>  ::  >>>>>>>>>>>>>>>>>>",
">>>>>>>>>>>>>>>>  ::  >>>>>>>>>>>>>>>>>>",
">>>>>>>>>>>>>>>>  ::  >>>>>>>>>>>>>>>>>>",
">>>>>>>>>>>>>>>>  ::  >>>>>>>>>>>>>>>>>>",
">>>>>>>>>>>>>>  %:%%::  >>>>>>>>>>>>>>>>",
">>>>>>>>>>>>>>  :%::::  >>>>>>>>>>>>>>>>",
">>>>>>>>>>>>>>  %%::::  >>>>>>>>>>>>>>>>",
">>>>>>>>>>>>>>  %:::::  >>>>>>>>>>>>>>>>",
">>>>>>>>>>>>>>  :%%%%%  >>>>>>>>>>>>>>>>",
">>>>>>>>>>>>>>  %%:%%%  >>>>>>>>>>>>>>>>",
">>>>>>>>>>>>>>  %%::::::      >>>>>>>>>>",
">>>>>>>>>>>>>>  ::%%::::      >>>>>>>>>>",
">>>>>>>>      %%%%%$%%%%%%%%%%      >>>>",
">>>>>>>>      %:%%$%%%%$%:%%%%      >>>>",
">>>>    ::::::%%%%%$:%:%%:%%::::::::    ",
">>>>    :::::::%$%%%$%%%%%$:%:::::::   #",
"    :::::%%%:%%%%:$%:$::::::%%      >>>>",
"    ::::::%%::%%%%%%%::$::::%%      >>>>",
">>>>        ::::%:%%%%%%::    >>>>>>>>>>",
">>>>        ::::%%%:%%%%::    >>>>>>>>>>",
">>>>>>>>>>>>    %%%%%:%%  >>>>>>>>>>>>>>",
">>>>>>>>>>>>    %%:%%%%%  >>>>>>>>>>>>>>",
">>>>>>>>>>>>>>>>  %%%%%:  >>>>>>>>>>>>>>",
">>>>>>>>>>>>>>>>  :%%%%%  >>>>>>>>>>>>>>",
">>>>>>>>>>>>>>>>  :::%::  >>>>>>>>>>>>>>",
">>>>>>>>>>>>>>>>  ::::%%  >>>>>>>>>>>>>>",
">>>>>>>>>>>>>>>>>>  ::  >>>>>>>>>>>>>>>>",
">>>>>>>>>>>>>>>>>>  ::  >>>>>>>>>>>>>>>>",
">>>>>>>>>>>>>>>>>>  ::  >>>>>>>>>>>>>>>>",
">>>>>>>>>>>>>>>>>>  ::  >>>>>>>>>>>>>>>>",
">>>>>>>>>>>>>>>>>>>>  >>>>>>>>>>>>>>>>>>",
">>>>>>>>>>>>>>>>>>>>  >>>>>>>>>>>>>>>>>>",
">>>>>>>>>>>>>>>>>>>>  >>>>>>>>>>>>>>>>>>",
">>>>>>>>>>>>>>>>>>>>  >>>>>>>>>>>>>>>>>>"
};
