/* XPM */
static char *walking_right1739464269[] = {
/* columns rows colors chars-per-pixel */
"52 86 22 1 ",
"  c black",
". c #000100",
"X c #000001",
"o c #010001",
"O c #3C120E",
"+ c #3D120E",
"@ c #3C130E",
"# c #3D130E",
"$ c #3D120F",
"% c #3D130F",
"& c #FFC80E",
"* c #FEC90E",
"= c #FFC90E",
"- c #FFC90F",
"; c #E607F8",
": c #E707F8",
"> c #E607F9",
", c #66A4E0",
"< c #67A4E0",
"1 c #67A5E0",
"2 c #67A4E1",
"3 c #ff0000",
/* pixels */
"3333333333333333++++++++++++++++++++++++333333333333",
"3333333333333333++++++++++++++++++++++++333333333333",
"333333333333++++++++++++++++++++++++++++++++33333333",
"333333333333++++++++++++++++++++++++++++++++33333333",
"3333333333+++++++++++++O++++++++++++++++++++++333333",
"3333333333+++++++++++++O+++++++++%++++++++++++333333",
"33333333++++++++++++++OO++++++++++++++++++++++++3333",
"33333333++++++++++++++OO++++++++++++++++%++++++%3333",
"333333++++++++++++++++++++++++++++++++++++++++++++33",
"333333++++++++++++++++++++++++++%+++++++++++++++++33",
"33+++++++++++++++++++++++++#++++%+++++++++++++++++++",
"33+++%++++++++++++++++++++++++++++++++++++++++++++++",
"33++++++++++++++++++++++OO++++++++++++++++++++++++++",
"33++++++++++++++++++++++OO++++++++++++++++++++++++++",
"33+++++++++++++++++++++++++#+++++++++++O++++++++++++",
"33+++++++++++++++++++++++++++++++++++++%+++%++++++++",
"++%%++++%++++++%++++++++++++++++##&&+++#++++++++++++",
"++%+++++++++++++++++++++++++++++##&&+++#++++++++++++",
"++++++++++++++++O+++++++++++++++&&&&++##&&++++++++33",
"++++++++++++++%++++++++++++++++#&&&&++##&&++++##++33",
"++++++++++++++++++++++++++++##**&===**%#&&&&%###3333",
"++++++++++++++++++++++++++++#%**&=&=**##&&**%%##3333",
"+++++++++++++++++++++++++++###**====********&*++3333",
"+++++++++++++++++++++++++++###*&====********&&++3333",
"++++++++++++++++O+OO++++++++++&&==***&********++3333",
"++++++++++++++++++OO+++++++++#&&==*=**********++3333",
"++++++++++++++++++++++%%++++##**====********&*%+3333",
"++++++++++%++++++%+++++%++%+%%**&===**********%%3333",
"%+++++++++++O++++%++++&&&&%+++******......&&&&%%3333",
"++++++O++++++++++++++O&&*&%%++******......&&*&+%3333",
"+++++++++++++++O++++++&&****++&*-***&&--******&&++33",
"++++++++++++++++++++++&&****++&&***&&&&&******&&++33",
"++++++++++++++++++++++OO====##*****************&%+33",
"+++++%+++++++++++++++++O====#%*=****************%%33",
"++++++++++++++++++++++OO##==&&==**********&&****++33",
"++++++++++++++++++++++O+##==&&==**********&&****++33",
"33++++++++++++++++++++++####====**********......++33",
"33+++++%++++++++++++++++##++====**********......++33",
"333333++++++++++++++++++++++====**********&&--++3333",
"333333O++++++++%+++++++O++++====*********&&&&&++3333",
"3333333333++++++++++++++%+&***&&****&*****%%++333333",
"3333333333++++++++++++++%%&&**&&****&&****%%++333333",
"333333333333333333++++++******%#+%%%++++++3333333333",
"333333333333333333++++++******%%+++%++++++3333333333",
"333333333333333333++++++**&***&&++333333333333333333",
"333333333333333333++++++*****&&&++333333333333333333",
"3333333333333333333333++******&&++333333333333333333",
"3333333333333333333333++******&&++333333333333333333",
"3333333333333333333333%%+OOO++++++333333333333333333",
"3333333333333333333333%%+%OO++++++333333333333333333",
"33333333333333333333++++<<22++++++++3333333333333333",
"33333333333333333333++++<<22++++++++3333333333333333",
"333333333333333333++<<<<<<<<<<<<++++++33333333333333",
"333333333333333333++<<<<<<<<2<<<++++++33333333333333",
"3333333333333333++<<O+<<<<<<<<<<<<1111++333333333333",
"3333333333333333++<<++<<<<<<<<<<<<<<11++333333333333",
"3333333333333333++;;++<<<<<<;;;;;;;;;;++333333333333",
"3333333333333333++;;++<<<1<<;;;;;;;;;;++333333333333",
"3333333333333333++;;++<<<<<<++;;;;;;;;;;++3333333333",
"3333333333333333++;;++<<<<<<++;;;;;;;;;;+%3333333333",
"3333333333333333++<<++<<<<<<<<$+<<<<<<<<++3333333333",
"3333333333333333++<<+%<<<<<<<<++<<<<<<<<+%3333333333",
"3333333333333333++<<<<O+<<<<++++++<<<<<<++3333333333",
"3333333333333333OO<<<<OO<<<<++++++<<<<<<++3333333333",
"3333333333333333++;;;;++<<++&&&&**%+:;;;O+3333333333",
"3333333333333333++;;;;++<<++&&*&**%%::;;OO3333333333",
"3333333333333333++;;;;;;++%+****&*++::;;++3333333333",
"3333333333333333++;;;;;;++++****&&++::;;++3333333333",
"3333333333333333++++++++++++****&&++++++++3333333333",
"3333333333333333++++++++++++****&&++++++++3333333333",
"3333333333333333++1<<<<<<<1<++%%%+<<<<<<++3333333333",
"3333333333333333++1<<<<<<<11+++%++<<<<<1++3333333333",
"3333333333333333++<<<<<<<<<<<<<<<<<<<<++333333333333",
"3333333333333333++1<<<<<<<<<<<<<<<<<<<++333333333333",
"333333333333333333++<<<<<<<<<<<<<<<<++33333333333333",
"333333333333333333++<<<<1<<<<<<<<<<<++33333333333333",
"33333333333333333333++<<<<<<2<<<<<++3333333333333333",
"33333333333333333333++<<<<<1<<<<<1++3333333333333333",
"3333333333333333333333++++++++++++333333333333333333",
"3333333333333333333333++++++++++++333333333333333333",
"3333333333333333333333++++++++++33333333333333333333",
"3333333333333333333333++++++++++33333333333333333333",
"3333333333333333333333++++++++++++333333333333333333",
"3333333333333333333333++++++++++++333333333333333333",
"3333333333333333333333++++++++++++++3333333333333333",
"3333333333333333333333+++++++%++++++3333333333333333"
};
