/* XPM */
static char *walking_right_frame21739570604[] = {
/* columns rows colors chars-per-pixel */
"54 84 25 1 ",
"  c black",
". c #010000",
"X c #000100",
"o c #3C120E",
"O c #3D120E",
"+ c #3C130E",
"@ c #3D130E",
"# c #3D120F",
"$ c #3D130F",
"% c #FEC80E",
"& c #FFC80E",
"* c #FEC90E",
"= c #FFC90E",
"- c #FFC80F",
"; c #FFC90F",
": c #E606F8",
"> c #E706F8",
", c #E607F8",
"< c #E707F8",
"1 c #E607F9",
"2 c #66A4E0",
"3 c #67A4E0",
"4 c #67A5E0",
"5 c #67A4E1",
"6 c #ff0000",
/* pixels */
"6666666666666666OOoo@@OOOOOOOOOOOO##ooOO66666666666666",
"6666666666666666OOoo@@OOOOOOOOOOOO##ooOO66666666666666",
"666666666666@@@@OOOOOOOOO@@@OOOOOOOOOO@@OOOO6666666666",
"666666666666@@@@OOOOOOOOOO@@OOO@OOOOOO@@OOOO6666666666",
"6666666666OO@OOOOOOOOO##OOOO##ooOOOOOOOOOOOO@@66666666",
"6666666666OOOOOOOOOOOO##OOOO##ooOOOOOOOO@OOO@@66666666",
"66666666@@##OOOOOOoo@oOOOO@@OOOOOOOOOO@@OOOO@OOO666666",
"66666666@@##OOOO@@oo@@OOOO@@OOOOOOOOO@@oOOOOOO@O666666",
"666666OO#@OOOOOOOOooOOOOoo@@OOOOOOOOOO@@@OOOOO@O@@6666",
"666666O@OOOOOOOOOOooOOOOoo@@OOOOOOOOOO#@OOOOOO@#@@6666",
"66@@@@OoOOOOOOOO@OOOOOOOOO@@OOOOOOOOooOO##OOOOOO@O@@66",
"66@@@@ooOO@OOOOOOOOOOO@OOO@@OOOOOO@OooOO##OOOOOOOO@@66",
"66@@OOOOOO##OO@@OOOOOOOOOOOoOOooOOOOOO@OOOO@OOOOOOOO66",
"66@@OOOOOO##OO@@OOOOOOOOOOOOOOooOOOOOO@oOOOOOOOOOOOO66",
"66@@##OOOOOOoo@@##OOOO@OOOOOOOOOOO@OOo@o##OO@@OOOO@@66",
"66@@##OOOOOOoo@@#OOOOOOOOOOOOOOOOOOOoo@o##OO@@OOOO@@66",
"@@@@OOOO#OOOO@OOOOO@OO##OOOOOOoooo-%OO@@OOOO@oOOOOOo66",
"@@@@OOOOOoOOOOOOOOOOOO##OOOOOOooo@--OOO@OOOO@@OOOOOo66",
"@OOOOOOoOOOOOOOOOOoo@@OOOOOOOOOO%%--OO@@--OO@@OO@@6666",
"OOOOOOooOO@OOOOOOOoo#@O#OOOOOOOO%%--OO#@%-o@@@OO@@6666",
"OOOOOOOoOOOOOO@@OOOO@OOOOO@@@+==;====%+@%%%%@o@O666666",
"OOOOOOooOOOOOO@@OOOOOOOOOO@@@+========+@%%==@@OO666666",
"OO@@OOooOOOOOOOOOOOOOOOOOOO@@@&=====**======-%O@666666",
"OO@@OOooOOOOOOOoOOOOOOOOOOO@@@&&;===*=======--O@666666",
"OO#OOOOO@@OOOOOOOOOOOOOOOOOO@@&&==============@@666666",
"O@OOOOOO@@OOOOOOOOOOO@OOOOOO@@&&==============@@666666",
"ooOOOOoo@@OOooOO#OO@@@@@OOOO+@&&======;=======+@666666",
"ooOOOOoo@@OOooOO##OO@@@@OOOO++=&==============++666666",
"OOOOOOooOoOOoOOOOOOO#@%%--++@@&&%%;;XXXXXX==%-@@666666",
"OOOOOOOoOoOOOOOOOOOO@@%%--++@@&&%%;;XXXXXX==%-@@666666",
"OOOOOOOOOOOOOOOOOOOO@@-%&&&&@O&&====%%%%====%%%%@@6666",
"OOOOOOOOOOOOOOOOOOOO@@-%&&&&@@&&====%%%%===%%%--@@6666",
"OOOOOOO@OOOOoOOO@OOOOO##====@@==================+@6666",
"OOOOOOOOOOOOOO#OO#OOOO##====@+=%=====%==========+@6666",
"OOOOOOOO@@##OOOOOOOOOO##+@==%%==%%;;======%%====@@6666",
"O@OOOOOO@o##O@OOOOOOOO##@@==%%==%%-;======%%====@@6666",
"66@@@@@O@OOOOoOOOOOOOoOOoo@@;;============XXXXXX@o6666",
"66@@@@OOOOOOooOOOOOO#OOOoo@@;;============XXXXXXoo6666",
"666666ooOOOOOO@@OOOOOO#Ooo@@======;;====%%%%--@@666666",
"666666ooOOOOO@@@OOOOOO#OooOO===%==;;====%%%%--@@666666",
"6666666666##@@@@OOOO@@@O@@%%%%%%==;;-%%%%=@@@@66666666",
"6666666666##@@@@OOO@@oOO@@%%-%%%==;;--%%%=@@@@66666666",
"666666666666666666@@OO##======@@@@@@OO@@@@666666666666",
"666666666666666666@@OO##======@@@@@@O@@@@@666666666666",
"666666666666666666@@OOOO====%%%%@@66666666666666666666",
"666666666666666666@@OOOO=====%%%O@66666666666666666666",
"6666666666666666666666OO==%%==-%OO66666666666666666666",
"6666666666666666666666OO==%%==--OO66666666666666666666",
"6666666666666666666666OOOOOO##OO@@66666666666666666666",
"6666666666666666666666OOOOOOOOOO@@66666666666666666666",
"66666666666666666666@@@#3325OO@@@O@@666666666666666666",
"66666666666666666666@@##3335O@@@OO@@666666666666666666",
"666666666666666666@o333333333333OOOOOO6666666666666666",
"666666666666666666@o333333333333OOOOO@6666666666666666",
"6666666666666666OO33@@5333333333332522@@66666666666666",
"6666666666666666OO33@@5533333333333522@@66666666666666",
"6666666666666666OO::@@555544,,>>>>,,,,@@66666666666666",
"6666666666666666O@::@@555444,,>>,>,,,,@@66666666666666",
"6666666666666666@@>>@@255324oo>>,,,,,,::@@666666666666",
"6666666666666666@o>>@@253322#o>>,,,,,,::@@666666666666",
"6666666666666666OO33@@33333333@o32332444##666666666666",
"6666666666666666OO33@@33333333Oo32332235#@666666666666",
"6666666666666666OO3333@@3333OO@@@@333333@@666666666666",
"6666666666666666O@3333@@3333OO@@@@333333@@666666666666",
"6666666666666666@@:>,,o#22OO-%%%%%@@>,::@#666666666666",
"6666666666666666@@>>,,oo22OO--%%%%@@,,::@#666666666666",
"6666666666666666@@><,,>>@@@O==%%-%OO,,,,@@666666666666",
"6666666666666666@@<<>>>>@@@@===%--OO,,,,@@666666666666",
"6666666666666666@@OOOOOO@@@@====--@OOOOO@O666666666666",
"6666666666666666@OOOOOOOO@@@%===--OOOOOOOO666666666666",
"6666666666666666OO2333333325@@@@@@333333OO666666666666",
"6666666666666666OO5533333333@@@@@o333335OO666666666666",
"6666666666666666oo33333333323333333533OO66666666666666",
"6666666666666666Oo33233333333333333333OO66666666666666",
"666666666666666666@@3333333333333333OOOO66666666666666",
"666666666666666666@@3333333333333335OOOO66666666666666",
"6666666666666666@#@@OO333333245355OOooOO66666666666666",
"6666666666666666@#O@OO333333233322OOoOOO66666666666666",
"6666666666666666OOOOOOOOOO@@OO@@OOOOOOOOOO@@@@66666666",
"6666666666666666OOOOOOOOOO@@OO@@OOOOOOOOO@@@@@66666666",
"6666666666666666OOOOOO##@O666666@@@@@O@@OOOO@@66666666",
"6666666666666666OOO@OO##oO666666@@@@OO@@OOOO@@66666666",
"666666666666666666OOOO@@OO#O666666##OOOOO#OO6666666666",
"666666666666666666OOO@@@OOOO666666##OOOOOOOO6666666666"
};
