/* XPM */
static char *frisk_top_21740584475[] = {
/* columns rows colors chars-per-pixel */
"60 86 18 1 ",
"  c #3C120E",
". c #3D120E",
"X c #3D130E",
"o c #3D120F",
"O c #3D130F",
"+ c #FFC80E",
"@ c #FFC90E",
"# c #FFC90F",
"$ c #E606F8",
"% c #E607F8",
"& c #E707F8",
"* c #E607F9",
"= c #66A4E0",
"- c #67A4E0",
"; c #67A5E0",
": c #67A4E1",
"> c #67A5E1",
", c None",
/* pixels */
",,,,,,,,,,,,,,,,.........X....................,,,,,,,,,,,,,,",
",,,,,,,,,,,,,,,,........... .O................,,,,,,,,,,,,,,",
",,,,,,,,,,,,................X.....................,,,,,,,,,,",
",,,,,,,,,,,,....................O...... ..........,,,,,,,,,,",
",,,,,,,,,,...........................X..............,,,,,,,,",
",,,,,,,,,,....................... .O... ............,,,,,,,,",
",,,,,,,,,,............................................,,,,,,",
",,,,,,,,,,.........................O.X............O...,,,,,,",
",,,,,,,,................................................,,,,",
",,,,,,,,.............................................O..,,,,",
",,,,,,,,................................................,,,,",
",,,,,,,,.......... .....................................,,,,",
",,,,,,............................................. ......,,",
",,,,,,....................................................,,",
",,,,............................................ ........ ,,",
",,,,................O...... ..............................,,",
",,,,......................O.....O.  ......................,,",
",,,,........ .....................  ......................,,",
",,,,................O..............O.......X..............,,",
",,,,....................................X.................,,",
",,,,.............. ............................X..........X.",
",,,,....O.....................................XX............",
",,..........................................O...............",
",,........................O.................................",
",,.....................O..................... ..... .O......",
",,.......... ...............................................",
",,............................... ..oO..................O...",
",,..............................O..OoO.......... .. ........",
",,....XX........X......O... ........ ................. .....",
",,....XX....... ...............X....o.......................",
",,.....X...................XX............O...........O......",
",,........................XX................................",
",,..........................................................",
",,..........................................................",
",,........................O...... ..................  ......",
",,..................................................  ......",
",,........OO.................O..........OO..........OO  ....",
",,........OO............... ............OO..........oo  ....",
",,,,..  oooo........................................ooo ..,,",
",,,,.    ooo........O.............................O.ooo ..,,",
",,,,................................... ..........OO......,,",
",,,,....O.....O.....O.............................O.......,,",
",,,,,,,,,,.............. .............................,,,,,,",
",,,,,,,,,,................................ ...........,,,,,,",
",,,,,,,,,,,,,,................................X.,,,,,,,,,,,,",
",,,,,,,,,,,,,,O............... ...XX.......X...O,,,,,,,,,,,,",
",,,,,,,,,,,,,,,,,,,,,,,,..XX++++++++.X,,,,,,,,,,,,,,,,,,,,,,",
",,,,,,,,,,,,,,,,,,,,,,,,..OX++++++++..,,,,,,,,,,,,,,,,,,,,,,",
",,,,,,,,,,,,,,,,............ .................,,,,,,,,,,,,,,",
",,,,,,,,,,,,,,,,............OO..... ... ......,,,,,,,,,,,,,,",
",,,,,,,,,,,,,,..----..------------;;----;;..;-..,,,,,,,,,,,,",
",,,,,,,,,,,,,,..----..;-----------;;------..--..,,,,,,,,,,,,",
",,,,,,,,,,,,.X:---..------------------------..--..,,,,,,,,,,",
",,,,,,,,,,,,..---;..-=----------------------..;-..,,,,,,,,,,",
",,,,,,,,,,..---- .----------;-----------------  :-..,,,,,,,,",
",,,,,,,,,,..----  ----------------------;---;;. :-..,,,,,,,,",
",,,,,,,,..----..%%%%;;;---;;-;;;--;---------$$%%..--..,,,,,,",
",,,,,,,,..----..%%%%-;;;--;=;;-;--;;----;;-;%%%%..--..,,,,,,",
",,,,,,,,..:---..%%$$$%%%$$%%$$%%$&%%%%$$%%%%%%%%..:-..,,,,,,",
",,,,,,,,..:---..%%&$$$%%%$%&%$%%$$%%%%%$%%%%%%%%..::..,,,,,,",
",,,,,,,,..OX....----%%$$%%%%$%%%%%$$%%%%$&&%---;..--..,,,,,,",
",,,,,,,,..OX....----%%%$%%%%$$%%%%%$%%%%$$&&---;..--X.,,,,,,",
",,,,,,,,..@@@@++O $$;=----;;----;;----;;---;$$&&....XX,,,,,,",
",,,,,,,,O.@@@@@+OO%$;;-----;---;-;-----;---;&&&&....X.,,,,,,",
",,,,,,,,..+@@@##X.&&%%%%%%%%%%%%%%%%&%%%%%%%&&&%  ++X.,,,,,,",
",,,,,,,,..++@@##XX&&%%%%%%%%%%%%%%%%%%%%%%&%$$%%. ++XX,,,,,,",
",,,,,,,,X.++@+@@. ;;%%&$%%%%%%%%&%&$%%%%%%%%----....,,,,,,,,",
",,,,,,,,XX++@@@@. -;%&&$%%%%%%%%&&&$%%%%%%%%----....,,,,,,,,",
",,,,,,,,,,..... ..........O. ...........OO.......X,,,,,,,,,,",
",,,,,,,,,,..................  .......... O  .... .,,,,,,,,,,",
",,,,,,,,,,,,,,O.--------;;----;;----------------..,,,,,,,,,,",
",,,,,,,,,,,,,,..--------;;-----;-----------;----..,,,,,,,,,,",
",,,,,,,,,,,,,,..----. ......------------------;-..,,,,,,,,,,",
",,,,,,,,,,,,,,..----O.......-----;--------------..,,,,,,,,,,",
",,,,,,,,,,,,,,,,....................----------;;..,,,,,,,,,,",
",,,,,,,,,,,,,,,,....................----------;;..,,,,,,,,,,",
",,,,,,,,,,,,,,,,.. .............,,,, .--;-----..,,,,,,,,,,,,",
",,,,,,,,,,,,,,,,................,,,,..-------;..,,,,,,,,,,,,",
",,,,,,,,,,,,,,,,..  ....... ....,,,,............,,,,,,,,,,,,",
",,,,,,,,,,,,,,,,..  ...O........,,,,............,,,,,,,,,,,,",
",,,,,,,,,,,,,,,,,,............,,,,,,............,,,,,,,,,,,,",
",,,,,,,,,,,,,,,,,,............,,,,,,..O.........,,,,,,,,,,,,",
",,,,,,,,,,,,,,,,,,,,,,......,,,,,,,,........O.,,,,,,,,,,,,,,",
",,,,,,,,,,,,,,,,,,,,,,....O.,,,,,,,,..........,,,,,,,,,,,,,,",
",,,,,,,,,,,,,,,,,,,,,,,,,,,,,,,,,,,,,,....,,,,,,,,,,,,,,,,,,",
",,,,,,,,,,,,,,,,,,,,,,,,,,,,,,,,,,,,,,....,,,,,,,,,,,,,,,,,,"
};
