/* XPM */
static char *frisk_right_11740584475[] = {
/* columns rows colors chars-per-pixel */
"60 86 19 1 ",
"  c black",
". c #010000",
"X c #3C120E",
"o c #3D120E",
"O c #3C130E",
"+ c #3D130E",
"@ c #3D120F",
"# c #3D130F",
"$ c #FFC80E",
"% c #FEC90E",
"& c #FFC90E",
"* c #FFC90F",
"= c #E607F8",
"- c #E607F9",
"; c #66A4E0",
": c #67A4E0",
"> c #67A5E0",
", c #67A4E1",
"< c None",
/* pixels */
"<<<<<<<<<<<<<<<<<<<<oooooooooooooooooooooooo<<<<<<<<<<<<<<<<",
"<<<<<<<<<<<<<<<<<<<<ooooo#oooooooooooooooooo<<<<<<<<<<<<<<<<",
"<<<<<<<<<<<<<<<<ooo#oooooooooooooXoooooXoooooooo<<<<<<<<<<<<",
"<<<<<<<<<<<<<<<<oooooooooooooooooooooooooooooo#o<<<<<<<<<<<<",
"<<<<<<<<<<<<<<oooooooooooooooooooooooooooooooooooo<<<<<<<<<<",
"<<<<<<<<<<<<<<oooooooooooooo#ooooooooooooooooooooo<<<<<<<<<<",
"<<<<<<<<<<<<oooooooooooooooooooooooooooooooooooooooo<<<<<<<<",
"<<<<<<<<<<<<oooo#oooooo@ooooooooooo@oooooooooooooooo<<<<<<<<",
"<<<<<<<<<<oooooooooooooooooooooooooooooooooooooooooooo<<<<<<",
"<<<<<<<<<<oooooooooooooooooXoooooooooooooooooo#ooooooo<<<<<<",
"<<<<<<ooooooooooooXooooooooooooooooooo@ooooooooooooooooo<<<<",
"<<<<<<o#oooooooooooooooooooXoooooooooooooooooooooooooooo<<<<",
"<<<<<<oooooooooooooooooooooooooooooooooooooooooooooooooo<<<<",
"<<<<<<oooooooooooooooooooooooooooooooooooooooooooooooooo<<<<",
"<<<<<<oooXoooooooooooooooooooooooooooo@oooo#oooooooooooo<<<<",
"<<<<<<ooooo@oooooooooooooooooooooooooooooooooooooooooooo<<<<",
"<<<<oooooooooooo##ooooooooooooooooooXX&&oooooooooooo##oo<<<<",
"<<<<oooooooooooo##ooooooo#oooooooooooX&%o@oooooooooo##oo<<<<",
"<<<<oooooXooooooOOOooooooooooooooooo&&&&oooo&&oooooooo<<<<<<",
"<<<<ooooooooXoooOOOooooooooooooooooo&&&&oooo&&oooooXoo<<<<<<",
"<<<<ooooooooooooooooooooo#oooooooo&&&%&&&&oo&&&&oooo<<<<<<<<",
"<<<<oooooooooooooooooooooooo#ooo@o&&&&&&$&oo&&&&oooX<<<<<<<<",
"<<<<oooooooooooooooooooooooooooooo&&&&&&&&&&&&&&&&oo<<<<<<<<",
"<<<<oooooooooooooooooooooooooooooo&&&&&&&&&&&&&&&&oo<<<<<<<<",
"<<<<ooooooooo#oooooooooooooooooooo&&&&&&&&&&&&&&&&oo<<<<<<<<",
"<<<<ooooooooo#oooooooooooooooooooo&&&&&&&&&&&&&&&&oo<<<<<<<<",
"<<<<oooooooooooooooooooooooooooooo&&&&&&&&&&&&&&&&oo<<<<<<<<",
"<<<<oooooooooooooooooooooooooooooo&&&&&&&&&&&&&&&&oo<<<<<<<<",
"<<<<oooooooooooooooooooooo&&&&oooo&&&&&&      &&&&oo<<<<<<<<",
"<<<<oooooooooooooooooooooo&&&&oooo&&&&&&      &&&&oo<<<<<<<<",
"<<<<oooooooooooooooooooooo&&&&&&oo&*&&&&&&$&&&&&&&&&oo<<<<<<",
"<<<<oooooooooooooooooooooo&&&&&&oo&&&&&&&&$&&&&&&&&&oo<<<<<<",
"<<<<ooooooooooooooXooooooooo&&&&oo&&&&&&&&&&&&&&&&&$oo<<<<<<",
"<<<<oooooooooooooooooooooooo&&&&oo&&&&&&&&&&&&&&&&$$oo<<<<<<",
"<<<<ooo#oooooooooooooooooooooo&&&&&&&&&&&&&&&&&&&&&&oo<<<<<<",
"<<<<ooooooooooooooXooooooooooo&&&&&*&&&&&&&&&&&&&&&&oo<<<<<<",
"<<<<<<oooooooooooooooooooooooooo&&$&&&&&&&&&&&      oo<<<<<<",
"<<<<<<ooooooo#oooooooXoooooooooo&&&&&&&&&&&&&&      oo<<<<<<",
"<<<<<<<<<<oooooooooooo#oo#oooooo&&&&&&&&&&&&&&&&&&oo<<<<<<<<",
"<<<<<<<<<<ooooooooooooooXooooooo&&&&&&&&&&&&&&&&&&oo<<<<<<<<",
"<<<<<<<<<<<<<<oooooooooooooooo&&&&&&**&&&&&&&&oooo<<<<<<<<<<",
"<<<<<<<<<<<<<<oooooooooooooooo&&&&&***&&&&&&&&oooo<<<<<<<<<<",
"<<<<<<<<<<<<<<<<<<<<<<oooooo&&&&*&ooooooo@Xooo<<<<<<<<<<<<<<",
"<<<<<<<<<<<<<<<<<<<<<<oooooo&&&&&&ooooooooXooo<<<<<<<<<<<<<<",
"<<<<<<<<<<<<<<<<<<<<<<oooooo&&&&&&&&oo<<<<<<<<<<<<<<<<<<<<<<",
"<<<<<<<<<<<<<<<<<<<<<<oooooo&&&&&&&&oo<<<<<<<<<<<<<<<<<<<<<<",
"<<<<<<<<<<<<<<<<<<<<<<<<<<oo&&&&&&&&oo<<<<<<<<<<<<<<<<<<<<<<",
"<<<<<<<<<<<<<<<<<<<<<<<<<<oo&&&&*&&*oo<<<<<<<<<<<<<<<<<<<<<<",
"<<<<<<<<<<<<<<<<<<<<<<<<<<ooooXooooooo<<<<<<<<<<<<<<<<<<<<<<",
"<<<<<<<<<<<<<<<<<<<<<<<<<<oooooooooooo<<<<<<<<<<<<<<<<<<<<<<",
"<<<<<<<<<<<<<<<<<<<<<<<<oooo::::oooooXoo<<<<<<<<<<<<<<<<<<<<",
"<<<<<<<<<<<<<<<<<<<<<<<<oooo::::ooooXX@o<<<<<<<<<<<<<<<<<<<<",
"<<<<<<<<<<<<<<<<<<<<<<oo::::::::::::oooooo<<<<<<<<<<<<<<<<<<",
"<<<<<<<<<<<<<<<<<<<<<<oo::::::::::::oooooo<<<<<<<<<<<<<<<<<<",
"<<<<<<<<<<<<<<<<<<<<oo::oo::::::::::::::::o#<<<<<<<<<<<<<<<<",
"<<<<<<<<<<<<<<<<<<<<oo:>oo:::::::::::::::>oo<<<<<<<<<<<<<<<<",
"<<<<<<<<<<<<<<<<<<<<oo==oo::;;::--========oo<<<<<<<<<<<<<<<<",
"<<<<<<<<<<<<<<<<<<<<oo==oo::;;::==========oo<<<<<<<<<<<<<<<<",
"<<<<<<<<<<<<<<<<<<<<oo-=oo::::::oo==========oo<<<<<<<<<<<<<<",
"<<<<<<<<<<<<<<<<<<<<oo-=oo:::::>oo=-========oo<<<<<<<<<<<<<<",
"<<<<<<<<<<<<<<<<<<<<oo::oo::>:::::oo>:::::::oo<<<<<<<<<<<<<<",
"<<<<<<<<<<<<<<<<<<<<oo::oo::::::::oo>:::::::@o<<<<<<<<<<<<<<",
"<<<<<<<<<<<<<<<<<<<<oo::::oo::::oooooo:::::>o#<<<<<<<<<<<<<<",
"<<<<<<<<<<<<<<<<<<<<oo::::oo::::oooooo:::::>##<<<<<<<<<<<<<<",
"<<<<<<<<<<<<<<<<<<<<oo-===oo>:oo&&&&&&oo-=--oo<<<<<<<<<<<<<<",
"<<<<<<<<<<<<<<<<<<<<oo====oo>:oo&&&&&&oo----oo<<<<<<<<<<<<<<",
"<<<<<<<<<<<<<<<<<<<<oo--====oooo&&&*&&@@====oo<<<<<<<<<<<<<<",
"<<<<<<<<<<<<<<<<<<<<oo=-====oooo&&&&&&@@====oo<<<<<<<<<<<<<<",
"<<<<<<<<<<<<<<<<<<<<oooooooooooo$$&&&&oooooooo<<<<<<<<<<<<<<",
"<<<<<<<<<<<<<<<<<<<<oooooooooooo$$&&&&oooooooo<<<<<<<<<<<<<<",
"<<<<<<<<<<<<<<<<<<<<oo::::;;::::oooooo::::::oo<<<<<<<<<<<<<<",
"<<<<<<<<<<<<<<<<<<<<oo::::::::::oooooo::::::oo<<<<<<<<<<<<<<",
"<<<<<<<<<<<<<<<<<<<<oo::::::::::::::::::::oo<<<<<<<<<<<<<<<<",
"<<<<<<<<<<<<<<<<<<<<oo::::::::::::::::::::oo<<<<<<<<<<<<<<<<",
"<<<<<<<<<<<<<<<<<<<<<<oo::::::::::::::::oo<<<<<<<<<<<<<<<<<<",
"<<<<<<<<<<<<<<<<<<<<<<oo::::::::::::::::oo<<<<<<<<<<<<<<<<<<",
"<<<<<<<<<<<<<<<<<<<<<<<<oo::::::::::::oo<<<<<<<<<<<<<<<<<<<<",
"<<<<<<<<<<<<<<<<<<<<<<<<oo::::::::::::oo<<<<<<<<<<<<<<<<<<<<",
"<<<<<<<<<<<<<<<<<<<<<<<<<<oooooooooooo<<<<<<<<<<<<<<<<<<<<<<",
"<<<<<<<<<<<<<<<<<<<<<<<<<<oooooooooooo<<<<<<<<<<<<<<<<<<<<<<",
"<<<<<<<<<<<<<<<<<<<<<<<<<<oooooooooo<<<<<<<<<<<<<<<<<<<<<<<<",
"<<<<<<<<<<<<<<<<<<<<<<<<<<oooooooooo<<<<<<<<<<<<<<<<<<<<<<<<",
"<<<<<<<<<<<<<<<<<<<<<<<<<<oooooooooooo<<<<<<<<<<<<<<<<<<<<<<",
"<<<<<<<<<<<<<<<<<<<<<<<<<<oooooooooooo<<<<<<<<<<<<<<<<<<<<<<",
"<<<<<<<<<<<<<<<<<<<<<<<<<<oooooooooooooo<<<<<<<<<<<<<<<<<<<<",
"<<<<<<<<<<<<<<<<<<<<<<<<<<ooo@oooooooooo<<<<<<<<<<<<<<<<<<<<"
};
