/* XPM */
static char *frisk1740584474[] = {
/* columns rows colors chars-per-pixel */
"60 86 23 1 ",
"  c black",
". c #010000",
"X c #000100",
"o c #3C120E",
"O c #3D120E",
"+ c #3C130E",
"@ c #3D130E",
"# c #3D120F",
"$ c #FFC80E",
"% c #FEC90E",
"& c #FFC90E",
"* c #FFC80F",
"= c #FFC90F",
"- c #E606F8",
"; c #E607F8",
": c #E707F8",
"> c #E607F9",
", c #66A4E0",
"< c #67A4E0",
"1 c #67A5E0",
"2 c #66A4E1",
"3 c #67A4E1",
"4 c None",
/* pixels */
"4444444444444444OOOOOOOOOOOOOOOOOO@OOOOOOO##4444444444444444",
"4444444444444444OOOOOOOOOOOOOOOOOOOOO@OOOO##4444444444444444",
"444444444444O###OOOOOOOOOOOOOOOOOOOOOOOOOOOO###O444444444444",
"444444444444O###OOOOOOOOOOOOOOOOOOOOoOOOOOOO##OO444444444444",
"4444444444OOOoOOOOOOOOOOOOOOOOOOOOOOOOOOOOOOOOO###4444444444",
"4444444444OOooOOOOOOOOOOOOOOOOOOOOOOOOOOOOOOOOOO##4444444444",
"4444444444OOOOOOOOOOOOOOOOOOOOOOOOOOOO#OOOOOOOOO#OOO44444444",
"4444444444OOOOOOOOOOOOOOOOOOOOOOOOOOOOOOOOOOOOOOOOOO44444444",
"44444444##OOOOOOOOOOOOOOOO##OOOOOoOOOOOOOOOOOOOOOOOOOOOO4444",
"44444444##OOOOOOOOOOOOOOOO##OOOOOOOOOOOOOOOOOOOOOOOOOOOO4444",
"44444444#OO#O@OOOOOOOOOOOOOOOOOOOO@#OOOOO#OOOOOOooOOOOOO4444",
"44444444OOOOOOOOOOOOOOOOOOOO@OOOOOOOOOOOOOOOOOOOooOOOOOO4444",
"4444OOOOOO@@OOOOOOOOOOOOOOOOO@OOOOOOOOOOOOO@OOOOOOOoOOOO##44",
"4444OOOOOO@@OOOOOOOOOoOOOOOOOOOOOOOOOOOOOOOOOO@OOOOOOOOO##44",
"44##OOOOOOOOO@OO&&OOOOOOOOOOOO&&##OOOOOOOOOOOOOOOOOOOOOO#O44",
"44##OOOOOOOOOOOO&&OOOOOOOOOOOO&&##OOOOOOO#OOOOOOOOOOOOOOOO44",
"44OOOOOOOOO#OO&&&&&&OOOOOOOO&&&&OOOOOOOo&&OOOOOOOOOOOOOOOO44",
"44O#OOOOOOOOOO&&&&&&OOOO##OO&&&&OOOOOOOo&&OOOOOOOOOOOOOOOO44",
"44##OOOOOOOO&&&&&&&&&&OO##%%&&&&&&OOOO&&&&OOOOOOOOOOOOOOOO44",
"44##OOOO#OOO&&&&&&&&&&OO##%%&&&&&&OOOO&&&&OOOOOOOOOOOOOOOO44",
"44OOOOO@OOOO&&&&&&&&&&&&%%%%%%%%&&&&&&&&&&&&OOOOOO#OOO@@#OO#",
"44OOOOOOOOO#&&&&&&&&&&&&%%%%%%%%&&&&&&&&&&&&OOOOOOOOOOoOOOO#",
"##OOOOOOOOOO&&&&&&&&&&&&%%%%%%%%&&&&&&&&&&&&&&OOOO&$OOOOOO##",
"##OOOOOOOOOO&&&&&&&&&&&&%%%%%*%%&&&&&&&&&&&&&&OOOO&&OOOOOO##",
"###OOOOOOO@@&&&&&%%%%%%%%%%%%%%%&&%%%%%%%%%%%%OO&&&&OOOOOOOO",
"##OOOOOOOO@@&&&&&%%%%%%%%%%%%%%%&&%%%%%%%%%%%%##&&&&OOOOOOOO",
"OOOOOOOOOOOO&&&&......%%%%%%%%%%&&......%%%%%%%%&&OOOOOOOOOO",
"OOOOOOOOOOOO&&&&......%%%%%%%%%%&&......%%%%%%%%&&OOOOOOOOOO",
"OOOOOOOOOO&&&&&&%%%%%%%%%%%%%%%%%%%%%%%%%%%%&&&&O@OOOOOOOOOO",
"OOOOOOOOOO&&&&&&%%%%%%%%%%%%%%%%*%%%%%%%%%%%&&&&OOOOOOOO#OOO",
"OOOOOOOOOO&&&&&&%%%%%%%%%%%%%%%%%%%%%%%%%%&&&&&&OO#OOO##OOOO",
"OOOOOOOOOO&&&&&&%%%%%%%%%%%%%%%%%%%%%%%%%%&&&&&&OOOOOO##OO@#",
"O@OOOOOOOO&&%%%&%%%%%%%%......%%%%%%%%%%&&&&&&OOOOOOOO@@OOOO",
"O@OOOOOOOO&&%%%&*%%%%%%%......%%%%%*%%%%&&&&&&OOOOOOOO@@OOOO",
"OOOOOOOOOOOO%%&&%%%%%%%%%%%%%%%%%%%%%%%%&&OOOOOOOOOOOOoOOOOO",
"OOOOOOOOOOO#%%&&%%%%%%%%%%%%%%%%%%%*%%%%&&OOOOOOOOOO@OOOOOOO",
"OOOOOOOOOOOOOO&&%%%%%%*%%%%%&%%%&&&&%%%%OOOOOOOOOOOOOOOOOO##",
"OOOOOOOOOOOOOO&&%%%%%%%%%%%%&&%%&&&&%%%%@OOOOOOOOOOOOOOOO###",
"44OOOOOOOOOO@@OO##%%%%%%%%%%&&&&&&&&####OOOOOOOOOOOOOOoOOO44",
"44OOOOOOOOOO@OOO##%%%%%%%%%%&&&&&&&&O@##OOOOOOOOOOOOO#OOOO44",
"44###OOO###OOOOO##&&&&&&&&&&&&&&&&&&OOOOOOOOOOOOOOOO###@OO44",
"44##OOOO##OOOOOOO#&&&&&&&&&&&&&&&&&&OOOOOOOOOOOOOOO#@##@OO44",
"4444444444##OOOOOO##OOO#OO&&&&&$&&OOOOOOOOOOOO##OO##44444444",
"4444444444##OOOOOO##OOOOOO&&&&&&&&OOOOO#OOOOO###OO##44444444",
"44444444444444##OO##OOOOOO&&&&&&&&@O@@##OO###O44444444444444",
"44444444444444##O###OOOOOO&&&&&&&&OO@@##OO##OO44444444444444",
"444444444444444444444444OO&&&&&&&&OO444444444444444444444444",
"444444444444444444444444OO&&&&&&&&OO444444444444444444444444",
"4444444444444444OOOO#OOOOOOOOOOOOOOOoOOOOO####44444444444444",
"4444444444444444OOOOOOOOOOOOO#OOOOOOOOO#O#####44444444444444",
"44444444444444##<<<<OO<<OOOOOOOOOOOO<<<<OO<<1<OO444444444444",
"44444444444444##<<<<OO<<OOOOOOOOOOOO<<<<OO<<<<OO444444444444",
"444444444444##11<<#O<<<<1<OOOOooOO<<<<<<<<OO<<<<##4444444444",
"444444444444##<<<<#O<<1<<<OOOOoOOO<<<<<<<<OO<<<<##4444444444",
"4444444444OO<<<<##<<<<<<<<<<1<<<<<<<<<<<<<<<#O<11<#O44444444",
"4444444444O#<<<<##<<<<<<<<<<<<<<<<<<<<<<<<<<OO<111#O44444444",
"44444444##<<<<OO;;;;11<<<<11<<11<<1<<<<<<<-;;;OO<<<<OOOO4444",
"44444444##<<<<OO;;;;<<11<<<1<<<1<<11<<<<11-;;;OO<<<<OOOO4444",
"44444444#O1<<<OO-;;--;;;--;;--:;-;;;;;--;;;-;;OO<1<<OOOO4444",
"44444444OO<<<<OO;;;--;-;;-;;;-;;--;;;;;--;;-;;@#<111O#OO4444",
"44444444OO<<<<OO111<;:--;-;;-;;;;:--;;;;;;1<<<OO<<<<OOOO4444",
"44444444O#<<<<OO111<;;;-;;;;--;;;;;-;;;;--1<<1OO<<<<OOOO4444",
"44444444OO<<<<OO;;;-11<<<<1,<<<<11<<11,,<<;;--OO<<<<OO##4444",
"44444444OO<<<<Oo;;;-<1<<<<11<<<<<1<<<1,,11;;;;##<<<<O###4444",
"44444444OOOOOOOo-;;;;;;;;-;;;;;-;;;;;;;;-;;;;;O#O@#OOOOO4444",
"44444444OOOOOOOO-;;;;;;;;;;;;;;;;;;;;;;;;;;;--OOOOOOOOOO4444",
"44444444Oo%%&&Oo<<11;;;-;;;:;;;;;;;-;;;;;-11<<OO&&&&OOOO4444",
"44444444O#%%&&OO<<<<;;;-;-;;;;;;;;;-;;;;;-<<<<OO&&&&OOOO4444",
"4444444444##OOOOOO<<<<<<<<<<1<<<<<<<<<<<11oOOOOOOO##44444444",
"4444444444##OOOOOO<<<<<<<<<<11<<<1<<<<<<<<OOOOOOO###44444444",
"44444444444444OO<<OOOOOOOOOOOOOOOOOO#Oo#oO<<<<OO444444444444",
"44444444444444O#<<OOOOOOOOOOOOOOOOOOOOoo#O<<<<OO444444444444",
"44444444444444##<<<<<<<<<<<<<<<<,,<<<<<<<<<<<1##444444444444",
"44444444444444##<<<<<<<<<<<<<<<<,,<<<<<<<<<<<1##444444444444",
"44444444444444##<<<1<<<<<<<<OOOO<<<<<<<<<<<<#O44444444444444",
"44444444444444##<<<<<<<<<<<<OOOO<<<<<<<<<<<<OO44444444444444",
"4444444444444444OO<<<<<<<1OO44##OO<<<<<<<<<<##44444444444444",
"4444444444444444OO<<<<<<<1##44##Oo<<<<<<<<<1##44444444444444",
"444444444444444444OOOOOOOO##44#OOOOOOOOOOO#O4444444444444444",
"444444444444444444OOOOOOOO##44OOOOOOOOOOOOOO4444444444444444",
"4444444444444444###OOOOOOOOO44##OOOOOOOOOOOO4444444444444444",
"4444444444444444##OOOOOOOOOO44#@OOOOOOOOOOO@4444444444444444",
"44444444444444OOOOOOOOOOOO#O44###O##OOOOOOOO##44444444444444",
"44444444444444O#OOOOOOOOOOOO44OO####OOOOOOOO##44444444444444",
"44444444444444##OOOOOO@@444444444444OO##OOOOOO44444444444444",
"44444444444444##OOOOoo@@444444444444O###OOOOOO44444444444444"
};
