/* XPM */
static char *first_left_11740584474[] = {
/* columns rows colors chars-per-pixel */
"60 86 20 1 ",
"  c black",
". c #010000",
"X c #3C120E",
"o c #3D120E",
"O c #3D130E",
"+ c #3D120F",
"@ c #FFC80E",
"# c #FEC90E",
"$ c #FFC90E",
"% c #FFC90F",
"& c #E606F8",
"* c #E706F8",
"= c #E607F8",
"- c #E707F8",
"; c #E607F9",
": c #66A4E0",
"> c #67A4E0",
", c #67A5E0",
"< c #67A4E1",
"1 c None",
/* pixels */
"1111111111111111++ooooooooOOoooooooooooo11111111111111111111",
"1111111111111111ooooooooooOOoooooooooooo11111111111111111111",
"111111111111oooooooooooooooooooooooooooooooo1111111111111111",
"111111111111oooooooooooooooooooooooooooooooo1111111111111111",
"1111111111oooooooooooooooooooooooooooooooooooo11111111111111",
"1111111111oooooooooooooooooooooooooooooooooooo11111111111111",
"11111111oooooooooooooooooOoooooo+o+oooooooooooOo111111111111",
"11111111oooooooooooooooooooooooooo++oooooooooooo111111111111",
"111111oooooooooooooooooooooooooooooooooooooooooooO1111111111",
"111111oooooooooooooooooooooooooooooooooooooooooooo1111111111",
"1111ooooooooooooooooooOooooooooooooooOoooooooooooooooo111111",
"1111oooOoooooOooooooooooooooooooooooooooooooooo+oooooo111111",
"1111oooooooooooooooOoooooooooooooooooooooooooooooooooo111111",
"1111ooooooooooooOooooooooooooooooooooooooooo+Xoooooooo111111",
"1111ooooooooooooooooooooooooooooooooooooooooooo+oooooo111111",
"1111ooooooooooooooooooooooooooooooooooooooXoooo+oooooo111111",
"1111ooooooooooOOXXoo@$OOooooooooooo+ooooooooooooooooO+oo1111",
"1111ooooooooooOOXXoo@$XOoooooooooooooooXoooooooooooooooo1111",
"111111oooooooo%$Xooo$$@@ooXXooooooooooOOooooooooooooOooo1111",
"111111oooooooo$$Xooo$$$@ooXXooooooo+ooOOoooOoooooooooooo1111",
"11111111oooo$$$$oo$$$$@$$$OXoooooooooo+ooooooooooooooooo1111",
"11111111oooo$$$$oO$$%$$$$$OOoooooooooooooooOoooooooooooo1111",
"11111111oo$$$$$$@%$$$$$$@$ooooooooooXooooooooooooooooooo1111",
"11111111oO$$$$$$$%$$$$$$@@oooooooooooooooooo+ooooo+ooooo1111",
"11111111oo%%$$$$$$$$$$$$$$OOooooooooXooooooooooooooooooo1111",
"11111111oo%%$$$$@$$$$$$$$$oOoXoooooooooooooo+ooooooooooo1111",
"11111111oO%%$$%%$$$$$$$$%@ooXXOOooooooooooooooo+oooooooo1111",
"11111111oO$%$%%%$$$$$$$$$@ooXXXOooooooooooooooOooooooooo1111",
"11111111oo$%$$      %%$$$$XXoo$$%%oooooooooooooooooooooo1111",
"11111111oo@$$$      %%$$$$XXoo$$%%Oooooooooo+ooooooooooo1111",
"111111oo%$$$$$$$%%%$%$$$$$OX@%%$%%oooooooooooooooooooooo1111",
"111111oo%$$$$$$$%%$$%$$$$$OO@@%%$%o+ooooooooooo+oooooooo1111",
"111111oo$$$$$$$$$$$$$$$$@@OO$$@@OOoooooooooooooooooooooo1111",
"111111oo$$$$$$$$$%$$%$$$$@XO$$$@OOooXooooooooooooooooooo1111",
"111111oo$$$$$$$$$$$$$$$$$$$$$$ooOXXXoooooooooooooooooooo1111",
"111111oo$$$$$$$%$$$@$$$$$$$$$$ooOXXXoooooooooooooooooooo1111",
"111111oo      %%$$$$$$$$$$$$oooooooooooooooooooooooooo111111",
"111111oo      %%$$$$$$$$$$$$oXoooooooooooooooooooooooo111111",
"11111111oX%%$$%$$$$$$$$$$$$$XXXOoooooooooooooooooo1111111111",
"11111111oo%%$$$%$$$$$$$$$$$$XXXOoooooooooooooooooo1111111111",
"1111111111oooo%%$$@$$$@$$$$$$$OOoooooooooooooo11111111111111",
"1111111111oooo%%$$@@$$$$$@$$$$OOoooooooooooooo11111111111111",
"11111111111111ooOXXXXXOOOO$$$$$$oooooo1111111111111111111111",
"11111111111111ooOOXXXXXOOX$$$$$$oooooo1111111111111111111111",
"1111111111111111111111oo$$$$$$$$oooooo1111111111111111111111",
"1111111111111111111111OO$$$$$$$$oooooo1111111111111111111111",
"1111111111111111111111oo$$$$$$%%oo11111111111111111111111111",
"1111111111111111111111oo$$$$$$%%oo11111111111111111111111111",
"1111111111111111111111oooooooooooo11111111111111111111111111",
"1111111111111111111111oooooooooooo11111111111111111111111111",
"11111111111111111111oooOoooo>>>>oooo111111111111111111111111",
"11111111111111111111ooOOoooo>>>>oooo111111111111111111111111",
"111111111111111111oooooo::>>>>>>,>>>oo1111111111111111111111",
"111111111111111111ooooOo,,>>>>>><<>>oo1111111111111111111111",
"1111111111111111oo>>,,>,,<>>>>>>>>oo<<oo11111111111111111111",
"1111111111111111oo>>><>>,<>>>>>>>>oo,,oo11111111111111111111",
"1111111111111111oo==========>>>>>>oo--Xo11111111111111111111",
"1111111111111111oo==========>>>>>>oo--oo11111111111111111111",
"11111111111111oo==========Oo>>>>>>oo--oo11111111111111111111",
"11111111111111oo==========OO>>>>>>oo=-oo11111111111111111111",
"11111111111111oo>>>>>>>>oo>>>>>>><oo>>XX11111111111111111111",
"11111111111111oo>>>>>>>>oo>>>>>>>,oo>>oX11111111111111111111",
"11111111111111oo>>>>>>oooooo>>>>oo:,>>oo11111111111111111111",
"11111111111111oX>>>>>>oooooo>>>>oo::>>oo11111111111111111111",
"11111111111111++;===oo%%$$$$OO>>oo;===oo11111111111111111111",
"11111111111111++;===oo$$$$$$OO>>XX;;==oo11111111111111111111",
"11111111111111oo====oo%%$$$$oXXX****==oo11111111111111111111",
"11111111111111oo====oo%%$$$$oXXX**;*==oo11111111111111111111",
"11111111111111oooooooo%%$$@@oooooooooooo11111111111111111111",
"11111111111111oooooooo%%$$$@oooooooooooo11111111111111111111",
"11111111111111oo>>>>:,ooOOoo>>>>>>>>:,oo11111111111111111111",
"11111111111111oo>>>>:,ooXOoo>>>>>>>><<oo11111111111111111111",
"1111111111111111oo>>>>>>>>>>>>>>>>>>>>oo11111111111111111111",
"1111111111111111oo>>>>>>>>>>>>>>>>>>>>oo11111111111111111111",
"111111111111111111oo>>>>>>>>>>>>>>>>oo1111111111111111111111",
"111111111111111111oo>>>>>>>>>>>>>>>>oo1111111111111111111111",
"11111111111111111111oo,>>>>>>>>><>oo111111111111111111111111",
"11111111111111111111oo<>>>>>>>>>,,oo111111111111111111111111",
"1111111111111111111111ooooooXXOOoo11111111111111111111111111",
"1111111111111111111111oooooXXXOOoo11111111111111111111111111",
"111111111111111111111111oooooooooo11111111111111111111111111",
"111111111111111111111111oooooooooo11111111111111111111111111",
"1111111111111111111111oooooooooooo11111111111111111111111111",
"1111111111111111111111oooooooooooo11111111111111111111111111",
"11111111111111111111oooooooooooooo11111111111111111111111111",
"11111111111111111111oooooooooooooo11111111111111111111111111"
};
