/* XPM */
static char *frisk_right_21740584475[] = {
/* columns rows colors chars-per-pixel */
"60 86 20 1 ",
"  c black",
". c #000001",
"X c #3C120E",
"o c #3D120E",
"O c #3D130E",
"+ c #3D120F",
"@ c #FFC80E",
"# c #FEC90E",
"$ c #FFC90E",
"% c #FFC90F",
"& c #E607F8",
"* c #E707F8",
"= c #E606F9",
"- c #E607F9",
"; c #E707F9",
": c #66A4E0",
"> c #67A4E0",
", c #67A5E0",
"< c #67A4E1",
"1 c None",
/* pixels */
"111111111111111111111111111111111111111111111111111111111111",
"111111111111111111111111111111111111111111111111111111111111",
"11111111111111111111oooooooooooooooooooooooo1111111111111111",
"11111111111111111111oooooooooooooooooooooooo1111111111111111",
"1111111111111111oooooooooooooooo++oooooooooOoXoo111111111111",
"1111111111111111oooooooooooooooo++oooooooooooooo111111111111",
"11111111111111++ooooOOoooOoooooo+XooooooooXXoooooo1111111111",
"11111111111111++ooooOOooooooooooooooooooooXXoooooo1111111111",
"111111111111+++Xoooooooo+ooXoooooooooooooooooooooooo11111111",
"111111111111++XXoooOoooo+ooooooooooooooooooooooooooo11111111",
"1111111111++ooXXooooooooXoooooXOoooooOooooooooOooooooo111111",
"1111111111++oooXoooooooooooooooooooooooooooooooooooooo111111",
"111111ooooooooooooooooooooooooooOOoooooooooooooooooooooo1111",
"111111ooooooooooooooooooooooooooOOoooooooooOoooooooooooo1111",
"111111oooooooooooooooooooooooooooooo++XoOOooooOOoooooooo1111",
"111111oooooooooooooooooooooooooooooo++ooOOooooOOoooooooo1111",
"111111oooooooooooooooooo+O++XoooooooXoXXoooooooooO+ooooo1111",
"111111ooooooooX+oooooooooo++oooooooooXXXoooooooooooooooo1111",
"1111ooooooOooooooooooooooooooooooooooo$$oooooooooooooooo1111",
"1111oooooooooooooooooooooooooooooooooo$$oooooooXoooooooo1111",
"1111ooooooooooooooXooooooooooooooXoo$$$$oooo$$XXoo+++X111111",
"1111oooooXoooooooooooooooooooooooooo$$$$oooo$$XXoo++oo111111",
"1111ooooo+ooooooooooooooXoooooooXX$$$$$$$$++$$$$ooo+11111111",
"1111ooooooooooooooooooooooooooooXX$$$$$$$$X+$$$$oooo11111111",
"1111o+ooooooooooooooooooooooooooXo$$$$$$$$$$$$$$$$XX11111111",
"1111oooooooooooooooooooooooooooooo$$$$$$$$$$$$$$$$X+11111111",
"1111oooo++oooooooooooooo+oooooXooo$$$$$$$$%%$$$$$$++11111111",
"1111oooo++ooooooooXoX+ooXooooooooo$$$$$$$$%%$$$$$$++11111111",
"1111oooo++oooooo+XXoooooXoXXXXooXX$$$$$$%%%$$$$$$$XX11111111",
"1111oooo++ooooooXXooooooooXXooXOXX$$$$$$%%%$$$$$$$XX11111111",
"1111oooo+XXoooooXooOooOooo$$$$XXXX$$$$$$      $$$$Xo11111111",
"1111oooo+XXooooooooooooooo$$$$XXoX$$$$$$      $$$$oo11111111",
"1111+++oooooooooooooooooXX$$$$$$oo$$$$$$$$$$$$$$$$$$oo111111",
"1111X++oooooooooooooooooXX$$$$$$oo$%$$$$$$$$$$$$$$$$oo111111",
"1111ooooooooooooooooooooXoXX@$$@oX$$$$$$$$$$$$$$$$$$oo111111",
"1111ooooooooooooooXoooooooXX$$$$o+$$$$$$$$$$$$$$$$$$oo111111",
"1111oooooooo+++ooooooooooooooo$$$$$$$$$$$$$$$$%%$$%%+X111111",
"1111oooooooo+o+Xoooooooooooooo$$$$$%$$$$$$$$$%%%$$%%XX111111",
"111111oooooooOoooooooooooooooooo$$$$$$$$$$$$$$      Xo111111",
"111111oooooooooooooooXooXooooooX$$$$$$$$$$$$$$      XX111111",
"1111111111ooooooooooooooooooooXX$$$$$$$$$$$$$$$$%%oo11111111",
"1111111111oooooooooooXooooooooXX$$$$$$$$$$$$$%$$%%oo11111111",
"11111111111111oooooooooooooooo%$$$$$$$%%$$$$%%oo+X1111111111",
"11111111111111oooooooooooooooo$$$$$$%%%%$$$$%%ooXX1111111111",
"1111111111111111111111oooooo$$$$$$XXXXooXX+++X11111111111111",
"1111111111111111111111oooooo$$$$$$XXooooXX++oo11111111111111",
"1111111111111111111111ooooXX$$$$$$$$oo1111111111111111111111",
"1111111111111111111111oooXXX$%$$$$$$oo1111111111111111111111",
"11111111111111111111111111++$$$$$$$$+o1111111111111111111111",
"11111111111111111111111111++$%$$$$$%+o1111111111111111111111",
"11111111111111111111111111+XooooXXoo++1111111111111111111111",
"11111111111111111111111111XXooooXXooX+1111111111111111111111",
"111111111111111111111111++oo>>>>Xooooooo11111111111111111111",
"111111111111111111111111++X+>>>>oXoooooo11111111111111111111",
"1111111111111111111111++>>>>>>>>>>>>ooXX++111111111111111111",
"1111111111111111111111++>>>>>>>>>>>>XXX+++111111111111111111",
"11111111111111111111oo>>XX>>>>>>>>::>>>>::++1111111111111111",
"11111111111111111111oo<<XX>>>>>>>>::>>>>::++1111111111111111",
"11111111111111111111oo**Xo>>>>>>****&*****XX1111111111111111",
"11111111111111111111oo**oo>>>>>>****&*****XX1111111111111111",
"11111111111111111111XX**oo>>>>>>++**&&&*****++11111111111111",
"11111111111111111111XX**oo>>>>>>++**&&&&****++11111111111111",
"11111111111111111111Xo>>oo>>>>>>>>XX>:::>>>>+X11111111111111",
"11111111111111111111oo>>Xo>>>>>>>>XX>:::>>>>oX11111111111111",
"11111111111111111111XX:>>>XX>>>>XXXooo>>>>>>oo11111111111111",
"11111111111111111111++::>>XX>>>>XXOooo>>>>>>oo11111111111111",
"11111111111111111111++****XX>>Xo$$$$$$XX****oo11111111111111",
"11111111111111111111++****XX>>oo$$$$$$XX****oo11111111111111",
"11111111111111111111oo******oooo$$$$$$oo*&**XX11111111111111",
"11111111111111111111oo******oooo$$$$$%oo&&**XX11111111111111",
"11111111111111111111oooo++oooooo$$$$$$ooX+XXXX11111111111111",
"11111111111111111111oooo++oooooo$$$$$$ooXXXXXX11111111111111",
"11111111111111111111oo>>::>>>>>>O++XXX>>>>>>oo11111111111111",
"11111111111111111111oo>>>:>>>>>>OO++oo>>>>><oo11111111111111",
"11111111111111111111oo>>>>>:>>>>>>>>>>>>>>oo1111111111111111",
"11111111111111111111oo><>>>>>>>>>:>>>>>>>>oo1111111111111111",
"1111111111111111111111oo>>>>>>>>>>>:>>>>oooo1111111111111111",
"1111111111111111111111oo>>>>>>:>>>>:>>>>oooo1111111111111111",
"11111111111111111111oooo+X>>>>>>>,>>>>oooooo1111111111111111",
"11111111111111111111oXoXXX>>>>>>>>>>>>oooooo1111111111111111",
"11111111111111111111oooooooooo+++++ooooooooooooooo1111111111",
"11111111111111111111oooooooooo++++Xooooooooooooo+o1111111111",
"11111111111111111111oooooooooo111111ooooooXooooo++1111111111",
"11111111111111111111oooooooooo111111oooooooooooo++1111111111",
"1111111111111111111111oooooooooo111111++oooooooo111111111111",
"1111111111111111111111oooooooooo111111++oooooooo111111111111"
};
