/* XPM */
static char *frisk_top_31740584475[] = {
/* columns rows colors chars-per-pixel */
"60 86 20 1 ",
"  c #3C120E",
". c #3D120E",
"X c #3C130E",
"o c #3D130E",
"O c #3D120F",
"+ c #3D130F",
"@ c #FFC80E",
"# c #FFC90E",
"$ c #FFC80F",
"% c #FFC90F",
"& c #E606F8",
"* c #E706F8",
"= c #E607F8",
"- c #E707F8",
"; c #E607F9",
": c #66A4E0",
"> c #67A4E0",
", c #67A5E0",
"< c #67A4E1",
"1 c None",
/* pixels */
"11111111111111..+XXX............. ..........1111111111111111",
"11111111111111....XX........................1111111111111111",
"1111111111........ .............................111111111111",
"1111111111......................................111111111111",
"11111111..........................................1111111111",
"11111111..........................................1111111111",
"11111111  ..... ......................  ++..........11111111",
"11111111  .......................... .  ++..........11111111",
"111111................................................111111",
"111111.............+..................................111111",
"111111........................ .......................111111",
"111111......... ......................................111111",
"1111..OO.... ...............++ ........... .............1111",
"1111..OO....................++......... ...+..+.........1111",
"11......O........................... ...................1111",
"11......................................................1111",
"11............................................+.........1111",
"11...............O.............+..............+.........1111",
"11..................................... ....  ..........1111",
"11.......................................... ...........1111",
"11.............................+...O......................11",
"11....... ..........................................+.....11",
"......................+................ .........+........11",
"..........................................................11",
"OO.... .........++...................+....................11",
"OO..............++........................................11",
"..........+.....  ........................................11",
"................  ..............O.........................11",
"............ ............................. X. OO..........11",
".............+..........................+.  ..OO..........11",
"...................+...........................O......... 11",
"............... ...................O.................O..  11",
"...............................................O....+.....11",
".+......O... .............................................11",
"..................................+.........O ............11",
"... ............................. ........................11",
"..........................................................11",
"...... .......O...................+.......................11",
"11......................................................1111",
"11...................................................O..1111",
"11..... ................................+...O...........1111",
"11....  ................................................1111",
"11111111...............O...X..... ..................11111111",
"11111111..............+....X........................11111111",
"111111111111............oXXX.. ...............11111111111111",
"111111111111............ooXX...+..............11111111111111",
"1111111111111111111111..####$$$$..11111111111111111111111111",
"1111111111111111111111..####@@$$..11111111111111111111111111",
"11111111111111..............O...............1111111111111111",
"11111111111111......... ....OO..............1111111111111111",
"111111111111..,, .>>>>>>>>>>>>>>>>>>>>..>>>>..11111111111111",
"111111111111..>>  >>>>>>>>>>>>>>>>>>>>..>>>>..11111111111111",
"1111111111..>>..>>::>>>>>>>>>>>>>>>>>>>>..>>>>..111111111111",
"1111111111..>>..>>::>>,>>>>>>>>>>>>>>>>>..>>>>..111111111111",
"11111111..>>..>>>>>>>>>>>>>>>>>>>>>>>>>>>>..>>>>..1111111111",
"11111111..>>..>>>>>>::>>>>>>>>>>>>>>>>>>>>..>>>>..1111111111",
"111111..,>..;&==>>,,>>>>>,>,>>,,>>>>>>>>====XX>>>,..11111111",
"111111..>>..;&==,,,>>>,,>>>,>>>,>>,,>>>>====XX>>>,..11111111",
"111111..>>..=======&&===;&--&&==----==;;===&X.>>>>..11111111",
"111111..>>..========&====&-=====----==&&===&X.>>>>..11111111",
"111111..,,..,>>>=======&==========&&=&==>>>>XXoo....11111111",
"111111..>,..,,>>&&=&===&====&&===&&;==-=,,>>XXX+....11111111",
"111111......==&&>>>>,,>>>>,,>>>>,,>>>>,,==oo@@##$$.O11111111",
"111111... +.===&>>>>>>>>>>>>>>>>>>>>>>>>==oo@@$$$$OO11111111",
"111111..$$+.==&&&=========================..######..11111111",
"111111..$$oX==;*&&========================..######..11111111",
"11111111....,>>>=======&=&========&&====>,..##$$##+.11111111",
"11111111....,>>>=======&===========;====>,..#$$$#$++11111111",
"1111111111................XX..++..................1111111111",
"1111111111................XX..++..................1111111111",
"1111111111..>>>>,>>>>>>>>>>>>>,,>>>>>>,>>>>,..11111111111111",
"1111111111..>>>>,>>>>>>>>>>>>>>>>>>>>>,,>>>>..11111111111111",
"1111111111..>>>>>>>>>>>>>>>>>>>>........>>>>..11111111111111",
"1111111111..>>>>>>>>>>>>>>>>>>>>........>>>>..11111111111111",
"1111111111..>,>>>>>>>>>>..........+.........1111111111111111",
"1111111111..>>>>>>>>>>>>.X..................1111111111111111",
"111111111111..>>>>>>>>..1111................1111111111111111",
"111111111111..>,>>>>,,..1111..... ..........1111111111111111",
"111111111111....+.....++1111................1111111111111111",
"111111111111....+.....+.1111................1111111111111111",
"111111111111.+..........111111............111111111111111111",
"111111111111............111111............111111111111111111",
"11111111111111O.......+.11111111......1111111111111111111111",
"11111111111111..........11111111.....+1111111111111111111111",
"111111111111111111....11111111111111111111111111111111111111",
"111111111111111111....11111111111111111111111111111111111111"
};
