/* XPM */
static char *frisk_top_11740584475[] = {
/* columns rows colors chars-per-pixel */
"60 86 18 1 ",
"  c #3C120E",
". c #3D120E",
"X c #3C130E",
"o c #3D130E",
"O c #3D120F",
"+ c #3D130F",
"@ c #FEC90E",
"# c #FFC90E",
"$ c #FFC90F",
"% c #E606F8",
"& c #E607F8",
"* c #E707F8",
"= c #E607F9",
"- c #66A4E0",
"; c #67A4E0",
": c #67A5E0",
"> c #67A4E1",
", c None",
/* pixels */
",,,,,,,,,,,,,,,,............................,,,,,,,,,,,,,,,,",
",,,,,,,,,,,,,,,,....OO......................,,,,,,,,,,,,,,,,",
",,,,,,,,,,,,.OOO.........................O..OOOO,,,,,,,,,,,,",
",,,,,,,,,,,,.OOO............................OO..,,,,,,,,,,,,",
",,,,,,,,,,...................................X..OO,,,,,,,,,,",
",,,,,,,,,,.........................O............OO,,,,,,,,,,",
",,,,,,,,,,................O...........O.........O...,,,,,,,,",
",,,,,,,,,,..........................................,,,,,,,,",
",,,,,,..OOo...OO....................................OO,,,,,,",
",,,,,,..OO....OO....................................oO,,,,,,",
",,,,,,..O.....................XX....................OO,,,,,,",
",,,,,,........................XX.............X........,,,,,,",
",,,,................  .............O....................OO,,",
",,,,................ X...........................o......OO,,",
",,OO.........o.....   .......O............X.............O.,,",
",,OO......o........   ..........................X.........,,",
",,..................oo..................................O.,,",
",,.O................oo....O...............................,,",
",,OO.............O..O.....................OO..........X...,,",
",,OO......................................OO..............,,",
",,..XXX.OO...............................O........OO........",
",,..XX..OO........................................OO.......O",
"....  .....O.....O........................................OO",
"..    X...............oO......X...........................OO",
".........OOO............OO.X................................",
".........OoO.....O......OOXX................................",
"..........OO................................................",
"......................................O...........O.........",
"................o..........X.........OOO........XX  ........",
"....................................OO.O........XX  ....O...",
"..................................................  .....X..",
"........................................................XX..",
"X.....oo.............................o....................o.",
"......o.............................................o...O...",
"........O.....................................OO............",
"..................X...........................OO........O...",
"X.......................X.........oo.....O................OO",
"..OX...o..........................oo.....................OOO",
",,......O.........................................O.......,,",
",,..............................O...........O.............,,",
",,OOO...OOO...........................................OO..,,",
",,OO....OOO..........................O.............O.OOOO.,,",
",,,,,,,,,,OO.............O..........OO........OO.oOO,,,,,,,,",
",,,,,,,,,,OO........................Oo.O.....OOO..OO,,,,,,,,",
",,,,,,,,,,,,,,OO..OO...O....XX........OO..OOO.,,,,,,,,,,,,,,",
",,,,,,,,,,,,,,OO.OOO........XX.X......OO..OO..,,,,,,,,,,,,,,",
",,,,,,,,,,,,,,,,,,,,,,,,..##@@####..,,,,,,,,,,,,,,,,,,,,,,,,",
",,,,,,,,,,,,,,,,,,,,,,,,..########..,,,,,,,,,,,,,,,,,,,,,,,,",
",,,,,,,,,,,,,,,,.O..........O...............OO,,,,,,,,,,,,,,",
",,,,,,,,,,,,,,,,...........XOO.............OOO,,,,,,,,,,,,,,",
",,,,,,,,,,,,,,OO;;;;..;;;;;;;;::;;;;;;;;..;;:;..,,,,,,,,,,,,",
",,,,,,,,,,,,,,OO;;;;..;;;;;;;;::;;:;;;;;..;;;;..,,,,,,,,,,,,",
",,,,,,,,,,,,OO:;;;..::;;;;;;;;;;;;;;;;;;;;O.;;;;OO,,,,,,,,,,",
",,,,,,,,,,,,OO;;;;..::;;;;;;;;;;;;;;;;;;;;..;;;;OO,,,,,,,,,,",
",,,,,,,,,,..;;;;OO;;;;:;;;;;;;;;;;;;;;;;;;;;..;::;O.,,,,,,,,",
",,,,,,,,,,.O;;;;OO;:;;;;;;;;;;;;;;;;;;;;;;;;..;::;..,,,,,,,,",
",,,,,,..OO;;;:..&&&&:::>;;::;;::;;:;;;--;;%&&&..;;;;OO,,,,,,",
",,,,,,..OO;;;;..&&&&;:::;;;:;;;:;;::;;>-::%&&&..;;;;OO,,,,,,",
",,,,,,..O.:;;;..&&%%%&&&%%&&%%&%%&&&****&&&%&&O.;;;;OO,,,,,,",
",,,,,,.O..;;;;..&&&%%%&&&%&&&%&&%%&&%***&&&%&&OO;;::..,,,,,,",
",,,,,,OO..;;;;..:;;;&&%%&&&&%&&&****%&&&&&:;;;..;;;;..,,,,,,",
",,,,,,OO..;;;;..::;;&&&%&&&&%%&&%***%%&&%%:;;;..;;;;.O,,,,,,",
",,,,,,X...;;;;..&&%%::;;;;::;;----:>----;;&&%%.O;;;;OO,,,,,,",
",,,,,,....;;;:..&&%%;:;;;;;:;>>---:::---::&&&&..;;;;OO,,,,,,",
",,,,,,OO......oo&&&&&&&&&&&&&&&&&&&&&&&&&&&&&&O.X.OO..,,,,,,",
",,,,,,OO......o.&&&&&&&&&&&&&&&&&&&&&&&&&&&&%%....OO..,,,,,,",
",,,,,,O...####..;;::&&&%&&&&&&&&&&&%&&&&&%::;;o.####OO,,,,,,",
",,,,,,...O####..;;;;&&&%&&&&%&&&&&&%&&&&&%;;::o.####oO,,,,,,",
",,,,,,,,,,OO..OO..;;;;;;;;;;:;;;;;;;;;;;::........OO,,,,,,,,",
",,,,,,,,,,OO..OO..;;;;;;;;;;:;;:;;;;;;;;;;.......OOO,,,,,,,,",
",,,,,,,,,,,,,,..:;.....O................OO;;;;..,,,,,,,,,,,,",
",,,,,,,,,,,,,,.O;;..O...................OO;;;;..,,,,,,,,,,,,",
",,,,,,,,,,,,,,OO;;;;;;;;;;;;:;;;;;;;;;;;;;;;;:OO,,,,,,,,,,,,",
",,,,,,,,,,,,,,OO;;;;;;;;;:;;;;;;;;;;;;;;;;;;;:OO,,,,,,,,,,,,",
",,,,,,,,,,,,,,OO;;;;;;;;;;;;....;;;;;;;;;;;;O.,,,,,,,,,,,,,,",
",,,,,,,,,,,,,,OO;;;;;;;;;;;;....;;;;;;;;;;;;..,,,,,,,,,,,,,,",
",,,,,,,,,,,,,,,,OO;;;;;;;;........;;;;;;;;;;....,,,,,,,,,,,,",
",,,,,,,,,,,,,,,,..;;;:;;;:.O......;;;;;;;;;;....,,,,,,,,,,,,",
",,,,,,,,,,,,,,OO..........OO,,,,..............OO,,,,,,,,,,,,",
",,,,,,,,,,,,,,OO..........OO,,,,......O......OOO,,,,,,,,,,,,",
",,,,,,,,,,,,,,OO............,,,,..............,,,,,,,,,,,,,,",
",,,,,,,,,,,,,,OO.....O......,,,,.............O,,,,,,,,,,,,,,",
",,,,,,,,,,,,,,,,....oo......,,,,............OO,,,,,,,,,,,,,,",
",,,,,,,,,,,,,,,,....oo......,,,,...O........OO,,,,,,,,,,,,,,",
",,,,,,,,,,,,,,,,,,OOO...OO,,,,,,,,OO..OO....,,,,,,,,,,,,,,,,",
",,,,,,,,,,,,,,,,,,OO....OO,,,,,,,,OO.OOO....,,,,,,,,,,,,,,,,"
};
