/* XPM */
static char *frisk_front_21740584475[] = {
/* columns rows colors chars-per-pixel */
"60 86 25 1 ",
"  c black",
". c #010000",
"X c #000001",
"o c #3C120E",
"O c #3D120E",
"+ c #3D130E",
"@ c #3C120F",
"# c #3D120F",
"$ c #3D130F",
"% c #FFC80E",
"& c #FEC90E",
"* c #FFC90E",
"= c #FFC80F",
"- c #FEC90F",
"; c #FFC90F",
": c #E606F8",
"> c #E607F8",
", c #E707F8",
"< c #E607F9",
"1 c #E707F9",
"2 c #66A4E0",
"3 c #67A4E0",
"4 c #67A5E0",
"5 c #67A4E1",
"6 c None",
/* pixels */
"6666666666666666OOOOOOOOOOOOOOOOO@OOOOOOOOOOOO66666666666666",
"6666666666666666OOOOOOOOOOOOOOOOOOOOOOOOOOOOOO66666666666666",
"666666666666++++OOOOOO+OOOOOOOOOOOOOOOOOOOOO@OOO++6666666666",
"666666666666++++OOOOOOOOO+OOOOOOOOOOOOOOOOOOOOOO++6666666666",
"6666666666OO+@@@OOOOOoOOOO@OOO@OOO+OOOOOOOOOOOOO+@OO66666666",
"6666666666OO@@O@O@OOOOOOOOOOOO@@OOOOOOOOOOOO@OOO@@OO66666666",
"6666666666OOOOOOOOOO@@OOOO@OOOOOOOOOOOOOOoOOOOOO@OOOOO666666",
"6666666666OOOOOOOOOO@@OOOOOOOOOOOOOOOOO+OOOOOOOO@OOOOO666666",
"66666666++OOOOOOOOOOOOOOOOOOOOOO++OOOOOOOOOOOOOOOOOO#OOO6666",
"66666666++OO@OOOOOOOOOOOOO@OOOOO++OOOOOOOOOOOOOOOOOO#OOO6666",
"66666666+OOOOOOOOOOOOOOOOOOOOOO+OOOOOOOOOOOOOOOOOOOOOOOO6666",
"66666666@OOOOOOOOOOO@OOOOOOOO@OOOOOOOOOOOOOOOOOOOOOOOOOO6666",
"666666OOOOOOOOOO+++OOOOOOO@O+++OOOOOOOOOOOOOOO+OOO#OOOOO++66",
"666666OOOOOOOOOO++@OOOOOOOOO+++OOOOOOOOOOOOOOOOOOOOOOOOO++66",
"6666OOOOOOOO@+OO%%OOOOOOOOOO++**OOOOO+OOOOOOOOOOOOOOOOOO+@66",
"6666OOOOOOOOO+++%%O+OOOOOOOO$$**OOOOOOOOOOOOOOOOOOOOOOOOOO66",
"6666OOOOOOOOOO******+++++++@%%**OOOO++++++%%O@@+OOOOOOOOOO66",
"6666OOOOOOOOOO%%****+++++++@%%**OOOO+++$++%%O@@+OOOOOOOOOO66",
"6666OOOOOOOO%%%%***%%%++$+**%%%*%%OO++oo%%%%OO++OOOOOOOOOO66",
"6666OOOOOOOO%%%%****%%OO$$**%%%%%%OOOOoo%%%%OO++OOOOOOO@OO66",
"6666OOOO@@@O********%%%%********%%%%****%*****$+OOOOOO@@OOOO",
"6666OOOO++OO********%%**********%%******%*****$$OO#OO#@@OOOO",
"66OOOOOO++$$*%**%%******************************OOOO%%++OOOO",
"66OOOOOO+++$****%%******************************OOOO%%++OOOO",
"66OOOOOOOOOO********;***************************$$**%%O+OOOO",
"66OOOOOOOOOO************************************+$**%%OOOOOO",
"66OO@@++OOOO****      ************        ******%%%%$$OOOOOO",
"66OO@@++OOOO****      ************        ******%%%%+$OOOOOO",
"66OOOOOOOO%%%%**%*********************************$+OOOOOOOO",
"66OOOOOOOO%%**********************************%***++OOOOOOOO",
"66O$OOOOOO%%***;***************%**************%%%%++OOOOOO+O",
"66O$OOOOOO%%**************;*******************%%%%++OOOOOOOO",
"66OOOOOO$$%%************      ****************%%++++OOOOOOOO",
"66OOOOOO$o%%************      ****************%%++++OOOOOOOO",
"66OOOOOO+o$+******************************%%$+++O@++OOOOOOOO",
"66OOOOOO++$$***%************************%%%%$$++O@@+OOOOOOOO",
"66++OOOO++OOOO%%************************%%$+OOOOO+OOOOOO++o+",
"66++OOOO++OOOO%%******************%%****%%$+OOOOOOOOOOOO@+o+",
"6666@@OOOOOOOOOO$$****************%%+$ooOOOOOOOOOOOOOOOO@@66",
"6666@@OOOOOOOOOO+$*************%**%%+$$oOOOOOOOOOOOOOOOO@@66",
"6666666666OOOOOO++OOOOOO++%%%%****$$OOOOOOOOOOOO@@++++666666",
"6666666666OOOOOO++@@OOOO++%%%%****+$OOOOOOOOOOOOO+++++666666",
"66666666666666OO+@@@OOOO$+%%****%%++OO@@OOOOOOOO666666666666",
"66666666666666OO++@@OOOO$$%%****-%++@@@+OOOOOOOO666666666666",
"66666666666666OOOOOOOOOO++%%%%%%%%++++++OO+++@OO666666666666",
"66666666666666OOOOOOOOOO++%%*%%%%%$$++++OO++O@OO666666666666",
"666666666666666666666666$+***;%%%*$$666666666666666666666666",
"666666666666666666666666$$****%%**$$666666666666666666666666",
"6666666666666666@@@OOOOOOOOOOOOOOOOOOOOOOO@@++66666666666666",
"6666666666666666++@OOOOOOOOOOOOOOOOOOOOOOO@+++66666666666666",
"66666666666666++33++3333OOOOOOOOOOOO3333OO3333@O666666666666",
"66666666666666++33++3333OOOOOOOOOOOO3333OO3333+@666666666666",
"666666666666++33$$33333533OOOOOOOO33333333OO3333OO6666666666",
"666666666666++33$$33333333OOOOOOOO33333333OO3333OO6666666666",
"6666666666OO33+@3533333333333333333333333333OO3333OO66666666",
"6666666666OO33O@3333333333333333333333333333@@3333OO66666666",
"66666666OO33OO,,:>333333333322443333333333:>>>@@3333OO666666",
"66666666OO33OO:,>>333333333332443333333344:>>>++3333OO666666",
"66666666OO33++>>>>>>>>>>>>>,::>>,:::>>:>>>>:>>++3333OO666666",
"66666666OO33++>>>>>>>>>>>>>>>:>>,,::>>>>>>>:>>++3333OO666666",
"66666666OO33+@3333>>>>>>>>>>>>>>>>,,>>>>>>4434$$OO$$OO666666",
"66666666OO33+@3333>>>>>>,>>>>>>>>>,,>>>>::4334+$OOO$OO666666",
"66666666OOOO++::>>333333333333333333333333::++**%%=%OO666666",
"66666666OOO@++::>>333333333333333333333333::++*;%%%%OO666666",
"66666666++%%++:::,>>>>>>>>>>>>>>>>>>>>>>>>>>@@%%%%**$+666666",
"66666666++%%++::::>>>>>>>>>>>>>>>,>>>>>>>>>>@+%%%%**++666666",
"6666666666+++@3344>>,,,,>>>>>>>:,,::>>>>>>44++%%%***++666666",
"6666666666++@@3334>>,,,:>>>>>>>>::::>>>>>>44++%%%%**++666666",
"666666666666++OO++OOOOOOOOO@++++O++OOOOO+++@@@OO@@++66666666",
"666666666666++OO++OOOOOOOOO+++@+OO+@OOOO+++$OOOO@+++66666666",
"666666666666+@3333@OOOOOOO33333333333333333333OO666666666666",
"666666666666@@3333@@OOOOOO33333333333333333333OO666666666666",
"666666666666OO33OOOOOOOOOOOO333333333333333333OO666666666666",
"666666666666OO33OOOOOOOOOOOO333333333333433333OO666666666666",
"66666666666666OOOOOOO@OOOOOOOOOO33333333333333OO666666666666",
"66666666666666OOOOOOOOOOO+OOOOOO33333333333333OO666666666666",
"66666666666666OOOOOOOOOOOO@@6666OO3333333333OO66666666666666",
"66666666666666OOOOOOOOOOOOO+6666OO3333333333OO66666666666666",
"66666666666666OOOOOOOOOOOO++6666OOOOOOOO@@++OO66666666666666",
"66666666666666OOOOOOOOOOOO++6666OOOOOOOO@@++OO66666666666666",
"6666666666666666OOOOOOOOOO666666OOOO++OOOO@OOO66666666666666",
"6666666666666666OOOOOOOOOO666666OOOO++OOOOOOOO66666666666666",
"66666666666666666666OOOO66666666OOOO+@@OOOOO6666666666666666",
"66666666666666666666OOOO66666666OOOO@@OOOOOO6666666666666666",
"6666666666666666666666666666666666OO@+++66666666666666666666",
"6666666666666666666666666666666666OOO++O66666666666666666666"
};
