/* XPM */
static char *frisk_front_11740584475[] = {
/* columns rows colors chars-per-pixel */
"60 86 31 1 ",
"  c black",
". c #000100",
"X c #000001",
"o c #3C120E",
"O c #3D120E",
"+ c #3C130E",
"@ c #3D130E",
"# c #3C120F",
"$ c #3D120F",
"% c #3D130F",
"& c #FEC80E",
"* c #FFC80E",
"= c #FEC90E",
"- c #FFC90E",
"; c #FFC80F",
": c #FEC90F",
"> c #FFC90F",
", c #E606F8",
"< c #E706F8",
"1 c #E607F8",
"2 c #E707F8",
"3 c #E606F9",
"4 c #E607F9",
"5 c #E707F9",
"6 c #66A4E0",
"7 c #67A4E0",
"8 c #66A5E0",
"9 c #67A5E0",
"0 c #67A4E1",
"q c #67A5E1",
"w c None",
/* pixels */
"wwwwwwwwwwwwww@@@$oo@@$$$OOOOOOOOOOOoOOO$$OOwwwwwwwwwwwwwwww",
"wwwwwwwwwwwwww@@$$oo@@@$OOOOOOOOOoOOoOOO$$OOwwwwwwwwwwwwwwww",
"wwwwwwwwww@@$$@$$$OO$OOOooOOOOooOOOOOOOOOOOO@@@@wwwwwwwwwwww",
"wwwwwwwwww@@O$$$$$OOOOOOooOOOOooOOOOOOOOOOOO@@@@wwwwwwwwwwww",
"wwwwwwwwOO$$OOOO@$OOOO$@OOOOOOoo@@@@OOOOOOOOOo$$@owwwwwwwwww",
"wwwwwwwwOO$$OO@O@@OOOO$@OOOOOOoo@@@@OOOOOOOOO$$$oowwwwwwwwww",
"wwwwwwwwOOO$OO@@O@OOOOOOOOOOOOoo@@OOOOOOOOOOOO@@oo@%wwwwwwww",
"wwwwwwwwOOOOO$@@OOOOOOOOOOOOOOoo$@OOOO%OOOOOOO@@oo##wwwwwwww",
"wwwwwwOOOOOOOOOO@@@OOOOOoOOOOO$$$OOOOOOOOOOOOOO@O$$$@@wwwwww",
"wwwwwwOOOOOOOOOO@@$OOOOOoOOOOOO$$$OOOOOOOOOOOOOOO$$$@@wwwwww",
"wwwwwwOOOOOOOOOOOOOOOOOOOOOO$$@$OOOOOoOOOOOOOOOOOO@@@$wwwwww",
"wwwwww$$OOOOOOOOOOOOOOOOOOOO$$@@OOOOooOOOOOOOOOOOO@@$$wwwwww",
"wwww@@@$OOOOOO$$OOooOOOOOOOO@@@@OO$$OOOOOOooOOOOOoOO$$OOwwww",
"wwww@@@$OOOOOO$$OOooOOOOOOOO@@@@OO$$OOOOOOooOOOOOoOo$$OOwwww",
"ww@@OOOOOOOOOO&&OOOOOoOOOOOO%@==OO$$OOOO@$$OOOOOOOOO@$@@wwww",
"ww@@OOOOOOOOOO*&OOOOOOOOOOOO%%==OO$$OOOO@@$$OOOOOOOO@@@%wwww",
"ww@@@@@$%%OO**----@OOO@@@@@@&&==OOOO@@%%&&OOOO$$OOooOOOOwwww",
"ww@@@@$$%%@O**--==@%OO@@@@@@*&==OOOO@@@%*&OOO$$$OOoOOOOOwwww",
"ww@@OO@@%%>>----====OOOO%%==***=&&OO@@==**OOOO$oOOOoOOOOwwww",
"ww@@O$@$%%>>----====OO@O%%==******OO$$==**OOOO$$OOOOOOOOwwww",
"wwOOOOOO@@**========*--=====*===****====*===$$$$OO@@$OOO@@ww",
"wwOoOOoO@@**========**==========****====**==@@@$OO@@O$OO@@ww",
"@@OOOOoo@@>>==**==========>*====--*-========&&@@oO&*OOOO@$ww",
"@@OOOOoo@@>>==**=========***====----========&&@@OO&&OOOO$$ww",
"@$$$OOOO@@&&==**==========>=*===****==**======%@--**OOOO$$ww",
"@$O$OOOO@@**==**================****==**======%%-***OOOOOOww",
"OOOOOOOO%%**==......**==========--......==--====--OOOOOOOOww",
"OOOOOOOO%%>*==......**==========--......===*====--OOOOOOOOww",
"OOOO@$OO**====***>==========>>======****--------@OOO$$$O+oww",
"oOOO$$OO=*====****=====*====>>======**=**-------@@OO$$OO+@ww",
"OOOO@$$O=====*>=>>**==>>==>=====**====**------*-oo@@$$@@@oww",
"OOOO$$$O========>>**==>>========**====**---*--**oo@@$$$@@@ww",
"OO@@OOOO**-----*>>======......========*****-**O@@@@@OOooOOww",
"oO@OOOoO**-----*>>======......========*****-**OO@@O$OOooOOww",
"OOOOOOOO@@----**>>====>>**==**==========&*OO@@@OooOOOOOOOOww",
"OOOOOOOOO@----**>>====>>**==**==========&&OO@@@@ooOOOOOOOOww",
"OOOOOOOOOO@@&****===**==*=============**OOOOOOO$OOOOOOOO@@ww",
"OOOOOOOOOO@@&&***===**==**============**OOoOOOO$OOOOOOOO@@ww",
"ww@@OO$$$$@@$O@O====**============*-%%%%OOoOOO$$OOOOOOOOwwww",
"ww@@OOO$$@##@@@O*===**============**O%%%OOOOOO$$OOOOOOOOwwww",
"wwwwwwww@@@#@@OO%%OOOOOOoo*--->>==%%OOOOO$OO$$$$$$@@wwwwwwww",
"wwwwwwww@@##@@OO@%$$$OOOoo**--====%%O$OOOOOO$@$$$@@@wwwwwwww",
"wwwwwwwwwwww$$$O@@@$OO$$@O--====**OO$$@@OOOO@@wwwwwwwwwwwwww",
"wwwwwwwwwwww$$$O@@@@OO$$@@--====-*OO$$@@OOOO@@wwwwwwwwwwwwww",
"wwwwwwwwwwww$$@@@@ooOOOOOo*---**--OOOO@@OO@@@$wwwwwwwwwwwwww",
"wwwwwwwwwwww$@@@@@o@OOOOOO**-***--OOOO@@OO@@$$wwwwwwwwwwwwww",
"wwwwwwwwwwwwwwwwwwwwwwww%%====****@Owwwwwwwwwwwwwwwwwwwwwwww",
"wwwwwwwwwwwwwwwwwwwwwwww%%====&&**@@wwwwwwwwwwwwwwwwwwwwwwww",
"wwwwwwwwwwwwww@@$$$$$$$$$OOOOOOoOOOO$$@@$$@@wwwwwwwwwwwwwwww",
"wwwwwwwwwwwwww@@$$$$$$$$$OOOOOOOOOOO$@@@$@@@wwwwwwwwwwwwwwww",
"wwwwwwwwwwww$@6777@@7777OO@@OOOOOOOO7777$$77@@wwwwwwwwwwwwww",
"wwwwwwwwwwww$@7777$@7777O$@@OOOOOOO$7777$$77@@wwwwwwwwwwwwww",
"wwwwwwwwww$$7777@@77777777@$OOOOOo66777767$$79OOwwwwwwwwwwww",
"wwwwwwwwwwO$7777##77777777@@OOOOOo77777777oo77OOwwwwwwwwwwww",
"wwwwwwww@@7777@@7777777777797777777777777666$$77@@wwwwwwwwww",
"wwwwwwww@@7777@@7777777777777777777777779666$$76@@wwwwwwwwww",
"wwwwww$$7700#@551169769966969666776669976922<1$O76@@wwwwwwww",
"wwwwww$$7777##<<116977666696966677666677662211@@76@@wwwwwwww",
"wwwwww$@7977@@<<1114<1112211<<11<<<111<<111111@@77oowwwwwwww",
"wwwwww$@7977@@<<1114<41122111111<<<12<11111111@@77o@wwwwwwww",
"wwwwww@@@@@@@$6797<4441<22<<1111114<1111116676OO66@@wwwwwwww",
"wwwwww@@@@@@@$7799<4441<224<<<11144<11111<6676OO66@@wwwwwwww",
"wwwwww@@****&&$$116669777766776666777999661<<<$$o$@@wwwwwwww",
"wwwwww@@*****&$$116699777996796699777999661<<<$$o@@@wwwwwwww",
"wwwwww@o*=====@@11111111<<111,44114411111111<<OO**@@wwwwwwww",
"wwwwwwoo**====@@11111<111<1<,,4411<111111111<2OO**@@wwwwwwww",
"wwwwww@@**&&==%O991111<<1111444411<<1111<<6677OOOOwwwwwwwwww",
"wwwwww@@**&&==%@7911<<<<111144111<<<1111<<6677OOOOwwwwwwwwww",
"wwwwwwww@@@$OOOO@@$$OOOOO$$$o@@@@@@@OOOO#o$$$$OOwwwwwwwwwwww",
"wwwwwwww@@$$OOOO@@$$OOO$o$$@oo@@@O@@OOOO@o$$OOOOwwwwwwwwwwww",
"wwwwwwwwwwwwOO77777777776677776677OOooOO@$6777OOwwwwwwwwwwww",
"wwwwwwwwwwwwOO77777777776677776666OOooOO@@6677OOwwwwwwwwwwww",
"wwwwwwwwwwwwOO677777777777777777OOOOOOOO$$OO97@@wwwwwwwwwwww",
"wwwwwwwwwwwwOO777777777767777777OOOOOOOO$$O$96@@wwwwwwwwwwww",
"wwwwwwwwwwwwOO77777777777779OO@@OOOOOOOO$$$$@@wwwwwwwwwwwwww",
"wwwwwwwwwwww$$76776777777777O$o@OOOOOOOO$$$$$@wwwwwwwwwwwwww",
"wwwwwwwwwwwwww$$7777777766@@wwww@@$OOOOOOOOo$$wwwwwwwwwwwwww",
"wwwwwwwwwwwwww$@7777667766@@wwww@@OOOOOOOOoo$@wwwwwwwwwwwwww",
"wwwwwwwwwwwwww@@OO@@OO$$@$@@wwww@@ooooOOOOOO@@wwwwwwwwwwwwww",
"wwwwwwwwwwwwww@@OOO$OOO$$@@@wwww@oooooOOOOOO@@wwwwwwwwwwwwww",
"wwwwwwwwwwwwww@@OOOOOO$$OOOOwwwwww@@@$OOOOOOwwwwwwwwwwwwwwww",
"wwwwwwwwwwwwww@@OOOOOO$$OOOOwwwwww@@$$OOOOOOwwwwwwwwwwwwwwww",
"wwwwwwwwwwwwwwww$$Oo$$$$OoOOwwwwwwww$OOOwwwwwwwwwwwwwwwwwwww",
"wwwwwwwwwwwwwwww$$oo$$$$ooOOwwwwwwww$OOOwwwwwwwwwwwwwwwwwwww",
"wwwwwwwwwwwwwwwwwwww@@$$@@wwwwwwwwwwwwwwwwwwwwwwwwwwwwwwwwww",
"wwwwwwwwwwwwwwwwwwww@@$@@@wwwwwwwwwwwwwwwwwwwwwwwwwwwwwwwwww"
};
