/* XPM */
static char *first_left_21740584474[] = {
/* columns rows colors chars-per-pixel */
"60 86 18 1 ",
"  c black",
". c #3C120E",
"X c #3D120E",
"o c #3D130E",
"O c #3D120F",
"+ c #FFC80E",
"@ c #FEC90E",
"# c #FFC90E",
"$ c #FFC90F",
"% c #E606F8",
"& c #E607F8",
"* c #E707F8",
"= c #E607F9",
"- c #66A4E0",
"; c #67A4E0",
": c #67A5E0",
"> c #67A4E1",
", c None",
/* pixels */
",,,,,,,,,,,,,,,,,,,,,,,,,,,,,,,,,,,,,,,,,,,,,,,,,,,,,,,,,,,,",
",,,,,,,,,,,,,,,,,,,,,,,,,,,,,,,,,,,,,,,,,,,,,,,,,,,,,,,,,,,,",
",,,,,,,,,,,,,,,,XXXXXXXXXXOOXXXXXXXXXXXX,,,,,,,,,,,,,,,,,,,,",
",,,,,,,,,,,,,,,,XXXXXXXXXXOOXXXoXXXXXXXX,,,,,,,,,,,,,,,,,,,,",
",,,,,,,,,,,,XXXXXXXXXXXXXXXXXXXXXXXXXXXXXXXX,,,,,,,,,,,,,,,,",
",,,,,,,,,,,,XXXXXXXXXXXXXXXXXXXXXXXXXXXXXXXX,,,,,,,,,,,,,,,,",
",,,,,,,,,,XXXXXXXXXXXXXXXXXXXXXXXXXXXXXXXXXXXX,,,,,,,,,,,,,,",
",,,,,,,,,,XXXXXXXXXXXXXXXXXXXXXXXXXXXXXXXXXXXX,,,,,,,,,,,,,,",
",,,,,,,,XXXXXXXXXXXXXXXXXXXXXXXXXXXXXXXXXXXXXXoX,,,,,,,,,,,,",
",,,,,,,,XXXXXXXXXXXXXXXXXXXXXXXXX.XXXXXXXXXXOXXX,,,,,,,,,,,,",
",,,,,,XXXXXXXXXXXXXXXXXX..XXXXXXXXXXXXXXXX..XXOOXX,,,,,,,,,,",
",,,,,,XXXXXXXXXXXXXXXXXX..XXXXXXXXXXXXXXXXX.X.OOXX,,,,,,,,,,",
",,,,XXXXXXXXXXXXXXXXXXXXXXXXXXXX..oXXXXXXX.XXXXXXXXXXX,,,,,,",
",,,,XXXXXXXXXXXXXXXXXXXXXXXXXXXX..XXXXXXXXXXX.XXXoXXXX,,,,,,",
",,,,XX.XXXXXXXXXXXXXXXXXXXXXXXXXXXXXXoXXXOXXXXXOXoXXXX,,,,,,",
",,,,XXXXXXXXXXXXXXXXXXXXXXXXXXXXXXXOXXXXXXXXXXXXXXXXXX,,,,,,",
",,,,XXXXXXXXXXXXXXXXXXXXXXXXXX..XXXXXXXXXXXXXXXXXXXXXX,,,,,,",
",,,,XXXXXXXXXXXXXXXXXXXXXXXXXX..OXXXXXXXXXXoXXXXXXXXXX,,,,,,",
",,,,XXXXXXXX.XXXXXXX##XXXXXXXXXoXXXXOOXXooXXXXXXXXXXXXXX,,,,",
",,,,XXXXXXXXXXX.XXXX#$XXXXXXoXXXXXXXOOXXXoXXXXXXXXXXXXXX,,,,",
",,,,,,XXXXXXoo##XXoo####oXXXXXXXXXXXXXXXXXXoXXXXXXXXXOXX,,,,",
",,,,,,XXXXXXoo##XXoo####ooXXXXXXXXXXXXXXXOXXXXXXXXXXXXXX,,,,",
",,,,,,,,XXoo++##XX######+#XXXXXXXXXXXXXXXXXXXXXXXXXXXXXX,,,,",
",,,,,,,,XXoo##$#XX######++XXXXXXXXXXXXXXXXXXXXXXXoXXXXXX,,,,",
",,,,,,,,XX$$####+#########ooXXXXXXXXXXXXXXXXXXXXXXXXXXXX,,,,",
",,,,,,,,XX$$####++#####$##oooXXXXXXXXXXXXXXXXXXXXoXXXXXX,,,,",
",,,,,,,,oo$$########$$##++XXXXXXX.XXXXXXXXXXXXoXXXXXXXXX,,,,",
",,,,,,,,oo#$###$####$$###+XXXXXXXXXXXXXXXXXXOXXOXXXXXOXX,,,,",
",,,,,,,,oo####$$##$$$#####XXXXoXXXXXXXXXXXXXXXXXXXXXXXXX,,,,",
",,,,,,,,XX####$$##$$######XXXXooXXXXXXXXXXXXXXXXXXXXXXXX,,,,",
",,,,,,,,XX++##      ######oXoX+#$$XOXoXXXXXXXXXXOOXXoXXX,,,,",
",,,,,,,,XX++##      ######ooXX++$$XXXXXXXXXXXXXXOOXXXXXX,,,,",
",,,,,,XX#############@##++XX###+$$XXXXXXXXXXXXXXXXXXXXXX,,,,",
",,,,,,XX######$#########++XX######oXXXXXXXXXXXXXXXOXXXXX,,,,",
",,,,,,XX##$$##$#########+#oX##+#XXXXXXXXXXXXXXXXXXXXXXXX,,,,",
",,,,,,XX##$$##########+###oo##++XXXXXXXXXXXXXXXXXXXXXXXX,,,,",
",,,,,,XX####$$$#############+$oXXXoXXXXXXXXXXXXXXXXXXXXX,,,,",
",,,,,,XX####$$##############++ooXXXXXXXXXXXXXXXXXXXXXXXo,,,,",
",,,,,,XX      ####++######$#XXXoXXXXXXXXXXXXXXXXXXXXXX,,,,,,",
",,,,,,XX      ####+#########XXXXXXXXXXXXXXXXXXXXXXXXXX,,,,,,",
",,,,,,,,XX$$$###############ooXXXXXXXXXXXXXXXXXXXX,,,,,,,,,,",
",,,,,,,,XX$$################XoXXXXXXXXXXXX.XXXXXXX,,,,,,,,,,",
",,,,,,,,,,XXoo+##########+##+$oXXXXXOOXXXXXXXX,,,,,,,,,,,,,,",
",,,,,,,,,,XXoo##############++ooXXoXOXXXXXXXXX,,,,,,,,,,,,,,",
",,,,,,,,,,,,,,XXXXXX.ooooX+#+###XXXXXX,,,,,,,,,,,,,,,,,,,,,,",
",,,,,,,,,,,,,,XXXXXX..XXoo++####XXXXXX,,,,,,,,,,,,,,,,,,,,,,",
",,,,,,,,,,,,,,,,,,,,,,XX########XXoXXX,,,,,,,,,,,,,,,,,,,,,,",
",,,,,,,,,,,,,,,,,,,,,,XX########XXXXXX,,,,,,,,,,,,,,,,,,,,,,",
",,,,,,,,,,,,,,,,,,,,,,XX$$$$+###XX,,,,,,,,,,,,,,,,,,,,,,,,,,",
",,,,,,,,,,,,,,,,,,,,,,XX$$##++##XX,,,,,,,,,,,,,,,,,,,,,,,,,,",
",,,,,,,,,,,,,,,,,,,,,,XXXXooXXXXXX,,,,,,,,,,,,,,,,,,,,,,,,,,",
",,,,,,,,,,,,,,,,,,,,,,XXXoooXXXXXX,,,,,,,,,,,,,,,,,,,,,,,,,,",
",,,,,,,,,,,,,,,,,,,,XXXXXXXX;;;;XXXX,,,,,,,,,,,,,,,,,,,,,,,,",
",,,,,,,,,,,,,,,,,,,,XXXXXXXX;;;;XXXX,,,,,,,,,,,,,,,,,,,,,,,,",
",,,,,,,,,,,,,,,,,,XXXXXX;;;;;;;;;;>>XX,,,,,,,,,,,,,,,,,,,,,,",
",,,,,,,,,,,,,,,,,,XXXXXX;;;;;;;;;::>XX,,,,,,,,,,,,,,,,,,,,,,",
",,,,,,,,,,,,,,,,XX:;;;;;;;;-;;;;;;XX;;XX,,,,,,,,,,,,,,,,,,,,",
",,,,,,,,,,,,,,,,XX:;;;::;;;-;;;;;;XX;;XX,,,,,,,,,,,,,,,,,,,,",
",,,,,,,,,,,,,,,,XX&&%&&&****;;;;;;XX&%XX,,,,,,,,,,,,,,,,,,,,",
",,,,,,,,,,,,,,,,XX&&%&&&****;;;;;;XX&%XX,,,,,,,,,,,,,,,,,,,,",
",,,,,,,,,,,,,,XX&&&&&&&%*%..;--;;;XX&&XX,,,,,,,,,,,,,,,,,,,,",
",,,,,,,,,,,,,,XX%%&&&&&%**X.;;-;;:XX&%XX,,,,,,,,,,,,,,,,,,,,",
",,,,,,,,,,,,,,XX;;;;::;;XX>:;;;;;;XX;:XX,,,,,,,,,,,,,,,,,,,,",
",,,,,,,,,,,,,,XX;;;;;;;;XX;;;;;;;;XX;:XX,,,,,,,,,,,,,,,,,,,,",
",,,,,,,,,,,,,,XX>:;;;;oXXXoo;;;;XX:;;;XX,,,,,,,,,,,,,,,,,,,,",
",,,,,,,,,,,,,,XX>:;;;;oXXXoo;;;;XX:;;;XX,,,,,,,,,,,,,,,,,,,,",
",,,,,,,,,,,,,,OX&&%%oo##+###XX;;XX&&%&X.,,,,,,,,,,,,,,,,,,,,",
",,,,,,,,,,,,,,XX&&&&oo##++##XX;;XX&&%&XX,,,,,,,,,,,,,,,,,,,,",
",,,,,,,,,,,,,,XX&&&&XX######XXXX&&&&&%XX,,,,,,,,,,,,,,,,,,,,",
",,,,,,,,,,,,,,XX&&&&XX#$####XXXX&&&&&%XX,,,,,,,,,,,,,,,,,,,,",
",,,,,,,,,,,,,,XXXXXXXX$$####XXXXXXXXXXXX,,,,,,,,,,,,,,,,,,,,",
",,,,,,,,,,,,,,XXXXXoXX$$##$$XXXXXXXXXXXX,,,,,,,,,,,,,,,,,,,,",
",,,,,,,,,,,,,,XX;;;;;;XX.oXX;;;;;;;;;;XX,,,,,,,,,,,,,,,,,,,,",
",,,,,,,,,,,,,,XX;;;;;;XXooXo;;;;;;:;;:X.,,,,,,,,,,,,,,,,,,,,",
",,,,,,,,,,,,,,,,XX;;;;;;;;;;;;;;>:;;;;XX,,,,,,,,,,,,,,,,,,,,",
",,,,,,,,,,,,,,,,XX;;;;;;;;;;;;;;>>>;;;XX,,,,,,,,,,,,,,,,,,,,",
",,,,,,,,,,,,,,,,XXXX;;;;;;;;;;;;;;-;XX,,,,,,,,,,,,,,,,,,,,,,",
",,,,,,,,,,,,,,,,XXXX;;;;;;;;;;;;;;-;XX,,,,,,,,,,,,,,,,,,,,,,",
",,,,,,,,,,,,,,,,XXXXXX;;;;;;;;;;::XXXXXX,,,,,,,,,,,,,,,,,,,,",
",,,,,,,,,,,,,,,,XXXXX.;;;;;;;;;;>>XX.XXX,,,,,,,,,,,,,,,,,,,,",
",,,,,,,,,,XXXXXXXXXXXXXXXXXXXXXXXXXXXXXX,,,,,,,,,,,,,,,,,,,,",
",,,,,,,,,,XXXXXXXX.XXXoXXXXXXOXXXXXXXXXX,,,,,,,,,,,,,,,,,,,,",
",,,,,,,,,,XXXXXXXXXXXXXX,,,,,,XXXXXXXXXX,,,,,,,,,,,,,,,,,,,,",
",,,,,,,,,,oXXoXXOXXXXXXX,,,,,,.XXXXXXXXX,,,,,,,,,,,,,,,,,,,,",
",,,,,,,,,,,,OOXXXXXXXX,,,,,,XXXXXXXXXX,,,,,,,,,,,,,,,,,,,,,,",
",,,,,,,,,,,,OOXXoXXXXX,,,,,,XXXXXXXXXX,,,,,,,,,,,,,,,,,,,,,,"
};
