/* XPM */
static char *idle2resize1739290818[] = {
/* columns rows colors chars-per-pixel */
"60 86 98 2 ",
"   c #000001",
".  c #3A0C07",
"X  c #340A0E",
"o  c #3A0F0C",
"O  c #221A02",
"+  c #3D120E",
"@  c #3D1917",
"#  c #352903",
"$  c #121A2C",
"%  c #2D0131",
"&  c #10202D",
"*  c #132231",
"=  c #343333",
"-  c #383834",
";  c #3B3C38",
":  c #461A0D",
">  c #5C2F0D",
",  c #5F320B",
"<  c #61340E",
"1  c #6A3D0E",
"2  c #43272C",
"3  c #432C33",
"4  c #4C293F",
"5  c #45333B",
"6  c #6E400C",
"7  c #695306",
"8  c #745831",
"9  c #5D1642",
"0  c #650946",
"q  c #473642",
"w  c #4A275D",
"e  c #66255E",
"r  c #27415A",
"t  c #3E4B53",
"y  c #4A4557",
"u  c #565656",
"i  c #4E5067",
"p  c #666666",
"a  c #6C6C6B",
"s  c #90620E",
"d  c #A9760C",
"f  c #AC7B0D",
"g  c #B5830E",
"h  c #BD950C",
"j  c #D19E0E",
"k  c #CFA30B",
"l  c #DAA60E",
"z  c #E1AC0E",
"x  c #EFBD0D",
"c  c #F3BE0D",
"v  c #DAB934",
"b  c #F6C00E",
"n  c #F9C30E",
"m  c #FFCA0E",
"M  c #FFD00E",
"N  c #DCC341",
"B  c #546485",
"V  c #536A8C",
"C  c #4D6E92",
"Z  c #5E5FA9",
"A  c #4A7BA9",
"S  c #7466B8",
"D  c #980F9A",
"F  c #B000BA",
"G  c #9E25BB",
"H  c #BE0BCC",
"J  c #C103C0",
"K  c #E50AF9",
"L  c #F100FF",
"P  c #CB2FF9",
"I  c #D022F4",
"U  c #AD43E3",
"Y  c #B54AF4",
"T  c #9D66EE",
"R  c #788685",
"E  c #5C81AD",
"W  c #5D84B1",
"Q  c #5C81BF",
"!  c #5D8CBE",
"~  c #608FC1",
"^  c #649ED7",
"/  c #65A1DC",
"(  c #7E8AE7",
")  c #67A4E0",
"_  c #68A8E7",
"`  c #69ABEB",
"'  c #96989A",
"]  c #9D9D9D",
"[  c #8DAFB1",
"{  c #8DB1B1",
"}  c #BCBDBD",
"|  c #8586ED",
" . c #C2C3C1",
".. c #CECECE",
"X. c #D4D4D4",
"o. c #F1F2F2",
"O. c #FDFDFD",
"+. c None",
/* pixels */
"+.+.+.+.+.+.+.+.+.+.+.+.+.+.+.+.+ + + + + + : X + X + + + + + + + + + + + + + + : X + + +.+.+.+.+.+.+.+.+.+.+.+.+.+.+.+.",
"+.+.+.+.+.+.+.+.+.+.+.+.+.+.+.+.+ + + + + + + + + : X : + + + : + + + + + + + + + + + + +.+.+.+.+.+.+.+.+.+.+.+.+.+.+.+.",
"+.+.+.+.+.+.+.+.+.+.+.+.+ + + + + + + + + + + + + + + + + + + + + + + + + + + + + + + + @ + + + +.+.+.+.+.+.+.+.+.+.+.+.",
"+.+.+.+.+.+.+.+.+.+.+.+.+ + + + + + + + + + @ + + + : + + @ + + @ + + + + + + + + + + + + + + + +.+.+.+.+.+.+.+.+.+.+.+.",
"+.+.+.+.+.+.+.+.+.+.+ + + + + + + + + + + + : + + + + + + + + + @ : + + + + + + : X + X : + : + + + +.+.+.+.+.+.+.+.+.+.",
"+.+.+.+.+.+.+.+.+.+.+ + + + + + + + + + + + o + + + + + + + + + o + + + + + + + + + + : X + X + + + +.+.+.+.+.+.+.+.+.+.",
"+.+.+.+.+.+.+.+.+.+.+ + + + + + + + + + + + + + + + + + + + + + + + + + + + + + : X + + + + : X + + + + +.+.+.+.+.+.+.+.",
"+.+.+.+.+.+.+.+.+.+.+ + + + + + + + + + + + + + + + + + + + + + + + + + + + + + + @ + + + + + + + + + + +.+.+.+.+.+.+.+.",
"+.+.+.+.+.+.+.+.+ + + + + + + + @ o + + + + + + + + + + o @ + + + + + + + + + + : + : X + + + @ + + + o o + + . +.+.+.+.",
"+.+.+.+.+.+.+.+.+ + + + + + + + + + + + + + + + + + + + + + + + + + + + + + + + X + + + + + : X + + + @ + + + + +.+.+.+.",
"+.+.+.+.+.+.+.+.+ + + + + + + + + + + + + + + + + + + + + + + + + + + + + + + @ + @ + + X + + + + + : + + + + + +.+.+.+.",
"+.+.+.+.+.+.+.+.+ + + + + + + + + + + + + + + + + + + + + o + + + + + + + + + + + + + + : + + + + + + + + + + + +.+.+.+.",
"+.+.+.+.+ + + + + @ + + + + + + + o + + + + + + + + + + + + X o + + + + + + + + + : + + + + + + + + + + + + + + + + +.+.",
"+.+.+.+.+ + + + + + + + + + + : < < : o + + + + + + + + + : < < : + + + + + + + + X + + + + + + + + + + + + + + + + +.+.",
"+.+.+ + + + + + + + + + + + X , g f > X + @ + + + + + o o < f f < + X + + + + : X + + + + + + + + + + + + + + + + + +.+.",
"+.+.+ + + + + + + + + + X : , s z z s > : X + + + + + : < s z l 1 X + + + + X : < < : + + + + + + + + + + + + + + + +.+.",
"+.+.+ + + + + + + + + o X > d z n n z d > X + @ + o X > d z m j 1 X X + + + X < f f < X + + + + : + + + + + + + + + +.+.",
"+.+.+ + + + + + + + + : > s z M m m M z s > : X X : > s z M m l s > : X X : > s z l 1 X + + + + o + + + + + + + + + +.+.",
"+.+.+ + + + + + + o + < f z n m m m m n z d > X X > d z n m m b z f > X X > f z m j 1 X X + + + + + + + + + + + + + +.+.",
"+.+.+ + + + + + o @ X 1 j M m m m m m m M z s < 1 s z m M m m m M l s 1 1 s z M m z s > : + o o + + + o + + + + + + +.+.",
"+.+.+ + + + + @ + + X 6 j M m m m n m m m c l j j l c m m m m m m b l j j l b m m b z f > X + @ + + + X + + + + + + + + ",
"+.+.+ + + + + + + X o 1 j m m m m m m m m m m m M m m m n m m n m m m m m m m m m m M z s > : + + : < < : + + + + + + + ",
"+ + + + + + + + + + X 1 j m m m m n m m m m m M m m m m m m m m m m m m m m m m m m m n z f < X X > f f < @ X + + + + + ",
"+ + + + + + + : + + o 1 j m m m m m m m m m m m n m m n m m m n m m m M m m m m m m m m M j 1 + > s z l 6 o o + + + + + ",
"+ + + + + + + + + X o 1 j m m m m M m M M M m m m m m m n m m m m m M M m m M m m m m m M j < > d z m l 1 X X + + + + + ",
"+ + + + + + + + + @ X 1 j m m x k h h h h k x m m n n m m m m m m x k h h h h k x m m m m l s s z m z f < + + + + + + o ",
"+ + + + + + + + + X X 1 j M M k 7 # # # # 7 k m m m m m m m m m m j 7 # # # # 7 j M m m m x l z m z s > : + + + + + + @ ",
"+ + + + + + + + + : > s l M M j 7 # # O   # h M m m m n m m m m m h #   O # # 7 j m m m m m m n z f > X X @ + + + + + : ",
"+ + + + + + + + o < f z b m m x k h h s O # h m m m m m m m m m M h # O s h h k x m m m m M m z s > : X + + + + + + + + ",
"+ + + + + + + o o 1 j M m m m m m M M k 7 7 k m m m m m m m m m m k 7 7 k M M M m m m m m m M j 1 X X : + + + + + + + + ",
"+ : + + + + + o X 1 j M m m m m m m m c k k x m M m m M m m m m m x k k c m m m m m m m m m m j 1 X X + + + + + + + + + ",
"+ + + + + + + @ o 1 j M m m m m m m m m M M m x k h h h h k x m m m m m m m m m m m m m m n z f > + X : + : + + + + + + ",
": + + + : X : X X 1 j M m m m m m m m m m m m k 7 # # # # 7 k m m m m m m m n m m m m M M z s > : + + + + + + + + + + + ",
"X + + + X : X + + < f z c m m m m m n m m m m k 7 # # # # 7 k m m m n m m m n m m c l j j f > X + + + + + + + + + + + + ",
"+ + : X + + : X + : > s z M M m n m n m m m m c k h h h h k x m m n m m m m m m M z s 1 1 < : + + + + + + + + + + + + + ",
"+ + + + X : + + + o X > d z n m m m m m n m n m m m m m m m m m m m m m m m m n z d > X X o + + + + + + + + + + + + + + ",
"+ + @ + + : X + + + + : > s z M m M m m m m m m m m m M m m m m m n m m m M M z s > : o + + + + + + + + + + : + + + + + ",
"+ + + + + + + + + + + X X > f j j l c m m m m m m m m m n m m m m m m x l j j d > X X + + + + + + + + + @ + + + @ + + + ",
"+.+.+ + : X + + + + + + o : < 1 < s l m m m m m m m m m m m m m n m m l s 1 1 < : @ + + + + + + + + + + + + + + + + +.+.",
"+.+.+ + @ + + + + + + + + + o X X 1 j M m m m m m m m m m n m m m m M j 1 X X + + + + + + + + + + + + + + + + + + + +.+.",
"+.+.+ + + + + + + + + + + + + o X 1 j M M M m M m m m m m m m n m m m j 6 X o + o + + + + + + + + + + + + + + + + + +.+.",
"+.+.+ + + + + + + + + + + + + o + < f j j j j j j l c m m n m m m c z f < X + + + + + + + + + + + + + + + + + + + + +.+.",
"+.+.+.+.+.+.+.+.+.+.+ + + + + + + : < 1 1 1 1 1 < s l M m m m m m l s > : + + + + + + + + + + + + + + + +.+.+.+.+.+.+.+.",
"+.+.+.+.+.+.+.+.+.+.+ + + + + + + + o X + o o X X 1 j m m m m m m j 1 X + + + + + + + + + + + + + + + + +.+.+.+.+.+.+.+.",
"+.+.+.+.+.+.+.+.+.+.+.+.+.+.+ + + + + + + + + X X 1 j m m m m m m j 1 X + + + + + + + + + + +.+.+.+.+.+.+.+.+.+.+.+.+.+.",
"+.+.+.+.+.+.+.+.+.+.+.+.+.+.+ + + o o + o o + + . 1 j M m m m m M j 1 o + + + + + + + + + + +.+.+.+.+.+.+.+.+.+.+.+.+.+.",
"+.+.+.+.+.+.+.+.+.+.+.+.+.+.+.+.+.+.+.+.+.+.+.+.+ 1 j m m m m m M j 6 X +.+.+.+.+.+.+.+.+.+.+.+.+.+.+.+.+.+.+.+.+.+.+.+.",
"+.+.+.+.+.+.+.+.+.+.+.+.+.+.+.+.+.+.+.+.+.+.+.+.. 1 h N N N N v l d < + +.+.+.+.+.+.+.+.+.+.+.+.+.+.+.+.+.+.+.+.+.+.+.+.",
"+.+.+.+.+.+.+.+.+.+.+.+.+.+.+.+.+ + + + + + + + . 5 R { [ [ { R 8 > : . . + + + o + + : + + +.+.+.+.+.+.+.+.+.+.+.+.+.+.",
"+.+.+.+.+.+.+.+.+.+.+.+.+.+.+.+.5 q 5 3 @ @ 3 5 q i ! _ _ _ _ ! i q q q q q q = @ @ 3 q 5 5 +.+.+.+.+.+.+.+.+.+.+.+.+.+.",
"+.+.+.+.+.+.+.+.+.+.+.+.+.+.. 5 V E W B 2 2 B E W ! / ` _ _ _ / ! W W E E E W B 2 3 B W W V 3 : +.+.+.+.+.+.+.+.+.+.+.+.",
"+.+.+.+.+.+.+.+.+.+.+.+.+.+.3 i ! _ ~ V y i ~ / ! A A A A A A A A A A ! / ` ` ! i y V ~ / ! i 5 +.+.+.+.+.+.+.+.+.+.+.+.",
"+.+.+.+.+.+.+.+.+.+.+.+.. 3 V ! / ! i y C ~ / ! r & * * & * * * * & * r Q ` _ ^ ! V y i ~ / ~ V 3 . +.+.+.+.+.+.+.+.+.+.",
"+.+.+.+.+.+.+.+.+.+.+.+.5 i ! ) ! V y i ! / ! C t - - - ; ; ; ; ; - - t C ! ^ _ _ ~ i y V ~ / ~ i 5 +.+.+.+.+.+.+.+.+.+.",
"+.+.+.+.+.+.+.+.+.+.. 3 V ! ) ! i y C ! / ! r t '  . . . . . . . . . .' t r W _ ` ^ ! V y i ~ / ! V 3 . +.+.+.+.+.+.+.+.",
"+.+.+.+.+.+.+.+.+.+.3 i ~ ) ~ B e e S ( _ A & =  .O.O.O.X. . .X.O.O.O. .= $ A ` _ / ( S e e B ~ / ! i 5 +.+.+.+.+.+.+.+.",
"+.+.+.+.+.+.+.+.: 3 V ~ ) ~ u e D H I Y ( A & =  .O.O.X.a = = a X.O.O. .= & A ` _ ( Y I H D e i ! / ! V 5 o . . +.+.+.+.",
"+.+.+.+.+.+.+.+.o q A ` ` S 5 0 J L L I S C t a X.O.X.] u = = u ] X.o...a y C Q | T I L L F 0 5 E ` ` W q . : + +.+.+.+.",
"+.+.+.+.+.+.+.+.o q A ` ` E 5 0 J L L H w y ' X.O...a u ]  . .' u p ..O.X.' t w G I K L L J 0 5 E ` ` E q . o + +.+.+.+.",
"+.+.+.+.+.+.+.+.o q W ` ` E 5 9 G P P G % ;  .O.O.} = =  .O.O.X.p p ..O.O. .; % F K I P P G 9 5 E _ ` W q . . + +.+.+.+.",
"+.+.+.+.+.+.+.+.+ 5 E ` ` E 5 4 S | | Z $ ;  .O.O.} = -  .O.O.o...X.o.O.O. .; % F I T | | S 4 5 E ` ` E q : . o +.+.+.+.",
"+.+.+.+.+.+.+.+.+ q E ` ` E 5 4 S | | Z $ ;  .O.O.} = -  .O.O.o.X.X.o.O.O. .; % G Y T | | S 4 5 E ` ` E q . . + +.+.+.+.",
"+.+.+.+.+.+.+.+.+ 5 W ` ` W 5 9 G P P G % ;  .O.O.} = =  .O.O.X.p p ..O.O. .; $ Z T Y P P G 9 q W ` ` W q . . o +.+.+.+.",
"+.+.+.+.+.+.+.+.+ 3 B W W B 3 0 J L L H 0 w ] X.o.X.a u ]  . .' u p ..O.X.' w w S T I L L J 0 3 B W W B 3 o + : +.+.+.+.",
"+.+.+.+.+.+.+.+.. @ 3 5 q 3 @ 0 J L L K H D w a X.o.X.] u = = u ] X.o.X.a w D H I I K L L J 0 : 3 q 5 3 @ + + + +.+.+.+.",
"+.+.+.+.+.+.+.+.+ : , 6 6 , : 9 G P P I K F % -  .O.O.X.a = = a X.O.O. .- % F L L K I P P G 9 : , 1 6 < : + + + +.+.+.+.",
"+.+.+.+.+.+.+.+.+ , f l l f , 4 S | | T I F % ;  .O.O.O.X. . .X.O.O.O. .- % F L L I T | | S 4 , f l l f < o o o +.+.+.+.",
"+.+.+.+.+.+.+.+.. 1 g l l f , 3 B ~ / ( Y G w t '  . . . . . . . . . .' t w G P P U S W E B = , f l l g 1 + + . +.+.+.+.",
"+.+.+.+.+.+.+.+.+.+.1 6 6 , : @ 3 i ! _ ( ( Q C y - ; ; ; ; ; ; ; ; - y C Q ( | | S y 5 5 3 @ : < 6 6 1 +.+.+.+.+.+.+.+.",
"+.+.+.+.+.+.+.+.+.+.. + + . + @ 2 y V E E W W C r * & * * * * * * * $ r C W W W W V y 5 5 3 @ + + . + . +.+.+.+.+.+.+.+.",
"+.+.+.+.+.+.+.+.+.+.+.+.+.+.+ 3 B V y 5 5 5 5 y C A A A A A W A A A A C y q 5 5 5 y V W E B 3 + +.+.+.+.+.+.+.+.+.+.+.+.",
"+.+.+.+.+.+.+.+.+.+.+.+.+.+.+ q W ~ i 5 5 2 + 2 B W W ! W W W ! W W W B 3 + 2 5 5 i ! ` ` W q + +.+.+.+.+.+.+.+.+.+.+.+.",
"+.+.+.+.+.+.+.+.+.+.+.+.+.+.+ q E / ! E E B 2 + = q q q q q q q q q q 2 + 2 B E E W ^ ` ` E q + +.+.+.+.+.+.+.+.+.+.+.+.",
"+.+.+.+.+.+.+.+.+.+.+.+.+.+.+ q E _ _ _ ` ! i 5 5 2 : . o o . + o + 3 5 5 i ! _ ` ` / ^ ! V 5 . +.+.+.+.+.+.+.+.+.+.+.+.",
"+.+.+.+.+.+.+.+.+.+.+.+.+.+.+ q E ` _ _ _ / ! E E B 3 + + . + . . 3 V W E ! ^ _ _ _ _ ! i 5 +.+.+.+.+.+.+.+.+.+.+.+.+.+.",
"+.+.+.+.+.+.+.+.+.+.+.+.+.+.. 5 V ! ^ _ _ _ ` ` ` W q . + o : . : q W ` ` ` _ _ _ _ ` E 3 + +.+.+.+.+.+.+.+.+.+.+.+.+.+.",
"+.+.+.+.+.+.+.+.+.+.+.+.+.+.+.+.3 i ! _ ` _ _ ` ` W q + +.+.+ . . q W ` ` ` _ ` _ ` ` E 5 + +.+.+.+.+.+.+.+.+.+.+.+.+.+.",
"+.+.+.+.+.+.+.+.+.+.+.+.+.+.+.+.. 5 V E E E E E W B 3 o +.+.+ + . 3 B W W W A E E E E V 5 . +.+.+.+.+.+.+.+.+.+.+.+.+.+.",
"+.+.+.+.+.+.+.+.+.+.+.+.+.+.+.+.+.+.5 q q q q 5 q 3 @ + +.+.+ + + @ 3 4 q q q q q q q 5 +.+.+.+.+.+.+.+.+.+.+.+.+.+.+.+.",
"+.+.+.+.+.+.+.+.+.+.+.+.+.+.+.+.+.+.. . . . + + . + + + +.+.+ + + o . . : : . . . : . o +.+.+.+.+.+.+.+.+.+.+.+.+.+.+.+.",
"+.+.+.+.+.+.+.+.+.+.+.+.+.+.+.+.+ + + . o . + + + + + + +.+.+ + + + o . + . + . + + o + +.+.+.+.+.+.+.+.+.+.+.+.+.+.+.+.",
"+.+.+.+.+.+.+.+.+.+.+.+.+.+.+.+.+ + + + + + + + + + + + +.+.+ + + + + + + + + + + + + + +.+.+.+.+.+.+.+.+.+.+.+.+.+.+.+.",
"+.+.+.+.+.+.+.+.+.+.+.+.+.+.+ + + + + + + : + + + + + + +.+.+ + + + + + + + + + + + + + + + +.+.+.+.+.+.+.+.+.+.+.+.+.+.",
"+.+.+.+.+.+.+.+.+.+.+.+.+.+.. + + + + + + + + + + . + + +.+.+ + + + + + + + + : + + + + + + +.+.+.+.+.+.+.+.+.+.+.+.+.+.",
"+.+.+.+.+.+.+.+.+.+.+.+.+.+.+ + + + + + + + + + +.+.+.+.+.+.+.+.+.+.+.+.+ + + + + + + + + + +.+.+.+.+.+.+.+.+.+.+.+.+.+.",
"+.+.+.+.+.+.+.+.+.+.+.+.+.+.+ + + + + + + + + + +.+.+.+.+.+.+.+.+.+.+.+.+ + + + + + + + + + +.+.+.+.+.+.+.+.+.+.+.+.+.+."
};
