/* XPM */
static char *idle1739289688[] = {
/* columns rows colors chars-per-pixel */
"30 43 31 1 ",
"  c black",
". c #010000",
"X c #000100",
"o c #000001",
"O c #010001",
"+ c #3C120E",
"@ c #3D120E",
"# c #3C130E",
"$ c #3D130E",
"% c #3C120F",
"& c #3D120F",
"* c #3D130F",
"= c #FEC80E",
"- c #FFC80E",
"; c #FEC90E",
": c #FFC90E",
"> c #FFC80F",
", c #FFC90F",
"< c #E606F8",
"1 c #E706F8",
"2 c #E607F8",
"3 c #E707F8",
"4 c #E606F9",
"5 c #E607F9",
"6 c #66A4E0",
"7 c #67A4E0",
"8 c #66A5E0",
"9 c #67A5E0",
"0 c #66A4E1",
"q c #67A4E1",
"w c None",
/* pixels */
"wwwwwwww&&@$+&@@@@@@@@wwwwwwww",
"wwwwww$$@@@@@@&@@@@@@@$$wwwwww",
"wwwww&$$$&@@@@@&$$+@@+@@$wwwww",
"wwwww&$$$+@@@@$$&@+@@+@@$$wwww",
"wwww$$&&@@@@$$$$+&@@@@@+&&&&ww",
"wwww$$&&&+@@$$$$@@@&@@@@@&&&ww",
"ww@@@@&$&&&&$&##@$&@@$$&@@$&$w",
"w$&$@&@&=&&&+&*:@$&@@@+$+@$$$w",
"w$$$$$$---$$##-:$$$#-$$$+@@@@w",
"w$%$$$-----$#----$$:-$$$@@@@@w",
"w&$&$$::::--::::--:---$$+$$@$$",
"$$&$$$:-:::::-::-------$$=&@$$",
"$$@++@--::-:::::-::::::$--@@&&",
"&$&&@@--XXX:::::-XXX-:::-@@@&&",
"&&&$&==--::,::,:::--::--@@@@$&",
"&&&++=---:::::,::::::---@@@@&&",
"@@@@$--=::-,XXX-::::==-$$$@@@@",
"@@@&$$-=:-:,----::-:=$$$&&@&@&",
"&@&&$$&=::-:::,-:-::&&$%@@@$$$",
"w@&$$$&&$::,::,-:-$$&&&$@@@$$w",
"w$$+$$$&$-,-===-::$$$$$$$$$$&w",
"wwwww$$$$$$#$=---$$$%%$$$$wwww",
"wwwwwww$%$$$$===:$$$$$$wwwwwww",
"wwwwwwwwwwww$===-$wwwwwwwwwwww",
"wwwwwwww%++$$$&+&&$$$$$wwwwwww",
"wwwwwww$77$7$$&$$$77$q7$wwwwww",
"wwwwww$77+777$+$&77qq$66$wwwww",
"wwwww$77%7777777776776+67$wwww",
"wwww$77$227777777777611$66&&ww",
"wwww$77$222222221111112$76&$ww",
"wwww$77$771222222211166&67$$ww",
"wwww$77$228777777777611&67$$ww",
"wwww$$$$111222211111221$$$$$ww",
"wwww$==$771122221111266$-=&$ww",
"wwwww$%$%777777776676+$$$$wwww",
"wwwwwww%7%%%$%%*&&&&+66$wwwwww",
"wwwwwww$777777777767777$wwwwww",
"wwwwwww$777777$%767777$wwwwwww",
"wwwwwwww%7777$w$$67777$wwwwwww",
"wwwwwwwww%$%$$w$&&$$$$wwwwwwww",
"wwwwwwww%$$$&&w$+$$&&&wwwwwwww",
"wwwwwww$$$$&&&w$$$$$+&$wwwwwww",
"wwwwwww$$&&&wwwwww$$&&&wwwwwww"
};
