/* XPM */
static char *result[] = {
/* columns rows colors chars-per-pixel */
"60 60 9 1 ",
"  c #0066D0",
". c #0166D0",
"X c #0067D0",
"o c #0167D0",
"O c #0066D1",
"+ c #0166D1",
"@ c #0067D1",
"# c #0167D1",
"$ c None",
/* pixels */
"$$$$$$$$$$$$$$$$$$$$$$$$$$$$$$$$$$$$$$$$$$$$$$$$$$$$$$$$$$$$",
"$$$$$$$$$$$$$$$$$$$$$$$$$$$$$$$$$$$$$$$$$$$$$$$$$$$$$$$$$$$$",
"$$$$$$$$$$$$$$$$$$$$$$$$$$$$$$$$$$$$$$$$$$$$$$$$$$$$$$$$$$$$",
"$$$$$$$$$$$$$$$$$$$$$$$$$$$$$$$$$$$$$$$$$$$$$$$$$$$$$$$$$$$$",
"$$$$$$$$$$$$$$$$$$$$$$$$$$$$$$$$$$$$$$$$$$$$$$$$$$$$$$$$$$$$",
"$$$$$$$$$$$$$$$$$$$$$$$$$$$$$$$$$$$$$$$$$$$$$$$$$$$$$$$$$$$$",
"$$$$$$$$$$$$@@@@@@######++++++###@##oooooooooooo$$$$$$$$$$$$",
"$$$$$$$$$$$$@@@@@@###@##+++++.######oo#ooooooooo$$$$$$$$$$$$",
"$$$$$$$$$$$$@@X@@@######++++++######ooooooXooooo$$$$$$$$$$$$",
"$$$$$$$$$$$$@@@@O@######+#++++######oooooooooooo$$$$$$$$$$$$",
"$$$$$$$$$$$$@@@@@@###@##+#++++#+####oooooooooo.o$$$$$$$$$$$$",
"$$$$$$$$$$$$@@@@@X######++++++######ooooooXooXoo$$$$$$$$$$$$",
"$$$$$$++++++$$$$$$$$$$$$$$$$$$$$$$$$$$$$$$$$$$$$oooXoo$$$$$$",
"$$$$$$+++O++$$$$$$$$$$$$$$$$$$$$$$$$$$$$$$$$$$$$oooooo$$$$$$",
"$$$$$$++++++$$$$$$$$$$$$$$$$$$$$$$$$$$$$$$$$$$$$oooooo$$$$$$",
"$$$$$$++++++$$$$$$$$$$$$$$$$$$$$$$$$$$$$$$$$$$$$oo#ooo$$$$$$",
"$$$$$$++++++$$$$$$$$$$$$$$$$$$$$$$$$$$$$$$$$$$$$oooooo$$$$$$",
"$$$$$$++++++$$$$$$$$$$$$$$$$$$$$$$$$$$$$$$$$$$$$oooooo$$$$$$",
"$$$$$$OOOOOO$$$$$$$$$$$$$$$$$$$$$$$$$$$$$$$$$$$$..+...$$$$$$",
"$$$$$$OOOOOO$$$$$$$$$$$$$$$$$$$$$$$$$$$$$$$$$$$$......$$$$$$",
"$$$$$$OOOOOO$$$$$$$$$$$$$$$$$$$$$$$$$$$$$$$$$$$$..+...$$$$$$",
"$$$$$$OO OOO$$$$$$$$$$$$$$$$$$$$$$$$$$$$$$$$$$$$..+...$$$$$$",
"$$$$$$OOOOOO$$$$$$$$$$$$$$$$$$$$$$$$$$$$$$$$$$$$.....+$$$$$$",
"$$$$$$OOOOOO$$$$$$$$$$$$$$$$$$$$$$$$$$$$$$$$$$$$......$$$$$$",
"$$$$$$$$$$$$oooooo..+...OOOOOO..+...XXXXXXOOOOOO$$$$$$$$$$$$",
"$$$$$$$$$$$$oo#Xoo....o.OOOOOO......XXXXXXOOOOOO$$$$$$$$$$$$",
"$$$$$$$$$$$$oooooo......O@OOOO.....+XXXXXXOOO+OO$$$$$$$$$$$$",
"$$$$$$$$$$$$oooooo......OOOOOO..+.o.XXXXXXO@OOOO$$$$$$$$$$$$",
"$$$$$$$$$$$$ooooo#......O@OOOO......XXXXXXOOOOOO$$$$$$$$$$$$",
"$$$$$$$$$$$$oooo.o.o...+OOOOOO......XXXXXXOO OOO$$$$$$$$$$$$",
"$$$$$$@@@@@@$$$$$$$$$$$$$$$$$$$$$$$$$$$$$$$$$$$$######$$$$$$",
"$$$$$$@@@@@@$$$$$$$$$$$$$$$$$$$$$$$$$$$$$$$$$$$$######$$$$$$",
"$$$$$$@@@@@@$$$$$$$$$$$$$$$$$$$$$$$$$$$$$$$$$$$$######$$$$$$",
"$$$$$$@@@@@@$$$$$$$$$$$$$$$$$$$$$$$$$$$$$$$$$$$$######$$$$$$",
"$$$$$$@@@@@@$$$$$$$$$$$$$$$$$$$$$$$$$$$$$$$$$$$$######$$$$$$",
"$$$$$$@@@@@@$$$$$$$$$$$$$$$$$$$$$$$$$$$$$$$$$$$$##o###$$$$$$",
"$$$$$$++++++$$$$$$$$$$$$$$$$$$$$$$$$$$$$$$$$$$$$+++++.$$$$$$",
"$$$$$$+#++++$$$$$$$$$$$$$$$$$$$$$$$$$$$$$$$$$$$$++++++$$$$$$",
"$$$$$$++++++$$$$$$$$$$$$$$$$$$$$$$$$$$$$$$$$$$$$++++++$$$$$$",
"$$$$$$++++++$$$$$$$$$$$$$$$$$$$$$$$$$$$$$$$$$$$$++.+++$$$$$$",
"$$$$$$++++#+$$$$$$$$$$$$$$$$$$$$$$$$$$$$$$$$$$$$++++++$$$$$$",
"$$$$$$++++++$$$$$$$$$$$$$$$$$$$$$$$$$$$$$$$$$$$$++++++$$$$$$",
"$$$$$$@@@@@@$$$$$$$$$$$$$$$$$$$$$$$$$$$$$$$$$$$$@@@@@@$$$$$$",
"$$$$$$@@@@@@$$$$$$$$$$$$$$$$$$$$$$$$$$$$$$$$$$$$@@@@@@$$$$$$",
"$$$$$$@@@@@@$$$$$$$$$$$$$$$$$$$$$$$$$$$$$$$$$$$$@O@@O@$$$$$$",
"$$$$$$@@@@@@$$$$$$$$$$$$$$$$$$$$$$$$$$$$$$$$$$$$@@@@@@$$$$$$",
"$$$$$$@@@@@@$$$$$$$$$$$$$$$$$$$$$$$$$$$$$$$$$$$$@@X@@@$$$$$$",
"$$$$$$@@@@@@$$$$$$$$$$$$$$$$$$$$$$$$$$$$$$$$$$$$@@X@@@$$$$$$",
"$$$$$$$$$$$$@@@#@@.     #####oOOOO@OOO OO oooooo$$$$$$$$$$$$",
"$$$$$$$$$$$$@@@@O@      ######+OOOOOOOOOOOoooooo$$$$$$$$$$$$",
"$$$$$$$$$$$$@O@@O@      #####o+OOOOO+OOOOOoooooo$$$$$$$$$$$$",
"$$$$$$$$$$$$@@X@@@    X ##o@##OOOOOOOOOOOOoooooo$$$$$$$$$$$$",
"$$$$$$$$$$$$@@@@@@  O.  ######OOOOOOOOOOOOoooooo$$$$$$$$$$$$",
"$$$$$$$$$$$$@@X#@@      ######OOOOOOOO OOOoooooo$$$$$$$$$$$$",
"$$$$$$$$$$$$$$$$$$$$$$$$$$$$$$$$$$$$$$$$$$$$$$$$$$$$$$$$$$$$",
"$$$$$$$$$$$$$$$$$$$$$$$$$$$$$$$$$$$$$$$$$$$$$$$$$$$$$$$$$$$$",
"$$$$$$$$$$$$$$$$$$$$$$$$$$$$$$$$$$$$$$$$$$$$$$$$$$$$$$$$$$$$",
"$$$$$$$$$$$$$$$$$$$$$$$$$$$$$$$$$$$$$$$$$$$$$$$$$$$$$$$$$$$$",
"$$$$$$$$$$$$$$$$$$$$$$$$$$$$$$$$$$$$$$$$$$$$$$$$$$$$$$$$$$$$",
"$$$$$$$$$$$$$$$$$$$$$$$$$$$$$$$$$$$$$$$$$$$$$$$$$$$$$$$$$$$$"
};
