/* XPM */
static char *result[] = {
/* columns rows colors chars-per-pixel */
"60 60 9 1 ",
"  c #6AB4FE",
". c #6BB4FE",
"X c #6AB5FE",
"o c #6BB5FE",
"O c #6AB4FF",
"+ c #6BB4FF",
"@ c #6AB5FF",
"# c #6BB5FF",
"$ c None",
/* pixels */
"$$$$$$$$$$$$$$$$$$$$$$$$$$$$$$$$$$$$$$$$$$$$$$$$$$$$$$$$$$$$",
"$$$$$$$$$$$$$$$$$$$$$$$$$$$$$$$$$$$$$$$$$$$$$$$$$$$$$$$$$$$$",
"$$$$$$$$$$$$$$$$$$$$$$$$$$$$$$$$$$$$$$$$$$$$$$$$$$$$$$$$$$$$",
"$$$$$$$$$$$$$$$$$$$$$$$$$$$$$$$$$$$$$$$$$$$$$$$$$$$$$$$$$$$$",
"$$$$$$$$$$$$$$$$$$$$$$$$$$$$$$$$$$$$$$$$$$$$$$$$$$$$$$$$$$$$",
"$$$$$$$$$$$$$$$$$$$$$$$$$$$$$$$$$$$$$$$$$$$$$$$$$$$$$$$$$$$$",
"$$$$$$$$$$$$$$$$$$$$$$$$$$$$$$..+...###@##$$$$$$$$$$$$$$$$$$",
"$$$$$$$$$$$$$$$$$$$$$$$$$$$$$$......###@#o$$$$$$$$$$$$$$$$$$",
"$$$$$$$$$$$$$$$$$$$$$$$$$$$$$$......######$$$$$$$$$$$$$$$$$$",
"$$$$$$$$$$$$$$$$$$$$$$$$$$$$$$......######$$$$$$$$$$$$$$$$$$",
"$$$$$$$$$$$$$$$$$$$$$$$$$$$$$$......######$$$$$$$$$$$$$$$$$$",
"$$$$$$$$$$$$$$$$$$$$$$$$$$$$$$....o.######$$$$$$$$$$$$$$$$$$",
"$$$$$$$$$$$$$$$$$$$$$$$$XXXXX@$$$$$$.  .  $$$$$$$$$$$$$$$$$$",
"$$$$$$$$$$$$$$$$$$$$$$$$XXXXXX$$$$$$      $$$$$$$$$$$$$$$$$$",
"$$$$$$$$$$$$$$$$$$$$$$$$XXXXXX$$$$$$   .  $$$$$$$$$$$$$$$$$$",
"$$$$$$$$$$$$$$$$$$$$$$$$XXXX X$$$$$$     O$$$$$$$$$$$$$$$$$$",
"$$$$$$$$$$$$$$$$$$$$$$$$XXXoXX$$$$$$      $$$$$$$$$$$$$$$$$$",
"$$$$$$$$$$$$$$$$$$$$$$$$oXXXXX$$$$$$      $$$$$$$$$$$$$$$$$$",
"$$$$$$$$$$$$$$$$$$OOOO@O$$$$$$$$$$$$oo#ooo$$$$$$$$$$$$$$$$$$",
"$$$$$$$$$$$$$$$$$$OOOOOO$$$$$$$$$$$$oooooo$$$$$$$$$$$$$$$$$$",
"$$$$$$$$$$$$$$$$$$O@OOOO$$$$$$$$$$$$oooooo$$$$$$$$$$$$$$$$$$",
"$$$$$$$$$$$$$$$$$$OOOO@O$$$$$$$$$$$$oooooo$$$$$$$$$$$$$$$$$$",
"$$$$$$$$$$$$$$$$$$OO OOO$$$$$$$$$$$$Xooooo$$$$$$$$$$$$$$$$$$",
"$$$$$$$$$$$$$$$$$$OOOOOO$$$$$$$$$$$$oooXoo$$$$$$$$$$$$$$$$$$",
"$$$$$$$$$$$$++++++$$$$$$$$$$$$$$$$$$XXXXXX$$$$$$$$$$$$$$$$$$",
"$$$$$$$$$$$$++++++$$$$$$$$$$$$$$$$$$XXXXX@$$$$$$$$$$$$$$$$$$",
"$$$$$$$$$$$$++++++$$$$$$$$$$$$$$$$$$XXXX X$$$$$$$$$$$$$$$$$$",
"$$$$$$$$$$$$++++++$$$$$$$$$$$$$$$$$$XXXXX@$$$$$$$$$$$$$$$$$$",
"$$$$$$$$$$$$++.+++$$$$$$$$$$$$$$$$$$XXXXXX$$$$$$$$$$$$$$$$$$",
"$$$$$$$$$$$$++++#+$$$$$$$$$$$$$$$$$$XXXXXX$$$$$$$$$$$$$$$$$$",
"$$$$$$######OOOOOOOOOOOO X    +#++++OOOOOO++++++######$$$$$$",
"$$$$$$@#####OOOOOOOOOOOO     O+#++++OO OOO++++++######$$$$$$",
"$$$$$$######OOOO@ OOOOOO     O++++++OOOOOO++++++######$$$$$$",
"$$$$$$######OOOOOOOOOOOO      ++++++OOOOOO++++++##o##o$$$$$$",
"$$$$$$######OOOOOOOOOOOO      ++++++OOOOOO++++++######$$$$$$",
"$$$$$$######OOOO@ OOOOOO      ++++++OOOOOO+#++++###@##$$$$$$",
"$$$$$$$$$$$$$$$$$$$$$$$$$$$$$$$$$$$$......$$$$$$$$$$$$$$$$$$",
"$$$$$$$$$$$$$$$$$$$$$$$$$$$$$$$$$$$$......$$$$$$$$$$$$$$$$$$",
"$$$$$$$$$$$$$$$$$$$$$$$$$$$$$$$$$$$$.o....$$$$$$$$$$$$$$$$$$",
"$$$$$$$$$$$$$$$$$$$$$$$$$$$$$$$$$$$$... ..$$$$$$$$$$$$$$$$$$",
"$$$$$$$$$$$$$$$$$$$$$$$$$$$$$$$$$$$$..+...$$$$$$$$$$$$$$$$$$",
"$$$$$$$$$$$$$$$$$$$$$$$$$$$$$$$$$$$$......$$$$$$$$$$$$$$$$$$",
"$$$$$$$$$$$$$$$$$$$$$$$$$$$$$$$$$$$$OOOOOO$$$$$$$$$$$$$$$$$$",
"$$$$$$$$$$$$$$$$$$$$$$$$$$$$$$$$$$$$OOOOOO$$$$$$$$$$$$$$$$$$",
"$$$$$$$$$$$$$$$$$$$$$$$$$$$$$$$$$$$$OOOOOO$$$$$$$$$$$$$$$$$$",
"$$$$$$$$$$$$$$$$$$$$$$$$$$$$$$$$$$$$OOOOOO$$$$$$$$$$$$$$$$$$",
"$$$$$$$$$$$$$$$$$$$$$$$$$$$$$$$$$$$$OOOOOO$$$$$$$$$$$$$$$$$$",
"$$$$$$$$$$$$$$$$$$$$$$$$$$$$$$$$$$$$OOOOOO$$$$$$$$$$$$$$$$$$",
"$$$$$$$$$$$$$$$$$$$$$$$$$$$$$$$$$$$$######$$$$$$$$$$$$$$$$$$",
"$$$$$$$$$$$$$$$$$$$$$$$$$$$$$$$$$$$$@#####$$$$$$$$$$$$$$$$$$",
"$$$$$$$$$$$$$$$$$$$$$$$$$$$$$$$$$$$$##o@##$$$$$$$$$$$$$$$$$$",
"$$$$$$$$$$$$$$$$$$$$$$$$$$$$$$$$$$$$######$$$$$$$$$$$$$$$$$$",
"$$$$$$$$$$$$$$$$$$$$$$$$$$$$$$$$$$$$######$$$$$$$$$$$$$$$$$$",
"$$$$$$$$$$$$$$$$$$$$$$$$$$$$$$$$$$$$######$$$$$$$$$$$$$$$$$$",
"$$$$$$$$$$$$$$$$$$$$$$$$$$$$$$$$$$$$$$$$$$$$$$$$$$$$$$$$$$$$",
"$$$$$$$$$$$$$$$$$$$$$$$$$$$$$$$$$$$$$$$$$$$$$$$$$$$$$$$$$$$$",
"$$$$$$$$$$$$$$$$$$$$$$$$$$$$$$$$$$$$$$$$$$$$$$$$$$$$$$$$$$$$",
"$$$$$$$$$$$$$$$$$$$$$$$$$$$$$$$$$$$$$$$$$$$$$$$$$$$$$$$$$$$$",
"$$$$$$$$$$$$$$$$$$$$$$$$$$$$$$$$$$$$$$$$$$$$$$$$$$$$$$$$$$$$",
"$$$$$$$$$$$$$$$$$$$$$$$$$$$$$$$$$$$$$$$$$$$$$$$$$$$$$$$$$$$$"
};
