/* XPM */
static char *result[] = {
/* columns rows colors chars-per-pixel */
"60 60 9 1 ",
"  c #004288",
". c #014288",
"X c #004388",
"o c #014388",
"O c #004289",
"+ c #014289",
"@ c #004389",
"# c #014389",
"$ c None",
/* pixels */
"$$$$$$$$$$$$$$$$$$$$$$$$$$$$$$$$$$$$$$$$$$$$$$$$$$$$$$$$$$$$",
"$$$$$$$$$$$$$$$$$$$$$$$$$$$$$$$$$$$$$$$$$$$$$$$$$$$$$$$$$$$$",
"$$$$$$$$$$$$$$$$$$$$$$$$$$$$$$$$$$$$$$$$$$$$$$$$$$$$$$$$$$$$",
"$$$$$$$$$$$$$$$$$$$$$$$$$$$$$$$$$$$$$$$$$$$$$$$$$$$$$$$$$$$$",
"$$$$$$$$$$$$$$$$$$$$$$$$$$$$$$$$$$$$$$$$$$$$$$$$$$$$$$$$$$$$",
"$$$$$$$$$$$$$$$$$$$$$$$$$$$$$$$$$$$$$$$$$$$$$$$$$$$$$$$$$$$$",
"$$$$$$$$$$$$$$$$$$ooooooXXXXXX      ###### X    $$$$$$$$$$$$",
"$$$$$$$$$$$$$$$$$$XoooooXXXXXX      ###@##   .X $$$$$$$$$$$$",
"$$$$$$$$$$$$$$$$$$ooooooXXXXXX  O   #####o      $$$$$$$$$$$$",
"$$$$$$$$$$$$$$$$$$ooooooXXXXXX      ###@+#      $$$$$$$$$$$$",
"$$$$$$$$$$$$$$$$$$o.ooo#XXXXXX      ######.     $$$$$$$$$$$$",
"$$$$$$$$$$$$$$$$$$ooooooXXXXXX     O######      $$$$$$$$$$$$",
"$$$$$$$$$$$$XXXXXX$$$$$$$$$$$$$$$$$$$$$$$$@@@@@@$$$$$$$$$$$$",
"$$$$$$$$$$$$XXXXXX$$$$$$$$$$$$$$$$$$$$$$$$@@@@@@$$$$$$$$$$$$",
"$$$$$$$$$$$$XXXXXX$$$$$$$$$$$$$$$$$$$$$$$$@@@@O@$$$$$$$$$$$$",
"$$$$$$$$$$$$XX@XXX$$$$$$$$$$$$$$$$$$$$$$$$@@@@@@$$$$$$$$$$$$",
"$$$$$$$$$$$$XXXXXX$$$$$$$$$$$$$$$$$$$$$$$$@@@@@@$$$$$$$$$$$$",
"$$$$$$$$$$$$XXXXXX$$$$$$$$$$$$$$$$$$$$$$$$@@X@@X$$$$$$$$$$$$",
"$$$$$$$$$$$$XXXXXX$$$$$$$$$$$$$$$$$$$$$$$$######$$$$$$$$$$$$",
"$$$$$$$$$$$$XXXXXX$$$$$$$$$$$$$$$$$$$$$$$$######$$$$$$$$$$$$",
"$$$$$$$$$$$$XXXXXX$$$$$$$$$$$$$$$$$$$$$$$$#####o$$$$$$$$$$$$",
"$$$$$$$$$$$$XXXXXX$$$$$$$$$$$$$$$$$$$$$$$$######$$$$$$$$$$$$",
"$$$$$$$$$$$$oXXoXX$$$$$$$$$$$$$$$$$$$$$$$$######$$$$$$$$$$$$",
"$$$$$$$$$$$$XXXXXX$$$$$$$$$$$$$$$$$$$$$$$$###@##$$$$$$$$$$$$",
"$$$$$$$$$$$$   .  $$$$$$$$$$$$$$$$$$$$$$$$      $$$$$$$$$$$$",
"$$$$$$$$$$$$      $$$$$$$$$$$$$$$$$$$$$$$$      $$$$$$$$$$$$",
"$$$$$$$$$$$$      $$$$$$$$$$$$$$$$$$$$$$$$      $$$$$$$$$$$$",
"$$$$$$$$$$$$      $$$$$$$$$$$$$$$$$$$$$$$$      $$$$$$$$$$$$",
"$$$$$$$$$$$$   .  $$$$$$$$$$$$$$$$$$$$$$$$      $$$$$$$$$$$$",
"$$$$$$$$$$$$      $$$$$$$$$$$$$$$$$$$$$$$$      $$$$$$$$$$$$",
"$$$$$$$$$$$$$$$$$$ X    oXXXXX       .....###@##$$$$$$$$$$$$",
"$$$$$$$$$$$$$$$$$$      XXXXXX      ......######$$$$$$$$$$$$",
"$$$$$$$$$$$$$$$$$$      XXXXX@     O......######$$$$$$$$$$$$",
"$$$$$$$$$$$$$$$$$$      XXXXXX      ......######$$$$$$$$$$$$",
"$$$$$$$$$$$$$$$$$$  O   XXXXXX      .....+######$$$$$$$$$$$$",
"$$$$$$$$$$$$$$$$$$      oXXXXX X  X ......#####o$$$$$$$$$$$$",
"$$$$$$$$$$$$$$$$$$$$$$$$$$$$$$$$$$$$$$$$$$X XXXX$$$$$$$$$$$$",
"$$$$$$$$$$$$$$$$$$$$$$$$$$$$$$$$$$$$$$$$$$XXXXXX$$$$$$$$$$$$",
"$$$$$$$$$$$$$$$$$$$$$$$$$$$$$$$$$$$$$$$$$$XXXXXX$$$$$$$$$$$$",
"$$$$$$$$$$$$$$$$$$$$$$$$$$$$$$$$$$$$$$$$$$XXXoXX$$$$$$$$$$$$",
"$$$$$$$$$$$$$$$$$$$$$$$$$$$$$$$$$$$$$$$$$$XXXXXX$$$$$$$$$$$$",
"$$$$$$$$$$$$$$$$$$$$$$$$$$$$$$$$$$$$$$$$$$X XXXX$$$$$$$$$$$$",
"$$$$$$$$$$$$$$$$$$$$$$$$$$$$$$$$$$$$$$$$$$OO OO $$$$$$$$$$$$",
"$$$$$$$$$$$$$$$$$$$$$$$$$$$$$$$$$$$$$$$$$$OOOOOO$$$$$$$$$$$$",
"$$$$$$$$$$$$$$$$$$$$$$$$$$$$$$$$$$$$$$$$$$OOOOOO$$$$$$$$$$$$",
"$$$$$$$$$$$$$$$$$$$$$$$$$$$$$$$$$$$$$$$$$$OOOOOO$$$$$$$$$$$$",
"$$$$$$$$$$$$$$$$$$$$$$$$$$$$$$$$$$$$$$$$$$OOOOOO$$$$$$$$$$$$",
"$$$$$$$$$$$$$$$$$$$$$$$$$$$$$$$$$$$$$$$$$$OOOOOO$$$$$$$$$$$$",
"$$$$$$$$$$$$$$$$$$$$$$$$$$$$$$$$$$$$$$$$$$XXXXXX$$$$$$$$$$$$",
"$$$$$$$$$$$$$$$$$$$$$$$$$$$$$$$$$$$$$$$$$$XXXXX@$$$$$$$$$$$$",
"$$$$$$$$$$$$$$$$$$$$$$$$$$$$$$$$$$$$$$$$$$XXXXXX$$$$$$$$$$$$",
"$$$$$$$$$$$$$$$$$$$$$$$$$$$$$$$$$$$$$$$$$$XXXoXX$$$$$$$$$$$$",
"$$$$$$$$$$$$$$$$$$$$$$$$$$$$$$$$$$$$$$$$$$XXXXXX$$$$$$$$$$$$",
"$$$$$$$$$$$$$$$$$$$$$$$$$$$$$$$$$$$$$$$$$$XXXXXX$$$$$$$$$$$$",
"$$$$$$$$$$$$$$$$$$$$$$$$$$$$$$$$$$$$$$$$$$$$$$$$$$$$$$$$$$$$",
"$$$$$$$$$$$$$$$$$$$$$$$$$$$$$$$$$$$$$$$$$$$$$$$$$$$$$$$$$$$$",
"$$$$$$$$$$$$$$$$$$$$$$$$$$$$$$$$$$$$$$$$$$$$$$$$$$$$$$$$$$$$",
"$$$$$$$$$$$$$$$$$$$$$$$$$$$$$$$$$$$$$$$$$$$$$$$$$$$$$$$$$$$$",
"$$$$$$$$$$$$$$$$$$$$$$$$$$$$$$$$$$$$$$$$$$$$$$$$$$$$$$$$$$$$",
"$$$$$$$$$$$$$$$$$$$$$$$$$$$$$$$$$$$$$$$$$$$$$$$$$$$$$$$$$$$$"
};
