/* XPM */
static char *result[] = {
/* columns rows colors chars-per-pixel */
"60 60 8 1 ",
"  c #FEFEFE",
". c #FFFEFE",
"X c #FEFFFE",
"o c #FFFFFE",
"O c #FFFEFF",
"+ c #FEFFFF",
"@ c white",
"# c None",
/* pixels */
"############################################################",
"############################################################",
"############################################################",
"############################################################",
"############################################################",
"############################################################",
"##############################++++++########################",
"##############################++++++########################",
"##############################++++++########################",
"##############################++++++########################",
"##############################+++++X########################",
"##############################++++++########################",
"########################.....OXXXXXX########################",
"########################......XXXXXX########################",
"########################......oXXXXX########################",
"########################......XXXXXX########################",
"########################......XXXoXX########################",
"########################......XXXXXX########################",
"##################......######OOOOOO########################",
"##################......######OOOOOO########################",
"##################......######OOOOOO########################",
"##################......######OOOOOO########################",
"##################... ..######OOOOOO########################",
"##################......######OOOOOO########################",
"##############################XXXXXX########################",
"##############################XXXXXX########################",
"##############################XXXXXX########################",
"##############################XXXXXX########################",
"##############################XXXXXX########################",
"##############################XXXoXX########################",
"##############################......########################",
"##############################......########################",
"##############################......########################",
"##############################......########################",
"##############################......########################",
"##############################..O...########################",
"##############################@@o@@@########################",
"##############################@@@@@@########################",
"##############################@O@@@@########################",
"##############################@@@@@@########################",
"##############################@@@@@@########################",
"##############################@@@@@@########################",
"##############################......########################",
"##############################....o.########################",
"##############################......########################",
"##############################.....O########################",
"##############################..O...########################",
"##############################......########################",
"##############################@@@+@@########################",
"##############################@@@@@@########################",
"##############################@@@@@o########################",
"##############################@@@+@@########################",
"##############################@@@@@@########################",
"##############################@@@+@@########################",
"############################################################",
"############################################################",
"############################################################",
"############################################################",
"############################################################",
"############################################################"
};
