/* XPM */
static char *result[] = {
/* columns rows colors chars-per-pixel */
"60 60 5 1 ",
"  c #FFFFFE",
". c #FFFEFF",
"X c #FEFFFF",
"o c white",
"O c None",
/* pixels */
"OOOOOOOOOOOOOOOOOOOOOOOOOOOOOOOOOOOOOOOOOOOOOOOOOOOOOOOOOOOO",
"OOOOOOOOOOOOOOOOOOOOOOOOOOOOOOOOOOOOOOOOOOOOOOOOOOOOOOOOOOOO",
"OOOOOOOOOOOOOOOOOOOOOOOOOOOOOOOOOOOOOOOOOOOOOOOOOOOOOOOOOOOO",
"OOOOOOOOOOOOOOOOOOOOOOOOOOOOOOOOOOOOOOOOOOOOOOOOOOOOOOOOOOOO",
"OOOOOOOOOOOOOOOOOOOOOOOOOOOOOOOOOOOOOOOOOOOOOOOOOOOOOOOOOOOO",
"OOOOOOOOOOOOOOOOOOOOOOOOOOOOOOOOOOOOOOOOOOOOOOOOOOOOOOOOOOOO",
"OOOOOOOOOOOOOOOOOOOOOOOOOOOOOOOOOOOOOOOOOOOOOOOOOOOOOOOOOOOO",
"OOOOOOOOOOOOOOOOOOOOOOOOOOOOOOOOOOOOOOOOOOOOOOOOOOOOOOOOOOOO",
"OOOOOOOOOOOOOOOOOOOOOOOOOOOOOOOOOOOOOOOOOOOOOOOOOOOOOOOOOOOO",
"OOOOOOOOOOOOOOOOOOOOOOOOOOOOOOOOOOOOOOOOOOOOOOOOOOOOOOOOOOOO",
"OOOOOOOOOOOOOOOOOOOOOOOOOOOOOOOOOOOOOOOOOOOOOOOOOOOOOOOOOOOO",
"OOOOOOOOOOOOOOOOOOOOOOOOOOOOOOOOOOOOOOOOOOOOOOOOOOOOOOOOOOOO",
"OOOOOOOOOOOOOOOOOOOOOOOOOOOOOOOOOOOOOOOOOOOOOOOOOOOOOOOOOOOO",
"OOOOOOOOOOOOOOOOOOOOOOOOOOOOOOOOOOOOOOOOOOOOOOOOOOOOOOOOOOOO",
"OOOOOOOOOOOOOOOOOOOOOOOOOOOOOOOOOOOOOOOOOOOOOOOOOOOOOOOOOOOO",
"OOOOOOOOOOOOOOOOOOOOOOOOOOOOOOOOOOOOOOOOOOOOOOOOOOOOOOOOOOOO",
"OOOOOOOOOOOOOOOOOOOOOOOOOOOOOOOOOOOOOOOOOOOOOOOOOOOOOOOOOOOO",
"OOOOOOOOOOOOOOOOOOOOOOOOOOOOOOOOOOOOOOOOOOOOOOOOOOOOOOOOOOOO",
"OOOOOOOOOOOOOOOOOOOOOOOOOOOOOOOOOOOOOOOOOOOOOOOOOOOOOOOOOOOO",
"OOOOOOOOOOOOOOOOOOOOOOOOOOOOOOOOOOOOOOOOOOOOOOOOOOOOOOOOOOOO",
"OOOOOOOOOOOOOOOOOOOOOOOOOOOOOOOOOOOOOOOOOOOOOOOOOOOOOOOOOOOO",
"OOOOOOOOOOOOOOOOOOOOOOOOOOOOOOOOOOOOOOOOOOOOOOOOOOOOOOOOOOOO",
"OOOOOOOOOOOOOOOOOOOOOOOOOOOOOOOOOOOOOOOOOOOOOOOOOOOOOOOOOOOO",
"OOOOOOOOOOOOOOOOOOOOOOOOOOOOOOOOOOOOOOOOOOOOOOOOOOOOOOOOOOOO",
"oooooooo oooooooooOOOOOOOOOOOOOOOOOOOOOOOOOOOOOOOOOOOOOOOOOO",
"oooooooooooooo oooOOOOOOOOOOOOOOOOOOOOOOOOOOOOOOOOOOOOOOOOOO",
"ooooooooooooXoooooOOOOOOOOOOOOOOOOOOOOOOOOOOOOOOOOOOOOOOOOOO",
"oo ooooooooooooo.oOOOOOOOOOOOOOOOOOOOOOOOOOOOOOOOOOOOOOOOOOO",
"o.ooooooooooooooooOOOOOOOOOOOOOOOOOOOOOOOOOOOOOOOOOOOOOOOOOO",
"ooooooooooooXoooooOOOOOOOOOOOOOOOOOOOOOOOOOOOOOOOOOOOOOOOOOO",
"o.ooooOOOOOOOOOOOOooooooOOOOOOOOOOOOOOOOOOOOOOOOOOOOOOOOOOOO",
"ooooooOOOOOOOOOOOOooooooOOOOOOOOOOOOOOOOOOOOOOOOOOOOOOOOOOOO",
"XoooooOOOOOOOOOOOOX.ooooOOOOOOOOOOOOOOOOOOOOOOOOOOOOOOOOOOOO",
"ooooooOOOOOOOOOOOOooooooOOOOOOOOOOOOOOOOOOOOOOOOOOOOOOOOOOOO",
"oo oooOOOOOOOOOOOOooooooOOOOOOOOOOOOOOOOOOOOOOOOOOOOOOOOOOOO",
"ooooooOOOOOOOOOOOOooooooOOOOOOOOOOOOOOOOOOOOOOOOOOOOOOOOOOOO",
"ooooooOOOOOOOOOOOOo.ooooOOOOOOOOOOOOOOOOOOOOOOOOOOOOOOOOOOOO",
"Xo oooOOOOOOOOOOOOooooooOOOOOOOOOOOOOOOOOOOOOOOOOOOOOOOOOOOO",
"ooooooOOOOOOOOOOOOooooooOOOOOOOOOOOOOOOOOOOOOOOOOOOOOOOOOOOO",
"ooooo OOOOOOOOOOOOooooooOOOOOOOOOOOOOOOOOOOOOOOOOOOOOOOOOOOO",
"ooooooOOOOOOOOOOOOo.ooooOOOOOOOOOOOOOOOOOOOOOOOOOOOOOOOOOOOO",
"Xo oooOOOOOOOOOOOOooooooOOOOOOOOOOOOOOOOOOOOOOOOOOOOOOOOOOOO",
"oooo.oooooooooooooOOOOOOooooooOOOOOOooooooOOOOOOOOOOOOOOOOOO",
"oooXooooooooooooooOOOOOOooooooOOOOOOo.ooooOOOOOOOOOOOOOOOOOO",
"ooooooooooooooooo OOOOOOooooooOOOOOOXoooooOOOOOOOOOOOOOOOOOO",
"XoooooooooooooooooOOOOOOoooo.oOOOOOOooooooOOOOOOOOOOOOOOOOOO",
"ooooooooooooooooooOOOOOOooooo OOOOOOooooooOOOOOOOOOOOOOOOOOO",
"ooooooooooooooooooOOOOOOoooXooOOOOOOooooooOOOOOOOOOOOOOOOOOO",
"ooooooOOOOOOOOOOOOOOOOOOOOOOOOX.ooooOOOOOOOOOOOOOOOOOOOOOOOO",
"ooooooOOOOOOOOOOOOOOOOOOOOOOOOooooooOOOOOOOOOOOOOOOOOOOOOOOO",
"ooooooOOOOOOOOOOOOOOOOOOOOOOOOooooooOOOOOOOOOOOOOOOOOOOOOOOO",
"ooooooOOOOOOOOOOOOOOOOOOOOOOOOooooooOOOOOOOOOOOOOOOOOOOOOOOO",
"o.ooooOOOOOOOOOOOOOOOOOOOOOOOOooooooOOOOOOOOOOOOOOOOOOOOOOOO",
"ooooooOOOOOOOOOOOOOOOOOOOOOOOOooooooOOOOOOOOOOOOOOOOOOOOOOOO",
"ooooooOOOOOOOOOOOOOOOOOOoooo.oOOOOOOo.ooooOOOOOOOOOOOOOOOOOO",
"ooooooOOOOOOOOOOOOOOOOOOooooooOOOOOOooooooOOOOOOOOOOOOOOOOOO",
"ooooooOOOOOOOOOOOOOOOOOOooooooOOOOOOooooooOOOOOOOOOOOOOOOOOO",
"ooooooOOOOOOOOOOOOOOOOOOooooooOOOOOOooooooOOOOOOOOOOOOOOOOOO",
"ooooo OOOOOOOOOOOOOOOOOOooooooOOOOOOooooooOOOOOOOOOOOOOOOOOO",
"ooooooOOOOOOOOOOOOOOOOOOooooooOOOOOOooooooOOOOOOOOOOOOOOOOOO"
};
