/* XPM */
static char *result[] = {
/* columns rows colors chars-per-pixel */
"60 60 9 1 ",
"  c #3096FE",
". c #3196FE",
"X c #3097FE",
"o c #3197FE",
"O c #3096FF",
"+ c #3196FF",
"@ c #3097FF",
"# c #3197FF",
"$ c None",
/* pixels */
"$$$$$$$$$$$$$$$$$$$$$$$$$$$$$$$$$$$$$$$$$$$$$$$$$$$$$$$$$$$$",
"$$$$$$$$$$$$$$$$$$$$$$$$$$$$$$$$$$$$$$$$$$$$$$$$$$$$$$$$$$$$",
"$$$$$$$$$$$$$$$$$$$$$$$$$$$$$$$$$$$$$$$$$$$$$$$$$$$$$$$$$$$$",
"$$$$$$$$$$$$$$$$$$$$$$$$$$$$$$$$$$$$$$$$$$$$$$$$$$$$$$$$$$$$",
"$$$$$$$$$$$$$$$$$$$$$$$$$$$$$$$$$$$$$$$$$$$$$$$$$$$$$$$$$$$$",
"$$$$$$$$$$$$$$$$$$$$$$$$$$$$$$$$$$$$$$$$$$$$$$$$$$$$$$$$$$$$",
"$$$$$$$$$$$$$$$$$$$$$$$$XXXXXX      ######$$$$$$$$$$$$$$$$$$",
"$$$$$$$$$$$$$$$$$$$$$$$$X XXXX      ######$$$$$$$$$$$$$$$$$$",
"$$$$$$$$$$$$$$$$$$$$$$$$XXXXXX      ######$$$$$$$$$$$$$$$$$$",
"$$$$$$$$$$$$$$$$$$$$$$$$X XXXX      ######$$$$$$$$$$$$$$$$$$",
"$$$$$$$$$$$$$$$$$$$$$$$$XXXXXX      ###@##$$$$$$$$$$$$$$$$$$",
"$$$$$$$$$$$$$$$$$$$$$$$$XXXX X      ######$$$$$$$$$$$$$$$$$$",
"$$$$$$$$$$$$$$$$$$@@@#@@$$$$$$$$$$$$$$$$$$######$$$$$$$$$$$$",
"$$$$$$$$$$$$$$$$$$@@@@@@$$$$$$$$$$$$$$$$$$####+#$$$$$$$$$$$$",
"$$$$$$$$$$$$$$$$$$@@@@@X$$$$$$$$$$$$$$$$$$######$$$$$$$$$$$$",
"$$$$$$$$$$$$$$$$$$@@@@@@$$$$$$$$$$$$$$$$$$@#####$$$$$$$$$$$$",
"$$$$$$$$$$$$$$$$$$@@@@@@$$$$$$$$$$$$$$$$$$######$$$$$$$$$$$$",
"$$$$$$$$$$$$$$$$$$@@@@@@$$$$$$$$$$$$$$$$$$######$$$$$$$$$$$$",
"$$$$$$$$$$$$......$$$$$$$$$$$$$$$$$$$$$$$$$$$$$$$$$$$$$$$$$$",
"$$$$$$$$$$$$ .....$$$$$$$$$$$$$$$$$$$$$$$$$$$$$$$$$$$$$$$$$$",
"$$$$$$$$$$$$....o.$$$$$$$$$$$$$$$$$$$$$$$$$$$$$$$$$$$$$$$$$$",
"$$$$$$$$$$$$......$$$$$$$$$$$$$$$$$$$$$$$$$$$$$$$$$$$$$$$$$$",
"$$$$$$$$$$$$......$$$$$$$$$$$$$$$$$$$$$$$$$$$$$$$$$$$$$$$$$$",
"$$$$$$$$$$$$..+.o.$$$$$$$$$$$$$$$$$$$$$$$$$$$$$$$$$$$$$$$$$$",
"$$$$$$$$$$$$@@@@@X$$$$$$$$$$$$$$$$$$$$$$$$$$$$$$$$$$$$$$$$$$",
"$$$$$$$$$$$$@@@@@@$$$$$$$$$$$$$$$$$$$$$$$$$$$$$$$$$$$$$$$$$$",
"$$$$$$$$$$$$#@@@@X$$$$$$$$$$$$$$$$$$$$$$$$$$$$$$$$$$$$$$$$$$",
"$$$$$$$$$$$$@@@@@@$$$$$$$$$$$$$$$$$$$$$$$$$$$$$$$$$$$$$$$$$$",
"$$$$$$$$$$$$@O@@@@$$$$$$$$$$$$$$$$$$$$$$$$$$$$$$$$$$$$$$$$$$",
"$$$$$$$$$$$$@@@@@@$$$$$$$$$$$$$$$$$$$$$$$$$$$$$$$$$$$$$$$$$$",
"$$$$$$$$$$$$oooooo######++.++++OOOOO#@@@@@$$$$$$$$$$$$$$$$$$",
"$$$$$$$$$$$$oooooo#####o+++++++OOOOO@@@@@@$$$$$$$$$$$$$$$$$$",
"$$$$$$$$$$$$oooooo#+####++++++OOO+OO@@@@@@$$$$$$$$$$$$$$$$$$",
"$$$$$$$$$$$$oooooo######++++++OOOOOO@@@@@@$$$$$$$$$$$$$$$$$$",
"$$$$$$$$$$$$oooooo######++++++OOOOO @@@@@@$$$$$$$$$$$$$$$$$$",
"$$$$$$$$$$$$oooXoo######++++++OOOOOO@@@@@@$$$$$$$$$$$$$$$$$$",
"$$$$$$$$$$$$     O$$$$$$$$$$$$$$$$$$$$$$$$OOOOOO$$$$$$$$$$$$",
"$$$$$$$$$$$$      $$$$$$$$$$$$$$$$$$$$$$$$OOOOOO$$$$$$$$$$$$",
"$$$$$$$$$$$$      $$$$$$$$$$$$$$$$$$$$$$$$OOOOOO$$$$$$$$$$$$",
"$$$$$$$$$$$$      $$$$$$$$$$$$$$$$$$$$$$$$O@OOOO$$$$$$$$$$$$",
"$$$$$$$$$$$$      $$$$$$$$$$$$$$$$$$$$$$$$OOOOOO$$$$$$$$$$$$",
"$$$$$$$$$$$$   .  $$$$$$$$$$$$$$$$$$$$$$$$+OOO@O$$$$$$$$$$$$",
"$$$$$$$$$$$$++++++$$$$$$$$$$$$$$$$$$$$$$$$OO OOO$$$$$$$$$$$$",
"$$$$$$$$$$$$+++O++$$$$$$$$$$$$$$$$$$$$$$$$OOOOOO$$$$$$$$$$$$",
"$$$$$$$$$$$$++++++$$$$$$$$$$$$$$$$$$$$$$$$OOOOOO$$$$$$$$$$$$",
"$$$$$$$$$$$$+++O#+$$$$$$$$$$$$$$$$$$$$$$$$OOOOOO$$$$$$$$$$$$",
"$$$$$$$$$$$$++++++$$$$$$$$$$$$$$$$$$$$$$$$OOOOOO$$$$$$$$$$$$",
"$$$$$$$$$$$$++++++$$$$$$$$$$$$$$$$$$$$$$$$+OOOOO$$$$$$$$$$$$",
"$$$$$$$$$$$$$$$$$$XXXX Xoooooo..+....o. ..$$$$$$$$$$$$$$$$$$",
"$$$$$$$$$$$$$$$$$$XXXXXXoooooo............$$$$$$$$$$$$$$$$$$",
"$$$$$$$$$$$$$$$$$$XXXXXXoooooo..+.........$$$$$$$$$$$$$$$$$$",
"$$$$$$$$$$$$$$$$$$XXXoXXoooooo............$$$$$$$$$$$$$$$$$$",
"$$$$$$$$$$$$$$$$$$XXXXXXoooooo............$$$$$$$$$$$$$$$$$$",
"$$$$$$$$$$$$$$$$$$XXXXXXoooooo............$$$$$$$$$$$$$$$$$$",
"$$$$$$$$$$$$$$$$$$$$$$$$$$$$$$$$$$$$$$$$$$$$$$$$$$$$$$$$$$$$",
"$$$$$$$$$$$$$$$$$$$$$$$$$$$$$$$$$$$$$$$$$$$$$$$$$$$$$$$$$$$$",
"$$$$$$$$$$$$$$$$$$$$$$$$$$$$$$$$$$$$$$$$$$$$$$$$$$$$$$$$$$$$",
"$$$$$$$$$$$$$$$$$$$$$$$$$$$$$$$$$$$$$$$$$$$$$$$$$$$$$$$$$$$$",
"$$$$$$$$$$$$$$$$$$$$$$$$$$$$$$$$$$$$$$$$$$$$$$$$$$$$$$$$$$$$",
"$$$$$$$$$$$$$$$$$$$$$$$$$$$$$$$$$$$$$$$$$$$$$$$$$$$$$$$$$$$$"
};
