/* XPM */
static char *result[] = {
/* columns rows colors chars-per-pixel */
"60 60 9 1 ",
"  c #8CC4FE",
". c #8DC4FE",
"X c #8CC5FE",
"o c #8DC5FE",
"O c #8CC4FF",
"+ c #8DC4FF",
"@ c #8CC5FF",
"# c #8DC5FF",
"$ c None",
/* pixels */
"$$$$$$$$$$$$$$$$$$$$$$$$$$$$$$$$$$$$$$$$$$$$$$$$$$$$$$$$$$$$",
"$$$$$$$$$$$$$$$$$$$$$$$$$$$$$$$$$$$$$$$$$$$$$$$$$$$$$$$$$$$$",
"$$$$$$$$$$$$$$$$$$$$$$$$$$$$$$$$$$$$$$$$$$$$$$$$$$$$$$$$$$$$",
"$$$$$$$$$$$$$$$$$$$$$$$$$$$$$$$$$$$$$$$$$$$$$$$$$$$$$$$$$$$$",
"$$$$$$$$$$$$$$$$$$$$$$$$$$$$$$$$$$$$$$$$$$$$$$$$$$$$$$$$$$$$",
"$$$$$$$$$$$$$$$$$$$$$$$$$$$$$$$$$$$$$$$$$$$$$$$$$$$$$$$$$$$$",
"$$$$$$$$$$$$$$$$$$######......ooooooXX@XXX$$$$$$$$$$$$$$$$$$",
"$$$$$$$$$$$$$$$$$$###### .....ooooooXXXXXX$$$$$$$$$$$$$$$$$$",
"$$$$$$$$$$$$$$$$$$######......ooooooXXXXXX$$$$$$$$$$$$$$$$$$",
"$$$$$$$$$$$$$$$$$$######......ooooooXXXXXX$$$$$$$$$$$$$$$$$$",
"$$$$$$$$$$$$$$$$$$#+##+#....o.ooooooXXXXXX$$$$$$$$$$$$$$$$$$",
"$$$$$$$$$$$$$$$$$$#####o......ooooooXXXXXX$$$$$$$$$$$$$$$$$$",
"$$$$$$$$$$$$######$$$$$$$$$$$$$$$$$$$$$$$$######$$$$$$$$$$$$",
"$$$$$$$$$$$$######$$$$$$$$$$$$$$$$$$$$$$$$######$$$$$$$$$$$$",
"$$$$$$$$$$$$##o###$$$$$$$$$$$$$$$$$$$$$$$$#+####$$$$$$$$$$$$",
"$$$$$$$$$$$$@#####$$$$$$$$$$$$$$$$$$$$$$$$######$$$$$$$$$$$$",
"$$$$$$$$$$$$######$$$$$$$$$$$$$$$$$$$$$$$$######$$$$$$$$$$$$",
"$$$$$$$$$$$$######$$$$$$$$$$$$$$$$$$$$$$$$@+####$$$$$$$$$$$$",
"$$$$$$$$$$$$$$$$$$$$$$$$$$$$$$$$$$$$$$$$$$......$$$$$$$$$$$$",
"$$$$$$$$$$$$$$$$$$$$$$$$$$$$$$$$$$$$$$$$$$ ....+$$$$$$$$$$$$",
"$$$$$$$$$$$$$$$$$$$$$$$$$$$$$$$$$$$$$$$$$$......$$$$$$$$$$$$",
"$$$$$$$$$$$$$$$$$$$$$$$$$$$$$$$$$$$$$$$$$$......$$$$$$$$$$$$",
"$$$$$$$$$$$$$$$$$$$$$$$$$$$$$$$$$$$$$$$$$$.....+$$$$$$$$$$$$",
"$$$$$$$$$$$$$$$$$$$$$$$$$$$$$$$$$$$$$$$$$$ .....$$$$$$$$$$$$",
"$$$$$$$$$$$$$$$$$$$$$$$$oooooo@@@@@@      $$$$$$$$$$$$$$$$$$",
"$$$$$$$$$$$$$$$$$$$$$$$$ooooo#@@@@@@      $$$$$$$$$$$$$$$$$$",
"$$$$$$$$$$$$$$$$$$$$$$$$oooooo@@@@@X      $$$$$$$$$$$$$$$$$$",
"$$$$$$$$$$$$$$$$$$$$$$$$oooooo@O@@@@      $$$$$$$$$$$$$$$$$$",
"$$$$$$$$$$$$$$$$$$$$$$$$oooooo@@@@@@      $$$$$$$$$$$$$$$$$$",
"$$$$$$$$$$$$$$$$$$$$$$$$oo#oo#@@@@@@      $$$$$$$$$$$$$$$$$$",
"$$$$$$$$$$$$$$$$$$$$$$$$$$$$$$$$$$$$$$$$$$oooXoo$$$$$$$$$$$$",
"$$$$$$$$$$$$$$$$$$$$$$$$$$$$$$$$$$$$$$$$$$Xooooo$$$$$$$$$$$$",
"$$$$$$$$$$$$$$$$$$$$$$$$$$$$$$$$$$$$$$$$$$oooooo$$$$$$$$$$$$",
"$$$$$$$$$$$$$$$$$$$$$$$$$$$$$$$$$$$$$$$$$$oooooo$$$$$$$$$$$$",
"$$$$$$$$$$$$$$$$$$$$$$$$$$$$$$$$$$$$$$$$$$ooooo#$$$$$$$$$$$$",
"$$$$$$$$$$$$$$$$$$$$$$$$$$$$$$$$$$$$$$$$$$oooXoo$$$$$$$$$$$$",
"$$$$$$$$$$$$$$$$$$$$$$$$$$$$$$$$$$$$$$$$$$ X    $$$$$$$$$$$$",
"$$$$$$$$$$$$$$$$$$$$$$$$$$$$$$$$$$$$$$$$$$      $$$$$$$$$$$$",
"$$$$$$$$$$$$$$$$$$$$$$$$$$$$$$$$$$$$$$$$$$     O$$$$$$$$$$$$",
"$$$$$$$$$$$$$$$$$$$$$$$$$$$$$$$$$$$$$$$$$$      $$$$$$$$$$$$",
"$$$$$$$$$$$$$$$$$$$$$$$$$$$$$$$$$$$$$$$$$$ X    $$$$$$$$$$$$",
"$$$$$$$$$$$$$$$$$$$$$$$$$$$$$$$$$$$$$$$$$$      $$$$$$$$$$$$",
"$$$$$$$$$$$$@O@@@@$$$$$$$$$$$$$$$$$$$$$$$$.....+$$$$$$$$$$$$",
"$$$$$$$$$$$$@@@#@@$$$$$$$$$$$$$$$$$$$$$$$$......$$$$$$$$$$$$",
"$$$$$$$$$$$$@@@@@@$$$$$$$$$$$$$$$$$$$$$$$$......$$$$$$$$$$$$",
"$$$$$$$$$$$$@@@@@@$$$$$$$$$$$$$$$$$$$$$$$$......$$$$$$$$$$$$",
"$$$$$$$$$$$$@@@@@@$$$$$$$$$$$$$$$$$$$$$$$$......$$$$$$$$$$$$",
"$$$$$$$$$$$$@@@@@@$$$$$$$$$$$$$$$$$$$$$$$$....o.$$$$$$$$$$$$",
"$$$$$$$$$$$$$$$$$$oooooo+++O++OOOOOO......$$$$$$$$$$$$$$$$$$",
"$$$$$$$$$$$$$$$$$$oooooo++++++OOOOOO......$$$$$$$$$$$$$$$$$$",
"$$$$$$$$$$$$$$$$$$oooooo++++++OOOOOO......$$$$$$$$$$$$$$$$$$",
"$$$$$$$$$$$$$$$$$$oooooo++++++OOOOOO......$$$$$$$$$$$$$$$$$$",
"$$$$$$$$$$$$$$$$$$oooooo++++++OOOOOO......$$$$$$$$$$$$$$$$$$",
"$$$$$$$$$$$$$$$$$$oooooo++++++OOOOOO......$$$$$$$$$$$$$$$$$$",
"$$$$$$$$$$$$$$$$$$$$$$$$$$$$$$$$$$$$$$$$$$$$$$$$$$$$$$$$$$$$",
"$$$$$$$$$$$$$$$$$$$$$$$$$$$$$$$$$$$$$$$$$$$$$$$$$$$$$$$$$$$$",
"$$$$$$$$$$$$$$$$$$$$$$$$$$$$$$$$$$$$$$$$$$$$$$$$$$$$$$$$$$$$",
"$$$$$$$$$$$$$$$$$$$$$$$$$$$$$$$$$$$$$$$$$$$$$$$$$$$$$$$$$$$$",
"$$$$$$$$$$$$$$$$$$$$$$$$$$$$$$$$$$$$$$$$$$$$$$$$$$$$$$$$$$$$",
"$$$$$$$$$$$$$$$$$$$$$$$$$$$$$$$$$$$$$$$$$$$$$$$$$$$$$$$$$$$$"
};
