/* XPM */
static char *result[] = {
/* columns rows colors chars-per-pixel */
"60 60 9 1 ",
"  c #BCDEFE",
". c #BDDEFE",
"X c #BCDFFE",
"o c #BDDFFE",
"O c #BCDEFF",
"+ c #BDDEFF",
"@ c #BCDFFF",
"# c #BDDFFF",
"$ c None",
/* pixels */
"$$$$$$$$$$$$$$$$$$$$$$$$$$$$$$$$$$$$$$$$$$$$$$$$$$$$$$$$$$$$",
"$$$$$$$$$$$$$$$$$$$$$$$$$$$$$$$$$$$$$$$$$$$$$$$$$$$$$$$$$$$$",
"$$$$$$$$$$$$$$$$$$$$$$$$$$$$$$$$$$$$$$$$$$$$$$$$$$$$$$$$$$$$",
"$$$$$$$$$$$$$$$$$$$$$$$$$$$$$$$$$$$$$$$$$$$$$$$$$$$$$$$$$$$$",
"$$$$$$$$$$$$$$$$$$$$$$$$$$$$$$$$$$$$$$$$$$$$$$$$$$$$$$$$$$$$",
"$$$$$$$$$$$$$$$$$$$$$$$$$$$$$$$$$$$$$$$$$$$$$$$$$$$$$$$$$$$$",
"$$$$$$$$$$$$$$$$$$      oo#ooo++++++OOOOOO$$$$$$$$$$$$$$$$$$",
"$$$$$$$$$$$$$$$$$$      oooooo++++++OOOOOO$$$$$$$$$$$$$$$$$$",
"$$$$$$$$$$$$$$$$$$     OXooooo++++++OOOOOO$$$$$$$$$$$$$$$$$$",
"$$$$$$$$$$$$$$$$$$    X oo#oooO+++#+OOOOOO$$$$$$$$$$$$$$$$$$",
"$$$$$$$$$$$$$$$$$$      Xooooo++++++OOOOOO$$$$$$$$$$$$$$$$$$",
"$$$$$$$$$$$$$$$$$$      oo#oo#O+++++OOOOOO$$$$$$$$$$$$$$$$$$",
"$$$$$$$$$$$$oooooo$$$$$$$$$$$$$$$$$$$$$$$$######$$$$$$$$$$$$",
"$$$$$$$$$$$$oooXoo$$$$$$$$$$$$$$$$$$$$$$$$######$$$$$$$$$$$$",
"$$$$$$$$$$$$oooooo$$$$$$$$$$$$$$$$$$$$$$$$####+#$$$$$$$$$$$$",
"$$$$$$$$$$$$oooooo$$$$$$$$$$$$$$$$$$$$$$$$@###+#$$$$$$$$$$$$",
"$$$$$$$$$$$$oo#Xo#$$$$$$$$$$$$$$$$$$$$$$$$##o##o$$$$$$$$$$$$",
"$$$$$$$$$$$$oooooo$$$$$$$$$$$$$$$$$$$$$$$$######$$$$$$$$$$$$",
"$$$$$$$$$$$$$$$$$$$$$$$$$$$$$$$$$$$$$$$$$$     O$$$$$$$$$$$$",
"$$$$$$$$$$$$$$$$$$$$$$$$$$$$$$$$$$$$$$$$$$      $$$$$$$$$$$$",
"$$$$$$$$$$$$$$$$$$$$$$$$$$$$$$$$$$$$$$$$$$     O$$$$$$$$$$$$",
"$$$$$$$$$$$$$$$$$$$$$$$$$$$$$$$$$$$$$$$$$$    X $$$$$$$$$$$$",
"$$$$$$$$$$$$$$$$$$$$$$$$$$$$$$$$$$$$$$$$$$   .  $$$$$$$$$$$$",
"$$$$$$$$$$$$$$$$$$$$$$$$$$$$$$$$$$$$$$$$$$.   X $$$$$$$$$$$$",
"$$$$$$$$$$$$$$$$$$$$$$$$$$$$$$oooooo#+####$$$$$$$$$$$$$$$$$$",
"$$$$$$$$$$$$$$$$$$$$$$$$$$$$$$ooooo#######$$$$$$$$$$$$$$$$$$",
"$$$$$$$$$$$$$$$$$$$$$$$$$$$$$$o.oooo######$$$$$$$$$$$$$$$$$$",
"$$$$$$$$$$$$$$$$$$$$$$$$$$$$$$oooooo@#####$$$$$$$$$$$$$$$$$$",
"$$$$$$$$$$$$$$$$$$$$$$$$$$$$$$oooooo######$$$$$$$$$$$$$$$$$$",
"$$$$$$$$$$$$$$$$$$$$$$$$$$$$$$oooooo##o###$$$$$$$$$$$$$$$$$$",
"$$$$$$$$$$$$$$$$$$      @@@@@@$$$$$$$$$$$$$$$$$$$$$$$$$$$$$$",
"$$$$$$$$$$$$$$$$$$      @@@@@@$$$$$$$$$$$$$$$$$$$$$$$$$$$$$$",
"$$$$$$$$$$$$$$$$$$      @@@@O@$$$$$$$$$$$$$$$$$$$$$$$$$$$$$$",
"$$$$$$$$$$$$$$$$$$     O@@@@@@$$$$$$$$$$$$$$$$$$$$$$$$$$$$$$",
"$$$$$$$$$$$$$$$$$$      @@@@@@$$$$$$$$$$$$$$$$$$$$$$$$$$$$$$",
"$$$$$$$$$$$$$$$$$$      @@@@@@$$$$$$$$$$$$$$$$$$$$$$$$$$$$$$",
"$$$$$$$$$$$$OOOO@O$$$$$$$$$$$$$$$$$$$$$$$$$$$$$$$$$$$$$$$$$$",
"$$$$$$$$$$$$OOOOOO$$$$$$$$$$$$$$$$$$$$$$$$$$$$$$$$$$$$$$$$$$",
"$$$$$$$$$$$$OOOOOO$$$$$$$$$$$$$$$$$$$$$$$$$$$$$$$$$$$$$$$$$$",
"$$$$$$$$$$$$OOOOOO$$$$$$$$$$$$$$$$$$$$$$$$$$$$$$$$$$$$$$$$$$",
"$$$$$$$$$$$$OOOOOO$$$$$$$$$$$$$$$$$$$$$$$$$$$$$$$$$$$$$$$$$$",
"$$$$$$$$$$$$OOOOOO$$$$$$$$$$$$$$$$$$$$$$$$$$$$$$$$$$$$$$$$$$",
"$$$$$$$$$$$$######$$$$$$$$$$$$$$$$$$$$$$$$+++++.$$$$$$$$$$$$",
"$$$$$$$$$$$$###@#o$$$$$$$$$$$$$$$$$$$$$$$$++++++$$$$$$$$$$$$",
"$$$$$$$$$$$$######$$$$$$$$$$$$$$$$$$$$$$$$++++++$$$$$$$$$$$$",
"$$$$$$$$$$$$######$$$$$$$$$$$$$$$$$$$$$$$$+++O++$$$$$$$$$$$$",
"$$$$$$$$$$$$######$$$$$$$$$$$$$$$$$$$$$$$$++++++$$$$$$$$$$$$",
"$$$$$$$$$$$$###@##$$$$$$$$$$$$$$$$$$$$$$$$+++O++$$$$$$$$$$$$",
"$$$$$$$$$$$$$$$$$$++++++......            $$$$$$$$$$$$$$$$$$",
"$$$$$$$$$$$$$$$$$$++++++ .....    X       $$$$$$$$$$$$$$$$$$",
"$$$$$$$$$$$$$$$$$$+#++++......            $$$$$$$$$$$$$$$$$$",
"$$$$$$$$$$$$$$$$$$++++++......            $$$$$$$$$$$$$$$$$$",
"$$$$$$$$$$$$$$$$$$++.+++......   .        $$$$$$$$$$$$$$$$$$",
"$$$$$$$$$$$$$$$$$$++++++ .....        O   $$$$$$$$$$$$$$$$$$",
"$$$$$$$$$$$$$$$$$$$$$$$$$$$$$$$$$$$$$$$$$$$$$$$$$$$$$$$$$$$$",
"$$$$$$$$$$$$$$$$$$$$$$$$$$$$$$$$$$$$$$$$$$$$$$$$$$$$$$$$$$$$",
"$$$$$$$$$$$$$$$$$$$$$$$$$$$$$$$$$$$$$$$$$$$$$$$$$$$$$$$$$$$$",
"$$$$$$$$$$$$$$$$$$$$$$$$$$$$$$$$$$$$$$$$$$$$$$$$$$$$$$$$$$$$",
"$$$$$$$$$$$$$$$$$$$$$$$$$$$$$$$$$$$$$$$$$$$$$$$$$$$$$$$$$$$$",
"$$$$$$$$$$$$$$$$$$$$$$$$$$$$$$$$$$$$$$$$$$$$$$$$$$$$$$$$$$$$"
};
