/* XPM */
static char *result[] = {
/* columns rows colors chars-per-pixel */
"60 60 17 1 ",
"  c #7E8C9C",
". c #7F8C9C",
"X c #7E8D9C",
"o c #7F8D9C",
"O c #7E8C9D",
"+ c #7F8C9D",
"@ c #7E8D9D",
"# c #7F8D9D",
"$ c #2892FE",
"% c #2992FE",
"& c #2893FE",
"* c #2993FE",
"= c #2892FF",
"- c #2992FF",
"; c #2893FF",
": c #2993FF",
"> c None",
/* pixels */
">>>>>>>>>>>>>>>>>>>>>>>>>>>>>>>>>>>>>>>>>>>>>>>>>>>>>>>>>>>>",
">>>>>>>>>>>>>>>>>>>>>>>>>>>>>>>>>>>>>>>>>>>>>>>>>>>>>>>>>>>>",
">>>>>>>>>>>>>>>>>>>>>>>>>>>>>>>>>>>>>>>>>>>>>>>>>>>>>>>>>>>>",
">>>>>>>>>>>>>>>>>>>>>>>>>>>>>>>>>>>>>>>>>>>>>>>>>>>>>>>>>>>>",
">>>>>>>>>>>>>>>>>>>>>>>>>>>>>>>>>>>>>>>>>>>>>>>>>>>>>>>>>>>>",
">>>>>>>>>>>>>>>>>>>>>>>>>>>>>>>>>>>>>>>>>>>>>>>>>>>>>>>>>>>>",
">>>>>>>>>>>>oo#oo#.o....OOOOOO###########o+OOOOO>>>>>>>>>>>>",
">>>>>>>>>>>>Xooooo......OOOOOO########o###O@OOOO>>>>>>>>>>>>",
">>>>>>>>>>>>oooooo......OOOOO ######@###+#OOOOOO>>>>>>>>>>>>",
">>>>>>>>>>>>oooooo... ..+@OOOO############OOOOOO>>>>>>>>>>>>",
">>>>>>>>>>>>oooooo......OOOOOO############OOOOOO>>>>>>>>>>>>",
">>>>>>>>>>>>oooooo......OOOOOO############OOOOOO>>>>>>>>>>>>",
">>>>>>oooooo>>>>>>>>>>>>>>>>>>>>>>>>>>>>>>>>>>>>OOOOOO>>>>>>",
">>>>>>Xooooo>>>>>>>>>>>>>>>>>>>>>>>>>>>>>>>>>>>>O@OOOO>>>>>>",
">>>>>>oooooo>>>>>>>>>>>>>>>>>>>>>>>>>>>>>>>>>>>>OOOOOO>>>>>>",
">>>>>>oooooo>>>>>>>>>>>>>>>>>>>>>>>>>>>>>>>>>>>>OOOO@ >>>>>>",
">>>>>>oo#ooo>>>>>>>>>>>>>>>>>>>>>>>>>>>>>>>>>>>>OOOOOO>>>>>>",
">>>>>>Xooo.o>>>>>>>>>>>>>>>>>>>>>>>>>>>>>>>>>>>>OOO+OO>>>>>>",
">>>>>>oooooo>>>>>>======>>>>>>>>>>>>-----%>>>>>>o.oooo>>>>>>",
">>>>>>oooooo>>>>>>===-==>>>>>>>>>>>>----:->>>>>>oooooo>>>>>>",
">>>>>>oooooo>>>>>>======>>>>>>>>>>>>------>>>>>>oooooo>>>>>>",
">>>>>>oooooo>>>>>>======>>>>>>>>>>>>------>>>>>>oooooo>>>>>>",
">>>>>>oooooo>>>>>>======>>>>>>>>>>>>------>>>>>>oooooo>>>>>>",
">>>>>>oooooo>>>>>>====;=>>>>>>>>>>>>------>>>>>>oooooo>>>>>>",
">>>>>>OOOOOO>>>>>>>>>>>>>>>>>>>>>>>>>>>>>>>>>>>>@@@@@@>>>>>>",
">>>>>>OOOOO >>>>>>>>>>>>>>>>>>>>>>>>>>>>>>>>>>>>@@@@@@>>>>>>",
">>>>>>OOOOOO>>>>>>>>>>>>>>>>>>>>>>>>>>>>>>>>>>>>@@X@@@>>>>>>",
">>>>>>OOOO@O>>>>>>>>>>>>>>>>>>>>>>>>>>>>>>>>>>>>@@@@@@>>>>>>",
">>>>>>+OOOOO>>>>>>>>>>>>>>>>>>>>>>>>>>>>>>>>>>>>@@@@@@>>>>>>",
">>>>>>O@OOOO>>>>>>>>>>>>>>>>>>>>>>>>>>>>>>>>>>>>@@@@O@>>>>>>",
">>>>>>+#++++>>>>>>::::::>>>>>>>>>>>>::::::>>>>>>OOO+OO>>>>>>",
">>>>>>++++++>>>>>>::::::>>>>>>>>>>>>::::::>>>>>>OOOOOO>>>>>>",
">>>>>>++++++>>>>>>::*:::>>>>>>>>>>>>:-::::>>>>>>OOOOOO>>>>>>",
">>>>>>++.+++>>>>>>::*:::>>>>>>>>>>>>::::::>>>>>>OOOOOO>>>>>>",
">>>>>>++++++>>>>>>:::::*>>>>>>>>>>>>::::::>>>>>>OO OOO>>>>>>",
">>>>>>++++++>>>>>>::::::>>>>>>>>>>>>::::::>>>>>>OOOOOO>>>>>>",
">>>>>>      >>>>>>>>>>>>******$&$$$$>>>>>>>>>>>>##o###>>>>>>",
">>>>>>      >>>>>>>>>>>>******$$$$$$>>>>>>>>>>>>######>>>>>>",
">>>>>>      >>>>>>>>>>>>******$$$$$=>>>>>>>>>>>>######>>>>>>",
">>>>>>   .  >>>>>>>>>>>>******$$$$&$>>>>>>>>>>>>##o###>>>>>>",
">>>>>>      >>>>>>>>>>>>****%*$$$$$$>>>>>>>>>>>>######>>>>>>",
">>>>>>.     >>>>>>>>>>>>******$$$$$$>>>>>>>>>>>>#####o>>>>>>",
">>>>>>@@@@@X>>>>>>>>>>>>>>>>>>>>>>>>>>>>>>>>>>>>++++++>>>>>>",
">>>>>>@@@@@@>>>>>>>>>>>>>>>>>>>>>>>>>>>>>>>>>>>>++++++>>>>>>",
">>>>>>@@@@@@>>>>>>>>>>>>>>>>>>>>>>>>>>>>>>>>>>>>+++++.>>>>>>",
">>>>>>@@@@@@>>>>>>>>>>>>>>>>>>>>>>>>>>>>>>>>>>>>++++++>>>>>>",
">>>>>>@@@@@@>>>>>>>>>>>>>>>>>>>>>>>>>>>>>>>>>>>>++++++>>>>>>",
">>>>>>@@@@@X>>>>>>>>>>>>>>>>>>>>>>>>>>>>>>>>>>>>++++++>>>>>>",
">>>>>>>>>>>>......+++++.++++++XXXXX@ooooooXXXoXX>>>>>>>>>>>>",
">>>>>>>>>>>>....o.++.+++++++++XXXXXXooooooXXXXXX>>>>>>>>>>>>",
">>>>>>>>>>>> .....++++#+++++++XX@oXXooooooXXXXXX>>>>>>>>>>>>",
">>>>>>>>>>>>......++++++++++++XXXXXXooooooXXXXXX>>>>>>>>>>>>",
">>>>>>>>>>>>......++++++++.+++XXXXXXooooooX XXXX>>>>>>>>>>>>",
">>>>>>>>>>>>.....++++++++#++++XXXXX@ooooooXXXXXX>>>>>>>>>>>>",
">>>>>>>>>>>>>>>>>>>>>>>>>>>>>>>>>>>>>>>>>>>>>>>>>>>>>>>>>>>>",
">>>>>>>>>>>>>>>>>>>>>>>>>>>>>>>>>>>>>>>>>>>>>>>>>>>>>>>>>>>>",
">>>>>>>>>>>>>>>>>>>>>>>>>>>>>>>>>>>>>>>>>>>>>>>>>>>>>>>>>>>>",
">>>>>>>>>>>>>>>>>>>>>>>>>>>>>>>>>>>>>>>>>>>>>>>>>>>>>>>>>>>>",
">>>>>>>>>>>>>>>>>>>>>>>>>>>>>>>>>>>>>>>>>>>>>>>>>>>>>>>>>>>>",
">>>>>>>>>>>>>>>>>>>>>>>>>>>>>>>>>>>>>>>>>>>>>>>>>>>>>>>>>>>>"
};
