/* XPM */
static char *collectable1739287938[] = {
/* columns rows colors chars-per-pixel */
"18 20 25 1 ",
"  c black",
". c #010000",
"X c #000100",
"o c #000001",
"O c #04244E",
"+ c #04254E",
"@ c #05254E",
"# c #04254F",
"$ c #0478AA",
"% c #0478AB",
"& c #0578AB",
"* c #0479AB",
"= c #30BAF8",
"- c #30BAF9",
"; c #31BAF9",
": c #30BBF9",
"> c #7BFAFE",
", c #7AFBFE",
"< c #7BFBFE",
"1 c #7BFBFF",
"2 c #FFFFFE",
"3 c #FFFEFF",
"4 c #FEFFFF",
"5 c white",
"6 c None",
/* pixels */
"666666666666    66",
"66666666666 1=== 6",
"66666666666 5:=== ",
"6666666666 551=== ",
"6666666666 <55551 ",
"666     66++5555< ",
"66 ===;1 666+=+++ ",
"6 ====;5<  6+1+666",
" 51===15<<O+   666",
" 5555555<=551==  6",
" 5555555=555;;=== ",
"+5551555=555;===1 ",
"+155=555+5551==15 ",
"6++++++++55555555 ",
"6666+=+++1555555<+",
"66666+=+=+155511+6",
"66%%%+<=1+++++++66",
"6%%%%%5:5+=1+%%&66",
"6%%%%%$$%%$%%%%&66",
"666%%***%*$%%%%666"
};
