/* XPM */
static char *_9a6fa67ef814fccce2dc2a1c75f8ef7Aq254SOwWAbiInn0[] = {
/* columns rows colors chars-per-pixel */
"30 28 12 1 ",
"  c None",
". c black",
"X c #010000",
"o c #000100",
"O c #000001",
"+ c #0094FE",
"@ c #0194FE",
"# c #0095FE",
"$ c #0094FF",
"% c #0194FF",
"& c #0095FF",
"* c #0195FF",
/* pixels */
"      ....          ....      ",
"      ....          ....      ",
"    ..$$$$..      ..$$$$..    ",
"    ..$$$$..      ..$$$$..    ",
"  ..$$$$$$$$..  ..$$$$$$$$..  ",
"  ..$$$$$$$$..  ..$$$$$$$$..  ",
"..$$$$$$$$$$$$..$$$$$$$$$$$$..",
"..$$$$$$$$$$$$..$$$$$$$$$$$$..",
"..$$$$$$$$$$$$$$$$$$$$$$$$$$..",
"..$$$$$$$$$$$$$$$$$$$$$$$$$$..",
"..$$$$$$$$$$$$$$$$$$$$$$$$$$..",
"..$$$$$$$$$$$$$$$$$$$$$$$$$$..",
"..$$$$$$$$$$$$$$$$$$$$$$$$$$..",
"..$$$$$$$$$$$$$$$$$$$$$$$$$$..",
"  ..$$$$$$$$$$$$$$$$$$$$$$..  ",
"  ..$$$$$$$$$$$$$$$$$$$$$$..  ",
"    ..$$$$$$$$$$$$$$$$$$..    ",
"    ..$$$$$$$$$$$$$$$$$$..    ",
"      ..$$$$$$$$$$$$$$..      ",
"      ..$$$$$$$$$$$$$$..      ",
"        ..$$$$$$$$$$..        ",
"        ..$$$$$$$$$$..        ",
"          ..$$$$$$..          ",
"          ..$$$$$$..          ",
"            ..$$..            ",
"            ..$$..            ",
"              ..              ",
"              ..              "
};
