/* XPM */
static char *platform21739287438[] = {
/* columns rows colors chars-per-pixel */
"60 60 20 1 ",
"  c #010114",
". c #030216",
"X c #020316",
"o c #030316",
"O c #030317",
"+ c #03041F",
"@ c #03051F",
"# c #050620",
"$ c #050621",
"% c #050721",
"& c #0F092E",
"* c #0F082F",
"= c #0E092F",
"- c #110B30",
"; c #110A31",
": c #100B31",
"> c #110B31",
", c #121847",
"< c #141A48",
"1 c #141A49",
/* pixels */
",,,,                OOOOOOooooOoOOOOOOOOOOOOOOOOOOOOOOOO111<",
",,   +++++++++++++++%%%%@##############################Ooo<<",
",                   oOoooOOoOOOOOOooOOOOOOOOOOOOOOOOooOOooo1",
",    +++@@@@+++++++@%%%%##########%%########%%%%###%$$$Oooo1",
"    ++++@@@@@@@@++++@@%%%%%#####%%%%$$%%######%%%+%%$@%+oOOo",
"   @****=***&&&&&=**-:::>>>>;:>>>>>>;>*>>>>>;;>>>>>>;;>>#ooo",
"  @*:***=***&*&=&&;*---:>>>>>>>>->::;;>>>>>>;;>>>>>>>>>>>#oO",
" @******-=**:*&=&&**--::>>>>>>>>-::;;;>>>>>>;;>>>>>>>>>>>>$O",
" *=-=--**=&=--***;**>>>>>>>>>>>>>>>>>>>>>>>>>>>>>>>>>>>>>>>o",
" ***==**=&-===******>>>>>>>>>>>>>>>>>>>>>>>>>>>>>>>>>>>>>>>o",
" ===***&&=-*=&***;**>>>>>>>>>>>>>>>>>>>>>>>>>>>>>>>>>>>>>>>O",
" **-=-*&=***&=***;*>>>>>>>>>>>>>>>>>>>>>>>>>>>>>>>>>>>>>>>>O",
" ===*=-=&===----****>>>>>>>>>>>>>>>>>>>>>>>>>>>>>>>>>>>>>>>O",
" -**=-==-=&=**==*;:*>>>>>>>>>>>>>>>>>>>>>>>>>>>>>>>>>>>>>>>O",
" **-*=-*-**&*=&&==**>>>>>>>>>>>>>>>*>>>>>>>>>>>>>>>>>>>>>>>O",
" *==*==***==*=&==***>>>>>>>>>>>>>>>>>>>>>>>>>>>>>>>>>>>>>>>O",
" =&;=****==******-=&>>>>>>>>>->>>>>>>>>>>>>>>>>>;;>>>>>>>->O",
" =*==***=;=*****==*&>>>>>>>>>:>>>>>>>;>>>>>>>>>>:>->>>>>>>>o",
" ;*=*=>;=;=;**>***=:>>>>>>:>>>>>>>>>>;>>>>>>>>>*-->>>>>>>>>o",
" &=;==>>*==***>>=**->>>>>>->>>>>>>>>>>>>>>>>>>>>-->>>>>>>>>o",
" :::>>>>;--->>>>--:::->>::>>>>>>>>>>>>>>>>>>>>>>->>>>>>>>>>o",
"O:-->>>>;:-->>>>--::-%>>>>>>>>>>>>>>>>>>>>>>>>>>->>>>>>>>>>o",
"O--->>--::-->>>>------->>%>%>>>>%$>>>>>>>>>>>>>>>>>>>>>>>>>o",
"O-----:--::->>>>------->>>%>>>>>>>>>>>1>>>>>>>>>>>>>>>>>>>>o",
"O->>>>>>>>>>>>>>>>>>>>>>>>>>>>>>>>>%>>>>>>>>>>>>>>>>>>>>>>>o",
"O->->>>>>>>>>>>>>>>>>>>1>>>>>>>>>>>>>>>>>>>>>>>>>>>>>>>>>>>o",
"O--->>>>>:>>>>>>>>>>>>1>:>>>>%>>>>>>>>>%>>>>>>>>>>>>>>>>>>>O",
"o:-->>>>>>>>>>>>>>>>>>>>>>>>>>>>>>%>>>>>>>>>>>>>>>>>>>>>>>>o",
"O>>>>>>>>>>>>>>>>>>>%>>>>>>>>>>>1>>>>>>>>>>>>>>>>>>>>>>>->>o",
"O>>>>>>>>>>>>>>>>>>>>>>>>%>>>>>>>>>>>>>>>>>>>>>>>>>>>>>>-->o",
"O->>>>>>>>>>>>>>>>>>>>>>>>>>>>>>>>>>>%>>>>>>>>>>>>>>>>>>-->O",
"O->>>>>>>>>>:>>>>>>>>>>>>>>>>>%>>>>>%>>>>>>>>>>>>>>>>>>>>>*O",
"O--->>>>>>>>>>>>>>>>>>%>>>>>>>>>>>>$>%>>>>>>>>>>>>>>>>>>>>>o",
"O:>->>>>>>>>>>>>>>>>>>>>>>>>>>%>>>;;%>>>>>>>>>>>>>>>>>>>>>>o",
"O>>>>>>>>>>>>>>>>>>>>>>>>>>>>>>>::;;>>>>>>>>>>>>>>>>>>>>>>>o",
"O>>>>>>>>>>>>>>>>>>>>>>>>%>>>>>>::;;>>>>>>>>>>>>>>>>>>>>>>>O",
"O->>>>>>>>>>>>>>>>>>>%>>>>>>>>>>::>>>>>>>>>>>>>>>>>>>>>>>>>o",
"O->>>>>>>>>>>>>>>>>>>>>>>>>>1>>>::>>>%>>>>>>>>>>>>>>>>>>>>*O",
"O-->>>>>>>>>>>>>>>>>>>>>>>>>>>>%->>>>>>>>>>>>>>>>>>>>>>>>>>O",
"O:-->>>>>>>>>>>>>>>>>>>>%%>>>>>>>>>>>>>>>>>>>>>>>>>>>>>>>>>O",
"O>>->>>>>>>>>>>>>>>>>>>>>>>>>>>>>>>>>>>>>>>>>>>>>>>>>>>>>>>O",
"O>>:>>>>>>>>>>>>>>>>>>>>>>>>>>>>>>>>>>>>>>>>>>>>>>>>>>>>>>>o",
"O-::>>>>>>>>>>>>>>>>>>>>>>>>>>>>>>>>>>>>>>>>>>>>>>>>>>>>->>o",
"O->>>>>>>>>>>>>>>>>>>>>>>>>>>>>>>>>>>>>>;>>>>>;>>>>>>>>>>>>O",
"O--->>>>>>>>>>>>>>>>--:;>>>>>>>>>>>>>;>>>>>>>>>>>>>>>>>>>>>o",
"O:>->>>>>>>>>>>>>>>>--:;>>>>>>>>>>>>>>>>>>>>>>>>>>>>>>>>>>>o",
"O>>>>>-:>>>>>>>>>>>>-->;>>>>>>>>>>>>>>>>>>>>>>>>>>>>>>->>>>o",
"O>>>>>>::>>>>>>>>->>-->>>>>>>>>>>>>>>>>>>>>>>>>>>>>>>>---&>o",
"O>>>>>>>>>>>>>>>>>>>>>>>>>>>>>>>>>>>>>>>>>>>>>>>>>>>>>>>>>>O",
" >>>>->>>>>>>>>>>>>>>>>>>>>>>>>>>>>>>>>>>>>>>>>>>>>>>>>>>>>O",
"O-->>>>>>>>>>>>>>>>>>>>>>>>>>>>>>>>>>>>>>>>>>>>>>>>>>>>>>>>O",
"O:->>>>>>>>>>>>>>>>>>>>>>>>>>>>>>>>>>>>>>>>>>>>>>>>>>>>>>>>O",
"O>>>>>>>>>>>>>>>>>>>>>>>>>>>>>>>>>>>>>>>>>>>>>>>>>>>>>>>>>>O",
"O>>>>>>>>>>>>>>>>>>>>>>>>>>>>>>>>>>>>>>>>>>>>>>>>>>>>>>>>>>O",
"O->>>>>>>>>->>>>>>>>>>>>>>>>>>>>;;->;;>>>>>>>>>>>>>>>>>>>>-O",
"O->>>>>>>>>>>>>>>>>>>>>>>>>>>>>>:;-:;;;;>>>>>>>>>>>>>>>>>>%O",
"1O:----->>>>>>>>>>>>----->>>>>>>:>>>------>>>>>>>>>>::-:--O1",
"1O%--:-->>>>-->>>>>>::---->>>>>>-->>------>>-->>>>>>;;-:-%O1",
"11OO%:;;-->>---->>>>::;=-->>>>>>;*>;:-:;-->>---->>>>;*>%OO11",
"1111OoooOOOOOOOOOOOOOOOOOOOOOOOOOOOOOooOOOOOOOOOOOOOOOOO1111"
};
