/* XPM */
static char *platform1739285759[] = {
/* columns rows colors chars-per-pixel */
"60 60 18 1 ",
"  c #000100",
". c #000001",
"X c #170D2A",
"o c #170C2B",
"O c #160D2B",
"+ c #170D2B",
"@ c #1B1548",
"# c #1B1549",
"$ c #04254E",
"% c #04254F",
"& c #1B205A",
"* c #1A215A",
"= c #1B215A",
"- c #1B215B",
"; c #362F78",
": c #362E79",
"> c #362F79",
", c #372F79",
/* pixels */
"======...........---===......------.....---...........--====",
"=====.@@>>,,,,>>#......@,>>>#......#,,>#...#>>>>>>,;,#.-====",
"====.@;;>>>>,>>>;;,>>>>>,,>>>,,,>;>>,;;>>>,,>>>>>;;;,,#.--==",
"===.@;;;>>>>,,>>;;;;>>>>,,>>>,,,>>>>,,;:>,,,>>>>>;;;,,,#.==-",
"--.#;;;;>>>o++>>;>>>>>>>>>>>>>>>::>>>>>,>>;;;;++O,>>;;;;#.--",
"-.#>;;;o+++>>>+++>>,>>>++>>++>>>;;>+++++>;;+++>>,OO>;;>:;#.-",
"=.>>>>o:-,>>>>>>>-+++++>$++;=++++++;>->>+++;%;;>-,>ooo>>;;.-",
".@>>>o::>>>>>>>>>>,,>=>>;;>>;>>>;;;;;>>>;=;;;;::,>>>>>o>;;@.",
".>>>+>>:>,,-%,>>>>>>>>>>;;;:>>>-%>>>>>>>>>>>>>>>>>>-$>>+>>>.",
".>;;+,;;,,->->>>>%,>>>>>;;;,>>->->>>,%>>>>>>>>>>>>->=>>+>>,.",
".>;;+->>>>>->>;;>>>>>,::;=;;>>>->>>>>>>>>>>>>->>;;>->>>+,,,.",
".>>>+,>>>>>>>>:>>>>>>>:,;;;,>>>>>,>>>>>>>>>>>>>>;;>>;;;+,,,.",
".>;;;+>>>>::>>>>>>->;;;,>>>>>>>>>>>>>>->>>>>>>>>;>>,>>+>>>>.",
".,;;;+>>->,%>>>>>>>>;;;;>>>>->>$>>>>>>>>>>;;::>>->>$>>+>>,>.",
".>;;;+:>>>>;>>>->>>>;;>->>>>>>>>>>,->;>>>>:-,;;;,>>>>>+>>>>.",
".,;;:+>>>>;;>>>>>>>>>>>>$>>>>>>>>>:,:;>>>::,%;;>,>>>>>+>>>>.",
".>>>+>>>>>>>>>>>>>>>>>>%>>>>>;;:>>>>>>>>>>>%>>>>>>>>>>>+,,,.",
".>>>+>->>>$>>>>>>>>>>>>>>>->;;%:,,>>>>>,>>>>>>->>>%>;>>+;,,.",
".>>>+>::>>>>->>>>>>>>>,,>>>>>>,>-,>>,>>>>>>>>>>>>>;:=;>+;;,.",
".>>>+>:;>>->>>>>>>>>>>>->>>>>>->>>>>,>>>>>>->>>>>>-,,;>+;;,.",
".>>>;+,;>>>>>>>>>>>;;;:>;;>>>>>>;;;:>->>>>;;;;>>>>>>>;+>:>>.",
".>;>;+;;>>>$>>>>>>>>;;>>;;>>>>>%;;::>>>>>>;>,:>>>>>%;;+>>>,.",
".;;;+;;->>>>,>>>>>>>;;:>-;>->>>>>;>>>>>>>>>>->>-;>>>>;>o>,,.",
".;;;+;;>>$>>>>->>>>%;;::;;>>>%>>>>->>>>%>>>>::>>;$>>>>-o,,,.",
".,;;o>>>;;;;;;>>>>%>>>>>::>>>>>>>;;;;;%>>>>>>>>>;;>>>>>+;;;.",
".,;,o>>>>>;;::->;>>>>>>>>>>>>>>>>>-,::>>>>>>>>>>::>>>>-+;;#.",
".#,,>+;;->>>:>,>;->>>>>>%,,>->>>>>>>>->>>>>>$>>>->>>>>+>;;#.",
"-.,,>>+>>>>>:>,,;,>>>->>,,>>>>>>>>>>>>>>;->>>>>>,,>>>+>>;;#.",
"=.>>>>+>>>>-%>,>;;:>>>>>::;;>>>-%>>>,,>:;;;:>>>>>>>-%+>>;;.-",
"=.>>>>+,>>->->,>;%>>>>>>:;;;>>->->>>>%>:;;>>>>>>>>->-+>>;;.-",
".@>>>+>>>>>->>>>>>>;>>>>:->;>>>->>>>>>:::;>>>->>>>>->>+>;;@.",
".>>>>+>>>>>>>>>>>::;>>>,,,>>>>>>>>>>>>;::;;;>>>>>>>>>>+>;;@.",
".,,,+>>>>>>>,>>>>,->>>>>,>>>>>>>>>>>>>->>>;;;;;:>>>>>;>+>>>.",
".,,,+>>>->>%>>>>>>>>>>>>,>>>->>%>>;;>>>>>>>>,;>:=>>$>>>+>>;.",
".>>>>+>:,,,>>>>->>>>>>>->>>>>>>>:;;->>>>>>>->>>>>>>>>>+>;;;.",
".>>>>>+;,,,>>>>>>>>>>,>>%>>>>>>>:;;,>>>>>>>>%,>>>>>>>+>>>;;.",
".>;;;;+>>>>>>>>>:>>>>>>%,>,,:>>>:>>>>>>->>>$>>>>>>>>>+>>>>,.",
".>;;;+->>>$>>>>>>>>>>>>>>>-;>>%>>>>>>>>>>>>>>>->>>$>>>+>>>,.",
".;;;;+,:;;>>->>>:>;;>;>>>;;;>>>>->>>>>>>>>>>>>>>>>>>=>+>>,#.",
".@;;;+::;;->>>>>:;;;;;>->>;;>>->>>>>>>>>>>>->>>>>>=>>>+>>>#.",
"-.>>;;O>;;>>>>>>>>>>>>>>>>>>>>>>>,>>>:;;>>>>>;;;>>;;;X>>,,.-",
"-.>>;>O>:;>%>>>>>>>>>>>>>>>>>>>$>>>>>:;;>>>>>;;;>>;%>X>>,;.-",
"-.>>;;O-:,,>>>>>>>>>>>>>-;>->>>>>>,,>>>;>>>>-:;->>>>>+,>,,.-",
"-.>>>;O>:%>>>>->>>>%>>>>;;>>>$>>>>->>>>%>>>>,;;;>%>,>+,>;,.-",
"-.,,>>o>>>>>,>>>>>%>;>>>;;;;>>>>>>>>>>%>;>>>:::>>>>>,O,,;>.-",
".@,,>o>>>>>>>>->>>>>:>>>;;;;>>>>>>->>>>>;>>>::>>>>>>>>o>;:@.",
".>,>o>>>-,>>>>>>>->>>>>>%:;:->>>>>>>>->>;,>>%>>>->>>>>,o,,@.",
".>>>o>>>>,>>>>>,>>>>,-,,,:::>>>>>>>>>>>::->>>>>>>>>>>>>o,>@.",
".,>>+>>>;;:-%:>>>>;;;;;:>>>>>>>-%>>>>>>>>>>>>>>>>>>-$>>+;;;.",
".,>;>+>>;;-,->>>>%;>;;::>>>>>>->-;>>>%>>>>>>>>>>>>->->+>;;;.",
".;;;,,+;>>>->>>>>>>>>>>,>->>>>>-,;:>,>>>>>>>>->>,>>->+>>;;>.",
".;;;,,+>>>>>>>>>>>>>>>>,,,>>>>>>;;>>>>>>>>>>>>>>>>>>>+>>;;;.",
".>>,,>+>>>>>>:;;>>->>>>>>;>>;;>>>>>>>>->>>>>>:;;>>>>>o>>;;;.",
".>>,,>+>->>%>:;+++>>>>>>>>>>++++>>>>>>>>>>+++;;;->>$>+;>;>@.",
".#@>>>>++++,>++>>>++++++oo++;;>>oo+o++++++>>,++;>++++,;;;@@.",
".++#>>,>>,>++>>>>>>>>>>>;;;;;;>>>>>>>>>>>>,>>>;++>>>>,>>@++.",
".+++@;;;;;;;;;:>>>>>;;;;;:::>>>>>,>>>>>;;;;>;;;;>>>>>>>@+++.",
".++++@;;;;,;;;:>>>>>;;;;;;>>>;>>>,>>>>>;;;>>;;;,>>>>>>#++++.",
".+++++@;;,,,;;------;;;;>,>>---->>>>;>>>=---==;;>>>>>#+++++.",
".++++++@:,------------------------------=---=--=->>##++++++."
};
