/* XPM */
static char *waterfall_texture__1_1739284419[] = {
/* columns rows colors chars-per-pixel */
"41 41 11 1 ",
"  c #000100",
". c #0F092E",
"X c #0E092F",
"o c #0F092F",
"O c #121846",
"+ c #121847",
"@ c #131847",
"# c #121947",
"$ c #131947",
"% c #03234C",
"& c #02234D",
/* pixels */
"ooooooooooooooooooooooooooooooooooooooooo",
"ooooO++O+++%O++ooOOO++oooooooOO&$+ooooo++",
"ooO+o++o+++O+++++O++$++Oo++o+++++O++$++O+",
"oOO++++O+%++++o++OO&+++OO$+++%++++o+$++&O",
"o++++++++++++O++++&OO++++++++O+++O++++&$+",
"+++O+++++++++$o++++++++O+$O++O++++o+++O++",
"OO+O%++Oo++++++++o++++$+%+++o+++++$++o+O+",
"Oo++++++++O++++++$+++o+++++O+O+$++O$+++++",
"O++++++O+O$o%O+O+O+++++$+++O+$$o%+++++$++",
"$O+++++$++o+o++++&++++++$+++$$o+o+O++%+++",
"$++++o++++Oo++O+O++++++$Oo$+O++o$++O++$++",
"++++++++++++$+++++++$++$++$+O+++O+++O+$++",
"++++$+++++++++++++oO+++++++++$$$++++++oO+",
"O+++$+O+o++%++++$$++++O+O+++o$+&++$++O$++",
"++Oo+++++++$+++o++O$+++o++++++++$+OoO+++O",
"++++%+O+++O+++O++OO++++O&+++++++$++++++++",
"++O&$+++O$++O+$++++++++%O+O++++++O+++++++",
"+OO#O+o++O&+++++$O++O++O$+oO++&++O+++O+O+",
"++##++++++++o$++O++++++++O$+++OOo++O+++++",
"++#o$$$+$+o$++++$++++++oOO+O++o+$++++++++",
"++++++O$+++++$$++++++++++++++$O++++$+++$+",
"++++++++$+O&$+O$+++++O++O+++$++%O+++++++$",
"o+++o++o+O++++$++++O++++o++o+++++++$$++++",
"o$++++$++&++O$o+$++&+++O+++++%++++o++++%+",
"oO++++++$++++OO+++&++++++++$++$++O++++%++",
"o++O+O$O+++O++oO+O$+O$+++O+O++O$++o+O++O$",
"o+++&+++o+O+++O++o+++$+O%+++o$+++++++o++$",
"oo++O$O++++$+++$$+++OO++++$+++++O++O+O+$$",
"++++++++++Oo&++OOO+++O+++OO$+++o&O++OO+$$",
"+O++++++++o+o++++&++++++++++OOoOoO+++&+++",
"+++++o++$++oO++++++++++O+o+++++o++++O++++",
"++$++++$++++O+++$$++OO++$++++++++O+++++++",
"+++++++++++++++O++o++++++++++++++++O+$o++",
"++++OO++oO+%++OOO++O+++O++++o++%+O$++++++",
"##+oOO+++++++OOoO++++O+o+OO+++++++$o+++++",
"####&+++++++++++O++O++++%+++++++O+O++O+$O",
"X++%+++++++++++++++O@@+%+++++++++O++++++O",
"o++++++++O&++O++++++@@@$O+O++$%OO+$$++++O",
"oo++++++++++o+++++++@@$$++++++++o$+++$+++",
"oooooooo++++++++++++++$+++++$+++OO++++++o",
"                                         "
};
