/* XPM */
static char *wall1739285071[] = {
/* columns rows colors chars-per-pixel */
"60 99 15 1 ",
"  c black",
". c #000100",
"X c #170C2B",
"o c #170D2B",
"O c #1B1448",
"+ c #1B1548",
"@ c #04244E",
"# c #04254E",
"$ c #1B205A",
"% c #1A215A",
"& c #1B215A",
"* c #1B215B",
"= c #362F78",
"- c #362F79",
"; c #372F79",
/* pixels */
"&&&&&&           &&&&&&      &&&&&&     &&&           &&&&&&",
"&&&&& ++--------+      +----+      +---+   +---------+ &&&&&",
"&&&& +------------------------------------------------+ &&&&",
"&&& +----------------------------------------------;---+ &&&",
"&& +-------ooo--------------------------------ooo-----;-+ &&",
"& +----Xooo---ooo=-----oo--oo-;----ooooo---ooo---oo---;--+ &",
"& ----X-&--------&ooooo-#oo-&oooooo--&--ooo-#;--&--ooo---- &",
" +---X--------------=&--------------;----&------------o---+ ",
" ---o-;----&#-----------------;&#------------------&#--o--- ",
" ---o-----&-&----#------------&-&----#------------&-&--o--- ",
" ---o&-----&-------------&-----&-------------&-----&---o--- ",
" ---o-------------------------------;--;---------------o--- ",
" ----o------------&--;----------------&---------------o---- ",
" ----o--&--#----------------&--#----------------&--#--o---- ",
" ----o;--------&-------&-----------&-------&----------o---- ",
" ----o------------------#-------------------#--=------o---- ",
" ---o------------------#------------------;#-----------o--- ",
" ---o-&---#---------------&---#-----------;---&---#----o--- ",
" ---o-------&----------------=--&;-----------------;&--o--- ",
" ---o-----&------------&------&-=----------&------&---;o--- ",
" ----o------------;-------=----------&----------------o---- ",
" ----o-----#-------------------#-------------------#--o---- ",
" ---o--&----------------&--&----------------&--&-------o--- ",
" ---o----#----&----#---------#----&=---#-=-------#----&o--- ",
" ---X-------------#-------------------#----------------o--- ",
" ---X---------&---;---------------&------=------------&o--+ ",
" +---X--&--------&------#---&--------&------#---&-----o---+ ",
"& ----X--------------&-------------------&-----------o----+ ",
"& ----X----&#------------------&#--=---------------&#o---- &",
"& -;--o---&-&----#;-----------&-&----#---=--------&;&o---- &",
" +-;-o-----&------;------&-----&-------------&-----&--o---+ ",
" ----o------------------------------------------------o---+ ",
" ---o-------------&-------------------&----------------o-;- ",
" ---o---&--#--=-------------&--#----------------&--@---o-;- ",
" ----o--=------&-------$-----------&-------&----------X---- ",
" -----X-----------------@-------------------#--------o----- ",
" -----X-----------;----#---------------&---@---------o----- ",
" ----X&---#---------------&---#---------------&---#--=o---- ",
" ----X------&----------------=--&-------------------&=o--;+ ",
" +---X----&------------&------&------------&----;-&--=o---+ ",
"& ----o----------------------=-----------------------o---- &",
"& ----o----#-------------------@-------------------#-o---- &",
"& ----o&----------------&-=&--;-------------&--&-----o---- &",
"& ----o--@----&----#---------#----&----#--------;#---o---- &",
"& ----o-----------#-------------------#--------------o---- &",
" +---o--------&-----------=-------&-------------------o---+ ",
" --;o---$--------&------#---&--------&------@---&------o--+ ",
" ---o----------------&-------------------$-------------o--+ ",
" ---o------&#--------;---------&#------------------&#--o--- ",
" ----o----&-&----#------------&-&----#------------&-&-o---- ",
" -----o----&-------------&-----&-------------&-----&-o----- ",
" -----o-----------------------------;----------------o;---- ",
" ;----o-----------&-----;-----------;-&--------------o----- ",
" -----o-&--#---ooo----------oooo----------ooo---&--#-o;---+ ",
" ++----oooo--oo---oooooooooo----oooooooooo---oo--oooo----++ ",
" oo+-------oo----------------------------------oo-------+oo ",
" Xoo+--------------------------------------------------+ooo ",
" oooX+------------------------------;--------------;--+oooo ",
" ooooo+-------&&&&&&--------&&&&--------&&&&*&-------+ooooo ",
" oooooX+--&&&&&&&&&&&&&&&&&&&&&&&&&&&&&&&&&&&&&&&--++oooooo ",
"   ooooX+++&&&&&&&&&&&&&&&&&&&&&&&&&&&&&&&&&&&&&&++oooooo   ",
" oo  oXXo++&&&&&&*&++++++&&&&&&&&&&&&&&+++++&&&&&++oooo  oo ",
" oooo ooo++&&&&&&++&*&&&&+++&&&&&&&&&OO&&&&&++&&&++ooo oooo ",
" ooooo   oo++++++&&&&&&&&&&++++++OOOO&&&&&&&&&++ooo   ooooo ",
" oooooooo++&&&&&&&&&*&&&&&&&&&&&&&&&&&&&&&&&&&&&&++oooooooo ",
" oooooooo++&&&&&&&&&&&&&&&&&&&&&&*&&&&&&&&&&&&&&&++oooooXXo ",
"  oooooo+++&&&&&&&&&&&&&&&&&&&&&%%&&&&&&&&&&&&&&&+++oooooX  ",
"   oooooo++&&&&&&&&&&&&&&&&&&&&&%%&&&&&&&&&&&&&&&++oooooo   ",
" oo  oooo++&&&&&&&&++++++&&&&&&&&&&&&&&+++++&&$&&++oooo  oo ",
" oooo ooo++&&&&&&++&*&&&&+++&&&&&&&&&++&&&&&++&&&++ooo oooo ",
" ooooo   oo++++++&&&&&&&&&&++++++++++&&&&&&&&&++ooo   ooooo ",
" ooooooo+++&&&&&&&&&&&&&&&&&&&&&&&&&&&&&&&&&%*&&&+++ooooooo ",
" ooooooo+++&&&&&&&&&&&&&&&&&&&&&&&&&&&&&&&&&&&&&&+++ooooooo ",
"  oooooo+++&&&&&&&&&&&&&&&&&&&&&&&&&&&&&$&&&&&&&&+++oooooo  ",
"   oooooo++&&&&&&&&&&&&&&&&&&&&&&&&&&&&&&&&&&&&&&++oooooo   ",
" oo  oooo++&&&&&&&&++++++&&&&&&&&&&&&&&+++++&&&&&++oooo  oo ",
" oooo ooo++&&&&&&++&&&&&&+++&&&&&&$&&++&&&&&++&&&++ooo oooo ",
" ooooo   oo++++++&&&&&&&&&&++++++++++&&&&&&&&&++ooo   ooooo ",
" oooooooo++&&&*&&&&&&&&&&&&&&&&&&&&&&&&&&&&&&&&&&++oooooooo ",
" oooooooo++&&&*&&&&&&&&&&&&&&&&&&&&&&$&&&&&&&&&&&++oooooooo ",
"  oooooo+++&&&&&&&&&&&&&&&&&&&&&&&&&&&&&&&&$&&$&&+++oooooo  ",
"   oooooo++&&&&&&&&&&&&&&&&&&&&&&&&&&&&&&&&&&&&&&++oooooo   ",
" oo  oooo++&&&&&&&&++++++&&&&&&&&&&&&&&+++++&&&&&++oooo  oo ",
" oooo ooo++&&&&&&++&&&&&&+++&&&&&&&&&++&&*&&++&&&++ooo oooo ",
" ooooo   oo++++++&&&&&&&&&&++++++++++&*&&&&&&&++ooo   ooooo ",
" ooooooo++&&&&*&&&&&&&&&&&&&&&&&&&&&&&&&&&&&&&&&&&++ooooooo ",
" ooooooo++&&&&&&&&&&&&&&&&&&&&&&&&&&&&&&&&&&&&&&&&++ooooooo ",
"  oo ooo++&&&&&&&&&&&&%&&&&&&&&&&&&&&&&&&&&&&&&&&*++oooooo  ",
"   o ooo++&&&&&&&&&&&&&&&&&&&&&&&&&&&&&&&&&&&&&&&&++ooooo   ",
" oo  ooo++&&&&&&&&&++++++&&&&&&&&&&&&&&+++++*&&&&&++ooo  oo ",
" oo   oo++&&&&&&&++&&&&&&+++&&&&&&&&&++&&&&&++&&&&++oo  o o ",
" oo  o   oo++++++&&&*&&&&&&++++++++++&&&&&&&&&++ooo   o oo  ",
"& o  oXXo++&&&&&&&&&&&&&%%%%&&&&&&&&&&&&&&&&&&&&&++ooo  ooo ",
"&&   ooXo++&&&&&&&&&&&&&+%%%&&&&+&&&&&&&&&&&&&&&&++ooo oooo&",
"&&&  oooo++&&&&&&&&&&&*++%%%&&&&+*&&&&&&&&&&+&&&&++ooo ooo &",
"&&&&& ooo++&&&&&&&&&&&&++*&&&&&+++&&&&&&&&&&+&&&&++oo     &&",
"&&&&&& oo++&&&&&+&&&&&++++&&&&&++++&&&&&&*&&+&&&&++oo &&&&&&",
"&&&&&&&  ++&&&&++*&&&&+  ++&&&&   ++&&&&&&&++&&&&++  &&&&&&&",
"&&&&&&&&&              &&      &&&                 &&&&&&&&&"
};
