/* XPM */
static char *flowey21739929169[] = {
/* columns rows colors chars-per-pixel */
"40 41 12 1 ",
"  c black",
". c #000100",
"X c #010100",
"o c #FCFEFA",
"O c #FDFEFA",
"+ c #FCFFFA",
"@ c #FDFFFA",
"# c #FCFEFB",
"$ c #FDFEFB",
"% c #FCFFFB",
"& c #FDFFFB",
"* c None",
/* pixels */
"****************************************",
"****************************************",
"****************************************",
"****************************************",
"****************************************",
"****************************************",
"*******o#***&&##o******#o&##***o#*******",
"******&o&#&***&o&#o&*&&###&***&o#&******",
"*****&#&#&********************o&###*****",
"******##************************&&******",
"*************o##&###oo##&##*************",
"***&&o&*****#&#######&&o&&##************",
"**######***&oo&##o&&###o####&****o&&&***",
"*&#&##&&**###&o##o#&########&#**#####&**",
"*##*******&&###&####&####&##&&**&&oo##&*",
"*&**&&&***#####o######&######o******##&*",
"&*###&#&**#&oo##o######o&#####***&#**&##",
"#o#&#o#o**#&&###&####&##&##&##**#&&##&#&",
"##*o#&##***o####&  &#  ####o&***#####&#*",
"****#&#&&**oo#######&&&######***##&##***",
"************&&##    ooo& &&o***&&&#&****",
"*********&***&&#&      &&##***&*********",
"*******#&#****#&&###o&&o#o****##&*******",
"******o##&******####&o&&******##&&******",
"*****o&#&&##****************o##*&#&*****",
"*****o##*&&##&&**********&o#&#o*oo#*****",
"*****&##*&##&#&#&###&#&#&#####&*&#&*****",
"*****o##&*####&#&*##&**&#####&*&o##*****",
"*******&&&*#o*****&#*******&##*&&*******",
"**********&&******##&********&&*********",
"******************#o#*******************",
"******************#&&*******************",
"******************o###******************",
"******************&##&******************",
"*****************&###*******************",
"****************o###&*******************",
"*****************&##&*******************",
"**************&***###&***&**************",
"**************#**o####&**&**************",
"***************o*#####**o***************",
"*****************&#o&##*****************"
};
