/* XPM */
static char *flowey11739929170[] = {
/* columns rows colors chars-per-pixel */
"40 41 16 1 ",
"  c black",
". c #010000",
"X c #000100",
"o c #010100",
"O c #000001",
"+ c #010001",
"@ c #000101",
"# c #010101",
"$ c #FCFEFA",
"% c #FDFEFA",
"& c #FCFFFA",
"* c #FCFEFB",
"= c #FDFEFB",
"- c #FCFFFB",
"; c #FDFFFB",
": c None",
/* pixels */
"::::::::::::*****::::::*****::::::::::::",
"::::::::*****:::::::::::::::****::::::::",
":::::::*****::::::::::::::::*****:::::::",
"::::::::**::::::********::::::**::::::::",
":::::::::::::**************:::::::::::::",
":::****:::::****************:::::****:::",
"::******:::******oo**oo******:::******::",
":*******::*******oo**oo*******::*******:",
"**::::::::******-oo*-oo-******:::::::***",
"*******:::******-oo*-oo-******:::*******",
"********::******-oo*-oo-******::********",
"::******::****o*--****--*o****::******::",
":::*****:::****oooooooooo****:::*****:::",
"::::*****::*****o--****o*****::*****::::",
"::::::::::::*****oooooo*****::::::::::::",
":::::::::*:::**************:::*:::::::::",
":::::::***::::************::::***:::::::",
"::::::****::::::********::::::****::::::",
":::::****:**::::::::::::::::**:****:::::",
":::::***:******::::::::::******:***:::::",
":::::***:**********************:***:::::",
":::::************::::::************:::::",
":::::::******::::::::::::::******:::::::",
"::::::::::::::::::::::::::::::::::::::::",
"::::::::::::::::::**::::::::::::::::::::",
":::::::::::::::::***::::::::::::::::::::",
":::::::::::::::::***::::::::::::::::::::",
"::::::::::::::::****::::::::::::::::::::",
"::::::::::::::::***:::::::::::::::::::::",
"::::::::::::::::***:::::::::::::::::::::",
":::::::::::::::::***::::::::::::::::::::",
":::::::::::::::::***::::::::::::::::::::",
"::::::::::::::::::***:::::::::::::::::::",
":::::::::::::::::::**:::::::::::::::::::",
"::::::::::::::::::::**::::::::::::::::::",
"::::::::::::::::::::**::::::::::::::::::",
":::::::::::::::::::****:::::::::::::::::",
"::::::::::::::*:::*****::*::::::::::::::",
"::::::::::::::*::******::*::::::::::::::",
":::::::::::::::*::****::*:::::::::::::::",
":::::::::::::::::******:::::::::::::::::"
};
