/* XPM */
static char *first_left_11742482485[] = {
/* columns rows colors chars-per-pixel */
"15 16 40 1 ",
"  c black",
". c #010000",
"X c #000100",
"o c #010100",
"O c #000001",
"+ c #010001",
"@ c #000101",
"# c #B7987C",
"$ c #B7987D",
"% c #888786",
"& c #888687",
"* c #888787",
"= c #898787",
"- c #9D9C9C",
"; c #9C9D9C",
": c #9D9D9C",
"> c #9C9C9D",
", c #9C9D9D",
"< c #9D9D9D",
"1 c #B9B9B8",
"2 c #B9B8B9",
"3 c #B8B9B9",
"4 c #B9B9B9",
"5 c gray",
"6 c #BFBEBE",
"7 c #BFBEBF",
"8 c #BEBFBF",
"9 c gray75",
"0 c #FFFA93",
"q c #CCFECC",
"w c #CCFFCC",
"e c #CDFFCC",
"r c #EBEAEA",
"t c #EAEBEA",
"y c #EBEBEA",
"u c #EAEAEB",
"i c #EBEAEB",
"p c #EAEBEB",
"a c gray92",
"s c None",
/* pixels */
"sssss     sssss",
"sss  eeeee  sss",
"ss 33iaa$$ee ss",
"s ppi33333$$0 s",
"s pp3iapii<#0 s",
" ap7yi3aipp<p0 ",
" a77i3=%=ppp<i ",
" a7ai%iyp=py<p ",
" p7i=ip=y=yy<p ",
" p7p=ap==pi<ya ",
" p3i=%payp;yaa ",
"s p3p%==p;;ia s",
"s ypaaaa-3yy7 s",
"ss 79a33iap7 ss",
"sss @3yaiy  sss",
"sssss     sssss"
};
