/* XPM */
static char *first_left_21742482485[] = {
/* columns rows colors chars-per-pixel */
"15 16 45 1 ",
"  c black",
". c #010000",
"X c #000100",
"o c #010100",
"O c #000001",
"+ c #000101",
"@ c #B7987D",
"# c #888686",
"$ c #898686",
"% c #888786",
"& c #898786",
"* c #888687",
"= c #888787",
"- c #898787",
"; c #9D9C9C",
": c #9C9D9C",
"> c #9C9C9D",
", c #9D9C9D",
"< c #9C9D9D",
"1 c #9D9D9D",
"2 c #B8B9B8",
"3 c #B9B9B8",
"4 c #B8B8B9",
"5 c #B8B9B9",
"6 c #B9B9B9",
"7 c gray",
"8 c #BEBFBE",
"9 c #BEBEBF",
"0 c #BFBEBF",
"q c #BEBFBF",
"w c gray75",
"e c #FFFA92",
"r c #FEFA93",
"t c #FFFA93",
"y c #CCFECC",
"u c #CCFFCC",
"i c #EAEAEA",
"p c #EBEAEA",
"a c #EAEBEA",
"s c #EBEBEA",
"d c #EAEAEB",
"f c #EBEAEB",
"g c #EAEBEB",
"h c gray92",
"j c None",
/* pixels */
"jjjjoooooojjjjj",
"jjoo0iiiggoojjj",
"jo00i:11ggg0ojj",
"joii:hhh1ggg9oj",
"joi1sifhg11hgoj",
"oi4hih-*gg14gyo",
"og4hg*hs*ff1gyo",
"og4if*h*-h*g4yo",
"oh4h4&hfig&g4uo",
"oh4hh4&fh*&h@uo",
"jof4hhg*&&i@yoj",
"josswwggih4@yoj",
"joigg90994r@ojj",
"jjoogggirroojjj",
"jjjjoooooojjjjj",
"jjjjjjjjjjjjjjj"
};
