/* XPM */
static char *first_left_41742482485[] = {
/* columns rows colors chars-per-pixel */
"15 16 47 1 ",
"  c black",
". c #010000",
"X c #000100",
"o c #010100",
"O c #000001",
"+ c #010001",
"@ c #000101",
"# c #B7987D",
"$ c #888786",
"% c #898786",
"& c #888687",
"* c #898687",
"= c #888787",
"- c #898787",
"; c #9D9C9C",
": c #9C9D9C",
"> c #9C9C9D",
", c #9D9C9D",
"< c #9C9D9D",
"1 c #9D9D9D",
"2 c #B9B9B8",
"3 c #B8B8B9",
"4 c #B9B8B9",
"5 c #B8B9B9",
"6 c #B9B9B9",
"7 c gray",
"8 c #BFBEBE",
"9 c #BEBFBE",
"0 c #BEBEBF",
"q c #BFBEBF",
"w c gray75",
"e c #FFFA92",
"r c #FEFA93",
"t c #FFFA93",
"y c #CCFECC",
"u c #CCFFCC",
"i c #CDFFCC",
"p c #CCFFCD",
"a c #EAEAEA",
"s c #EBEAEA",
"d c #EAEBEA",
"f c #EBEBEA",
"g c #EAEAEB",
"h c #EBEAEB",
"j c #EAEBEB",
"k c gray92",
"l c None",
/* pixels */
"lllllllllllllll",
"llllloooooollll",
"llloorrkkkkooll",
"lloi#r0000kkkol",
"loy#rfhhk00kkol",
"loy#k=$$kkk3kol",
"oy#k$$kk$3kk5ko",
"oi5k$kkkk$5k3ko",
"oy3k&k$&k$ka3ko",
"oyk<kk$kk$kk3ko",
"okk3:kk&$kkk3ko",
"lokk;;kksks;k3o",
"lo0kkk>kkk;kkol",
"llo0kkk:<<k00ol",
"lllookkkkk0ooll",
"llllloooooollll"
};
