/* XPM */
static char *first_left_31742482485[] = {
/* columns rows colors chars-per-pixel */
"15 16 45 1 ",
"  c black",
". c #010000",
"X c #000100",
"o c #010100",
"O c #000001",
"+ c #010001",
"@ c #000101",
"# c #010101",
"$ c #B7987C",
"% c #B7987D",
"& c #898686",
"* c #888786",
"= c #898786",
"- c #888687",
"; c #888787",
": c #898787",
"> c #9C9D9C",
", c #9C9C9D",
"< c #9D9C9D",
"1 c #9C9D9D",
"2 c gray72",
"3 c #B9B9B8",
"4 c #B8B8B9",
"5 c #B9B8B9",
"6 c #B8B9B9",
"7 c #B9B9B9",
"8 c gray",
"9 c #BFBEBE",
"0 c #BEBFBE",
"q c #BFBFBE",
"w c #BEBEBF",
"e c #BFBEBF",
"r c #FFFA92",
"t c #FFFA93",
"y c #CCFECC",
"u c #CCFFCC",
"i c #EAEAEA",
"p c #EBEAEA",
"a c #EAEBEA",
"s c #EBEBEA",
"d c #EAEAEB",
"f c #EBEAEB",
"g c #EAEBEB",
"h c gray92",
"j c None",
/* pixels */
"jjjjj.....jjjjj",
"jjj..ghgg6..jjj",
"jj.wssg46hww.jj",
"j.wsf4,ghhhss.j",
"j.hh>>s-&&g6s.j",
".hhh>hgsf-&g6g.",
".hh>ss;;sh-swg.",
".h>hg;s;ss-sws.",
".s>sf-ggs&hh0f.",
".t>sgs--&6hwwf.",
".ts>fsgg6sgwgs.",
"j.tt,ssshs6gg.j",
"j.%%%66666ggh.j",
"jj.uu%%ssf66.jj",
"jjj..uuuu6..jjj",
"jjjjj.....jjjjj"
};
